<svg width="1067" height="471" viewBox="0 0 1067 471" fill="none" xmlns="http://www.w3.org/2000/svg">
<path d="M2 437.692C62.7334 437.692 145.856 441.181 205.574 428.319C268.327 414.803 327.026 395.053 387.613 374.668L389.198 374.135C490.561 340.031 512.331 323.492 606.151 271.891C640.273 253.124 765.395 186.086 801.094 229.052C804.96 227.865 809.036 226.958 813.171 226.247C975.855 198.274 1053.24 143.098 1063.69 49.4526V2C1065.33 18.8131 1065.35 34.6157 1063.69 49.4526V470.618H2V437.692Z" fill="white"/>
<path d="M2 437.692C62.7334 437.692 145.856 441.181 205.574 428.319C268.874 414.685 328.049 394.709 389.198 374.135C490.561 340.031 512.331 323.492 606.151 271.891C646.086 249.927 810.662 161.846 810.662 261.367C810.662 288.956 776.188 292.047 774.539 262.37C773.201 238.286 792.446 229.811 813.171 226.247C1001.63 193.842 1075.62 124.932 1063.69 2" stroke="#AF5E26" stroke-width="4" stroke-linecap="round"/>
</svg>
