<svg width="74" height="72" viewBox="0 0 74 72" fill="none" xmlns="http://www.w3.org/2000/svg">
<path d="M26.9085 69.8973C26.5929 68.795 21.6864 52.5746 19.8594 45.9856C18.0323 39.3965 15.6723 38.2543 12.8945 35.4859C10.1167 32.7176 7.95025 30.782 5.92972 28.8776C4.58689 27.6119 3.61739 26.9109 2.43334 25.7836C1.6221 24.1371 2.01347 23.3501 3.4265 22.2422C4.8376 21.1357 7.91065 20.6538 9.60536 20.2653C17.0089 18.5683 24.5305 17.1726 31.7668 14.8347C39.6572 12.2855 55.608 6.64645 55.608 6.64645C55.608 6.64645 59.7417 5.2244 61.8151 4.44422C63.784 3.70332 65.7643 3.2106 67.8209 2.76617C68.6423 2.58866 69.4874 2.53016 70.2022 2.67931C70.3639 2.71307 72.0638 2.96627 71.904 4.61654C71.5396 6.76917 64.7503 29.6771 64.0816 31.7569C63.6397 33.2076 59.8774 51.7192 59.8205 52.6147C59.3859 54.4746 59.1723 56.3619 58.6767 58.2084C58.3663 59.3651 58.3404 59.4186 57.9636 60.6211C57.8816 60.8829 57.2135 62.893 55.4727 63.7247C51.5829 64.9786 49.7617 62.6417 48.0936 61.137C47.3974 60.5091 36.8311 50.7985 36.1075 50.2062C35.2027 49.4654 34.3501 48.687 33.4578 47.951C32.1156 46.844 22.7385 38.323 22.3059 38.0441C21.8337 37.3441 21.1171 36.5635 22.3094 35.1889C23.1042 34.2725 23.8969 33.7289 25.1521 32.8371C26.6584 31.7669 28.6929 30.2698 29.9692 29.429C32.4217 27.8131 34.9186 26.3855 37.4745 24.9617C39.144 24.0316 40.9233 22.9999 42.5445 22.0044C46.5985 19.5149 49.2294 17.5086 53.7685 14.5476C56.7155 12.3796 62.9303 7.7945 64.8721 8.74007C66.814 9.68563 56.6862 18.9431 53.4149 22.038C51.1524 24.1784 48.3557 27.5953 47.3027 28.7767C46.0493 30.1828 43.4521 33.7494 43.2769 34.0088C43.1018 34.2681 39.361 39.4752 39.361 39.4752C38.0874 41.0687 37.2034 42.8658 36.0263 44.4969C35.2345 45.5939 34.4373 46.6673 34.1238 48.0091C33.741 49.6473 33.402 52.401 33.2759 52.9924C33.1246 53.702 32.8918 54.8693 32.6095 58.1571C32.5536 58.808 32.3365 63.6109 32.0921 66.3177C31.9931 67.414 31.9056 69.9629 33.5671 68.9099C35.5683 67.6416 41.9534 58.584 43.1626 56.6212" stroke="#AF5E26" stroke-width="4" stroke-linecap="round" stroke-linejoin="round"/>
</svg>
