<svg width="14" height="23" viewBox="0 0 14 23" fill="none" xmlns="http://www.w3.org/2000/svg">
<path d="M8.10633 1.42822C8.10633 0.955284 7.72294 0.571891 7.25 0.571891C6.77706 0.571891 6.39367 0.955284 6.39367 1.42822L8.10633 1.42822ZM6.64448 22.1971C6.9789 22.5315 7.5211 22.5315 7.85552 22.1971L13.3052 16.7474C13.6396 16.413 13.6396 15.8708 13.3052 15.5364C12.9708 15.2019 12.4286 15.2019 12.0941 15.5364L7.25 20.3805L2.40586 15.5364C2.07144 15.2019 1.52924 15.2019 1.19482 15.5364C0.860405 15.8708 0.860405 16.413 1.19482 16.7474L6.64448 22.1971ZM6.39367 1.42822L6.39367 21.5915L8.10633 21.5915L8.10633 1.42822L6.39367 1.42822Z" fill="white"/>
</svg>
