<svg width="77" height="80" viewBox="0 0 77 80" fill="none" xmlns="http://www.w3.org/2000/svg">
<path d="M34.838 22.7516C34.7971 16.5448 35.6748 3.71177 39.5132 2.03473C44.3112 -0.0615794 55.8759 18.8056 55.6299 39.2759C55.3838 59.7462 42.5885 72.6943 34.838 73.4342C27.0875 74.1741 21.0591 70.3513 16.9992 64.6788C12.9393 59.0063 10.8475 49.3878 13.9233 46.1816C16.9992 42.9754 23.1505 42.3588 25.8571 43.8386C28.5637 45.3184 27.5795 50.0043 25.1189 49.1411C22.6583 48.2779 -3.30048 26.4512 3.09696 16.3393C9.49439 6.22752 61.5348 40.2624 64.2415 52.9639C66.9481 65.6653 48.6169 81.9429 48.863 76.3937C49.1091 70.8446 56.3677 37.0563 61.5348 34.59C66.702 32.1237 69.2856 38.4127 68.0553 40.6324C66.825 42.8521 59.1973 40.7557 63.1342 32.7402C66.2837 26.3279 72.4023 24.1493 75.0679 23.8616" stroke="#DE9A6D" stroke-width="3" stroke-linecap="round"/>
</svg>
