<svg width="136" height="38" viewBox="0 0 136 38" fill="none" xmlns="http://www.w3.org/2000/svg">
<g filter="url(#filter0_d_1120_1606)">
<path d="M4.80079 2.43507C4.80079 1.3305 5.69622 0.435059 6.80079 0.435059L129.86 0.43509C130.965 0.43509 131.86 1.33051 131.86 2.43508L131.86 22.3128C131.86 23.4174 130.965 24.3129 129.86 24.3129L24.8682 24.3128C24.2488 24.3128 23.6644 24.5998 23.2857 25.0898L20.6973 28.439C19.8967 29.475 18.333 29.475 17.5324 28.439L14.944 25.0898C14.5653 24.5998 13.9809 24.3128 13.3615 24.3128H6.80089C5.69633 24.3128 4.8009 23.4174 4.80089 22.3128L4.80079 2.43507Z" fill="white"/>
<path d="M5.30079 2.43507C5.30079 1.60664 5.97236 0.935059 6.80079 0.935059L129.86 0.93509C130.689 0.93509 131.36 1.60666 131.36 2.43508L131.36 22.3128C131.36 23.1413 130.689 23.8129 129.86 23.8129L24.8682 23.8128C24.094 23.8128 23.3635 24.1715 22.8901 24.7841L20.3017 28.1332C19.7012 28.9102 18.5285 28.9102 17.928 28.1332L15.3397 24.7841C14.8662 24.1715 14.1357 23.8128 13.3615 23.8128H6.80089C5.97247 23.8128 5.3009 23.1413 5.30089 22.3128L5.30079 2.43507Z" stroke="#7FA0D3"/>
</g>
<path d="M14.3516 13.3491V13.2202C14.3516 12.9819 14.5117 12.7222 14.832 12.4409C15.1523 12.1558 15.498 12.0132 15.8691 12.0132H15.9336C16.1836 12.0132 16.5996 12.1401 17.1816 12.394C17.7676 12.6479 18.1582 12.7749 18.3535 12.7749C18.5527 12.7749 18.7988 12.6714 19.0918 12.4644C19.3887 12.2534 19.541 12.1479 19.5488 12.1479C19.6934 12.1479 19.7656 12.2671 19.7656 12.5054C19.7656 12.7397 19.6074 12.9956 19.291 13.2729C18.9785 13.5503 18.6484 13.689 18.3008 13.689H18.2363L18.1719 13.6831C17.8867 13.6831 17.4785 13.5562 16.9473 13.3022C16.416 13.0483 16.0352 12.9214 15.8047 12.9214C15.5742 12.9214 15.3145 13.0308 15.0254 13.2495C14.7402 13.4683 14.5898 13.5776 14.5742 13.5776C14.4258 13.5776 14.3516 13.5015 14.3516 13.3491ZM23.1055 10.3901C23.1055 10.3901 23.1016 10.3901 23.0938 10.3901C22.5039 10.3901 22.209 10.7632 22.209 11.5093C22.209 11.8452 22.2695 12.0581 22.3906 12.1479C22.4531 12.1909 22.6719 12.2124 23.0469 12.2124C23.8906 12.2124 24.5586 12.4116 25.0508 12.8101C25.3438 13.0483 25.5625 13.3257 25.707 13.6421C25.8555 13.9546 25.9297 14.2554 25.9297 14.5444V14.7378C25.9297 15.4604 25.6562 16.0679 25.1094 16.5601C24.5625 17.0483 23.8711 17.2925 23.0352 17.2925H22.8477C22.4023 17.2925 21.9844 17.2026 21.5938 17.0229C21.207 16.8433 21.0137 16.6206 21.0137 16.355V16.2026C21.0137 15.9253 21.1738 15.7866 21.4941 15.7866C21.627 15.7866 21.8535 15.9077 22.1738 16.1499C22.498 16.3882 22.834 16.5073 23.1816 16.5073C23.6348 16.5073 24.0039 16.3062 24.2891 15.9038C24.4883 15.6226 24.5879 15.2183 24.5879 14.6909C24.5879 14.4722 24.5332 14.2456 24.4238 14.0112C24.3145 13.7769 24.168 13.5854 23.9844 13.437C23.6523 13.1714 23.1582 13.0386 22.502 13.0386L22.3262 13.0503C22.252 13.0542 22.1211 13.0562 21.9336 13.0562C21.75 13.0562 21.6172 12.9878 21.5352 12.8511C21.4531 12.7104 21.4121 12.4272 21.4121 12.0015C21.4121 11.5757 21.4648 11.1089 21.5703 10.6011C21.6758 10.0894 21.7734 9.77881 21.8633 9.66943C22.0117 9.48584 22.5742 9.39404 23.5508 9.39404C24.1484 9.39404 24.5781 9.37061 24.8398 9.32373L25.0098 9.28857C25.1543 9.25732 25.2578 9.2417 25.3203 9.2417C25.5977 9.2417 25.7363 9.38623 25.7363 9.67529C25.7363 10.1831 25.4297 10.437 24.8164 10.437C24.5898 10.437 24.3926 10.4331 24.2246 10.4253L23.8496 10.4077C23.4746 10.396 23.2266 10.3901 23.1055 10.3901ZM29.7617 10.4897C29.7617 10.1812 29.6836 9.91553 29.5273 9.69287C29.3711 9.47021 29.2051 9.35889 29.0293 9.35889H28.959L28.9238 9.36475C28.6895 9.36475 28.5078 9.50732 28.3789 9.79248C28.25 10.0776 28.1855 10.3765 28.1855 10.689V11.0171L28.1914 11.0581L28.2031 11.2339C28.2109 11.2886 28.2148 11.3296 28.2148 11.3569C28.2148 11.5835 28.2891 11.8159 28.4375 12.0542C28.5898 12.2886 28.7539 12.4058 28.9297 12.4058H29.0645C29.2285 12.4058 29.3848 12.2983 29.5332 12.0835C29.6855 11.8687 29.7617 11.605 29.7617 11.2925L29.7676 11.2515L29.7734 11.2046L29.7793 11.0698V10.7065C29.7676 10.6128 29.7617 10.5405 29.7617 10.4897ZM34.4492 14.9019V14.5737C34.4375 14.48 34.4316 14.4058 34.4316 14.3511C34.4316 14.0503 34.332 13.7573 34.1328 13.4722C34.0039 13.2886 33.8496 13.1968 33.6699 13.1968H33.5645C33.3848 13.1968 33.2148 13.312 33.0547 13.5425C32.8945 13.769 32.8145 14.0405 32.8145 14.3569C32.8066 14.4116 32.8027 14.4546 32.8027 14.4858L32.791 14.7144V14.8081L32.7969 14.855L32.8027 14.9897L32.8145 15.1597C32.8145 15.4292 32.9062 15.7085 33.0898 15.9976C33.2109 16.189 33.3848 16.2847 33.6113 16.2847L33.6465 16.2788C33.877 16.2788 34.0684 16.1401 34.2207 15.8628C34.373 15.5854 34.4492 15.2651 34.4492 14.9019ZM30.9629 10.7944V10.9292C30.9629 11.5269 30.7773 12.0249 30.4062 12.4233C30.0352 12.8179 29.5781 13.0151 29.0352 13.0151L28.9707 13.0093C28.4824 13.0093 28.0859 12.8354 27.7812 12.4878C27.4805 12.1362 27.3301 11.7026 27.3301 11.187V10.9175C27.3301 10.3862 27.5078 9.91748 27.8633 9.51123C28.2188 9.10498 28.6621 8.90186 29.1934 8.90186H29.3223L29.3867 8.90771C29.832 8.90771 30.2051 9.0835 30.5059 9.43506C30.8105 9.78271 30.9629 10.2358 30.9629 10.7944ZM33.7637 8.8667H33.8574C34.0449 8.8667 34.1387 8.91748 34.1387 9.01904C34.1387 9.08154 34.0566 9.24756 33.8926 9.51709C32.1074 12.4585 30.6816 14.7144 29.6152 16.2847C29.3457 16.6831 29.0996 16.8823 28.877 16.8823C28.6582 16.8823 28.5488 16.8315 28.5488 16.73C28.5488 16.4956 30.0586 14.0737 33.0781 9.46436C33.3398 9.06592 33.5684 8.8667 33.7637 8.8667ZM35.5098 14.644V14.9722C35.5098 15.4604 35.3438 15.896 35.0117 16.2788C34.6836 16.6577 34.2754 16.8472 33.7871 16.8472H33.5938C33.1836 16.8472 32.8145 16.6714 32.4863 16.3198C32.1621 15.9683 32 15.5366 32 15.0249V14.6968C32 14.2007 32.1621 13.7651 32.4863 13.3901C32.8145 13.0112 33.2402 12.8218 33.7637 12.8218L33.8223 12.8276C34.291 12.8276 34.6895 13.0054 35.0176 13.3608C35.3457 13.7124 35.5098 14.1401 35.5098 14.644ZM40.9707 13.8354V14.0522C40.9707 14.7163 41.0996 15.2671 41.3574 15.7046C41.4785 15.9116 41.6328 16.0757 41.8203 16.1968C42.0078 16.3179 42.1973 16.3784 42.3887 16.3784H42.5059C42.8613 16.3784 43.168 16.2065 43.4258 15.8628C43.6875 15.5151 43.8184 15.0229 43.8184 14.3862V13.9702C43.8184 13.3413 43.6875 12.8081 43.4258 12.3706C43.168 11.9292 42.8398 11.7085 42.4414 11.7085H42.2598C41.9004 11.7085 41.5957 11.9019 41.3457 12.2886C41.0957 12.6753 40.9707 13.1909 40.9707 13.8354ZM45.2305 13.8589V14.1519C45.2305 14.4604 45.168 14.7983 45.043 15.1655C44.7812 15.9312 44.2598 16.4663 43.4785 16.771C43.1387 16.9038 42.8105 16.9702 42.4941 16.9702H42.3008C41.5547 16.9702 40.9316 16.7202 40.4316 16.2202C40.2051 15.9937 40.0215 15.6948 39.8809 15.3237C39.7402 14.9526 39.6699 14.5581 39.6699 14.1401V14.0405C39.6699 13.6616 39.7363 13.2788 39.8691 12.8921C40.127 12.1382 40.6328 11.6147 41.3867 11.3218C41.7266 11.189 42.0527 11.1226 42.3652 11.1226H42.6582C43.0059 11.1226 43.3477 11.2007 43.6836 11.3569C44.3203 11.6538 44.7637 12.1265 45.0137 12.7749C45.1582 13.1577 45.2305 13.519 45.2305 13.8589ZM48.3301 16.9878H48.0078C46.8633 16.9878 46.291 16.8999 46.291 16.7241C46.291 16.6226 46.3867 16.5112 46.5781 16.3901C46.7734 16.269 46.9004 16.103 46.959 15.8921C47.0215 15.6772 47.0527 15.0737 47.0527 14.0815C47.0527 13.0894 47.0234 12.5249 46.9648 12.3882C46.9102 12.2515 46.8066 12.1323 46.6543 12.0308C46.502 11.9253 46.4258 11.8315 46.4258 11.7495C46.4258 11.6636 46.5117 11.5132 46.6836 11.2983C46.8594 11.0796 46.9824 10.8179 47.0527 10.5132C47.2324 9.75537 47.4805 9.20459 47.7969 8.86084C48.1992 8.41943 48.7637 8.19873 49.4902 8.19873C49.8418 8.19873 50.123 8.26123 50.334 8.38623C50.5449 8.50732 50.6504 8.66553 50.6504 8.86084C50.6504 9.05615 50.5977 9.20068 50.4922 9.29443C50.3906 9.38818 50.2812 9.43506 50.1641 9.43506C50.0508 9.43506 49.8633 9.36475 49.6016 9.22412C49.3438 9.0835 49.1484 9.01318 49.0156 9.01318C48.8008 9.01318 48.6348 9.14795 48.5176 9.41748C48.4043 9.68311 48.3477 9.97607 48.3477 10.2964C48.3477 10.6167 48.4141 10.8511 48.5469 10.9995C48.5938 11.0503 48.7676 11.1538 49.0684 11.3101C49.3691 11.4624 49.5195 11.5972 49.5195 11.7144C49.5195 11.8042 49.3652 11.896 49.0566 11.9897C48.748 12.0796 48.5566 12.1792 48.4824 12.2886C48.3574 12.4722 48.2949 13.0659 48.2949 14.0698C48.2949 15.0698 48.3301 15.6714 48.4004 15.8745C48.4746 16.0776 48.6172 16.2554 48.8281 16.4077C49.0391 16.5601 49.1445 16.6772 49.1445 16.7593C49.1445 16.9116 48.873 16.9878 48.3301 16.9878ZM56.9902 8.93701C56.9902 9.01123 56.877 9.12061 56.6504 9.26514C56.4277 9.40967 56.2891 9.60693 56.2344 9.85693C56.1836 10.103 56.1582 11.0854 56.1582 12.8042C56.1582 14.519 56.1895 15.5015 56.252 15.7515C56.3184 15.9976 56.4609 16.1831 56.6797 16.3081C56.9023 16.4292 57.0137 16.5425 57.0137 16.6479C57.0137 16.7925 56.8359 16.8647 56.4805 16.8647L56.3516 16.8589L56.082 16.853C55.9922 16.8491 55.9023 16.8472 55.8125 16.8472L55.5547 16.8354H54.7637C54.127 16.8354 53.8086 16.7788 53.8086 16.6655V16.5835C53.8086 16.5093 53.9336 16.3999 54.1836 16.2554C54.4375 16.1069 54.5957 15.8999 54.6582 15.6343C54.7207 15.3647 54.752 14.4097 54.752 12.769C54.752 11.1245 54.7148 10.1655 54.6406 9.89209C54.5664 9.61475 54.4492 9.43311 54.2891 9.34717C53.9688 9.17139 53.8086 9.03857 53.8086 8.94873C53.8086 8.79639 54.4121 8.72021 55.6191 8.72021L56.2637 8.7085H56.6445C56.875 8.7085 56.9902 8.78467 56.9902 8.93701ZM58.9766 16.8062C58.4258 16.8062 58.1504 16.728 58.1504 16.5718C58.1504 16.4429 58.2227 16.3374 58.3672 16.2554C58.6289 16.1069 58.7812 15.9741 58.8242 15.8569C58.8672 15.7358 58.8887 15.1714 58.8887 14.1636C58.8887 13.1519 58.8574 12.5601 58.7949 12.3882C58.7363 12.2124 58.627 12.0679 58.4668 11.9546C58.3066 11.8413 58.2266 11.7495 58.2266 11.6792C58.2266 11.6089 58.2793 11.5425 58.3848 11.48C58.6309 11.3354 59.0215 11.2632 59.5566 11.2632C59.7168 11.2632 59.8418 11.3179 59.9316 11.4272C59.9629 11.4663 60.0059 11.5522 60.0605 11.6851C60.1191 11.814 60.1582 11.8784 60.1777 11.8784C60.252 11.8745 60.3672 11.8218 60.5234 11.7202C61.0625 11.3569 61.5508 11.1753 61.9883 11.1753H62H62.1875C62.5039 11.1753 62.7891 11.2534 63.043 11.4097C63.2969 11.5659 63.4922 11.8003 63.6289 12.1128C63.7695 12.4253 63.8398 13.1069 63.8398 14.1577C63.8398 15.2046 63.8613 15.7905 63.9043 15.9155C63.9512 16.0366 64.0781 16.1499 64.2852 16.2554C64.4961 16.3608 64.6016 16.4644 64.6016 16.5659C64.6016 16.7417 64.0469 16.8296 62.9375 16.8296H62.7617C62.4102 16.8296 62.2344 16.7456 62.2344 16.5776C62.2344 16.5425 62.2773 16.4585 62.3633 16.3257C62.4492 16.189 62.5078 16.0386 62.5391 15.8745C62.5703 15.7104 62.5859 15.1714 62.5859 14.2573C62.5859 13.3394 62.5293 12.7495 62.416 12.4878C62.2598 12.1284 62 11.9487 61.6367 11.9487C61.3711 11.9487 61.1133 12.0112 60.8633 12.1362C60.6172 12.2573 60.4375 12.4312 60.3242 12.6577C60.2148 12.8804 60.1602 13.4175 60.1602 14.269C60.1602 15.1167 60.1836 15.6304 60.2305 15.8101C60.2773 15.9858 60.334 16.1284 60.4004 16.2378L60.6172 16.5894C60.6172 16.7417 60.3105 16.8179 59.6973 16.8179L59.3398 16.8062H58.9766ZM70.0039 14.2397V13.894C70.0039 13.2651 69.875 12.7632 69.6172 12.3882C69.3594 12.0132 69.0352 11.8257 68.6445 11.8257H68.5859C68.3711 11.8257 68.1621 11.8862 67.959 12.0073C67.7559 12.1245 67.5996 12.2749 67.4902 12.4585C67.3848 12.6421 67.332 13.1831 67.332 14.0815V14.5796L67.3379 14.644V14.8901L67.3438 14.9487V15.0718C67.3516 15.1577 67.3555 15.2202 67.3555 15.2593C67.3555 15.5913 67.4609 15.8511 67.6719 16.0386C67.8867 16.2222 68.1738 16.314 68.5332 16.314H68.5918C69.0215 16.314 69.3633 16.1167 69.6172 15.7222C69.875 15.3276 70.0039 14.8335 70.0039 14.2397ZM67.6602 16.7593C67.457 16.7593 67.3555 17.021 67.3555 17.5444C67.3555 18.0718 67.3926 18.4058 67.4668 18.5464C67.5449 18.6909 67.668 18.8218 67.8359 18.939C68.0078 19.0562 68.0938 19.1558 68.0938 19.2378C68.0938 19.4136 67.8398 19.5015 67.332 19.5015H66.7461C65.8555 19.5015 65.4102 19.4116 65.4102 19.2319C65.4102 19.1772 65.5234 19.0405 65.75 18.8218C65.8711 18.7046 65.9668 18.4663 66.0371 18.1069C66.1074 17.7515 66.1426 17.0757 66.1426 16.0796V13.6479L66.1309 13.021C66.1309 12.6382 66.0801 12.3589 65.9785 12.1831C65.9395 12.1167 65.8379 12.0269 65.6738 11.9136C65.5098 11.7964 65.4277 11.6968 65.4277 11.6147C65.4277 11.5327 65.4746 11.4683 65.5684 11.4214C65.873 11.2729 66.2754 11.1987 66.7754 11.1987C66.9043 11.1987 67.0352 11.2769 67.168 11.4331C67.3047 11.5894 67.3809 11.6675 67.3965 11.6675C67.459 11.6675 67.584 11.6147 67.7715 11.5093C67.9629 11.3999 68.0645 11.3413 68.0762 11.3335C68.4121 11.1772 68.7031 11.0991 68.9492 11.0991H69.2539C69.4727 11.0991 69.7207 11.1597 69.998 11.2808C70.5293 11.5112 70.9102 11.9429 71.1406 12.5757C71.2773 12.9468 71.3457 13.3081 71.3457 13.6597V13.9878C71.3457 14.3511 71.2715 14.7241 71.123 15.1069C70.8301 15.8647 70.334 16.3804 69.6348 16.6538C69.3379 16.771 68.9922 16.8296 68.5977 16.8296L67.6602 16.7593ZM78.3652 16.2144C78.5371 16.3472 78.623 16.4429 78.623 16.5015C78.623 16.5562 78.5938 16.6089 78.5352 16.6597C78.3672 16.812 78.0078 16.8882 77.457 16.8882C77.2773 16.8882 77.1367 16.8589 77.0352 16.8003C76.9375 16.7378 76.8496 16.6265 76.7715 16.4663C76.6973 16.3062 76.6348 16.2261 76.584 16.2261C76.5332 16.23 76.4199 16.2944 76.2441 16.4194C75.752 16.7749 75.2812 16.9526 74.832 16.9526C74.8281 16.9526 74.8223 16.9526 74.8145 16.9526H74.6387C73.9941 16.9526 73.5273 16.6792 73.2383 16.1323C73.0898 15.8472 73.0137 15.1499 73.0098 14.0405C73.0098 12.9272 72.9922 12.3159 72.957 12.2065C72.9219 12.0933 72.7969 11.9878 72.582 11.8901C72.3711 11.7886 72.2656 11.7104 72.2656 11.6558C72.2656 11.5112 72.334 11.4175 72.4707 11.3745C72.7754 11.2769 73.1641 11.228 73.6367 11.228C73.9102 11.228 74.084 11.3394 74.1582 11.562C74.2559 11.8472 74.3047 12.5288 74.3047 13.6069C74.3047 14.6812 74.3516 15.3335 74.4453 15.564C74.6055 15.9585 74.8965 16.1558 75.3184 16.1558C75.5371 16.1558 75.7539 16.0991 75.9688 15.9858C76.1875 15.8726 76.3574 15.7202 76.4785 15.5288C76.5996 15.3374 76.6602 14.812 76.6602 13.9526C76.6602 13.0894 76.6309 12.5464 76.5723 12.3237C76.5176 12.1011 76.4316 11.9272 76.3145 11.8022C76.1973 11.6733 76.1387 11.5718 76.1387 11.4976C76.1387 11.3257 76.5977 11.2397 77.5156 11.2397C77.707 11.2397 77.832 11.2827 77.8906 11.3687C77.9492 11.4507 77.9785 11.603 77.9785 11.8257L77.9609 12.1714L77.9316 13.73C77.9316 14.7456 77.9609 15.3804 78.0195 15.6343C78.0781 15.8843 78.1934 16.0776 78.3652 16.2144ZM82.0977 16.0796L82.9883 15.9448C83.0898 15.9448 83.1406 16.0249 83.1406 16.1851C83.1406 16.3413 82.9902 16.5034 82.6895 16.6714C82.3887 16.8394 82.0723 16.9233 81.7402 16.9233H81.623C81.3613 16.9233 81.125 16.855 80.9141 16.7183C80.7031 16.5815 80.5488 16.4136 80.4512 16.2144C80.2832 15.8667 80.1992 15.2085 80.1992 14.2397C80.1992 13.2671 80.1641 12.6597 80.0938 12.4175C80.0273 12.1753 79.9395 12.0093 79.8301 11.9194C79.627 11.7554 79.5254 11.6655 79.5254 11.6499C79.5254 11.5483 79.5781 11.4624 79.6836 11.3921C79.9531 11.2124 80.0996 11.1108 80.123 11.0874C80.1504 11.0601 80.3008 10.7397 80.5742 10.1265C80.7109 9.82178 80.8652 9.66943 81.0371 9.66943C81.2129 9.66943 81.3301 9.73193 81.3887 9.85693C81.4043 9.88818 81.4375 10.0581 81.4883 10.3667C81.543 10.6753 81.6191 10.8745 81.7168 10.9644C81.8145 11.0503 82.0312 11.1343 82.3672 11.2163C82.7031 11.2944 82.8711 11.4077 82.8711 11.5562C82.8711 11.7046 82.6855 11.8159 82.3145 11.8901C81.9434 11.9644 81.7188 12.0601 81.6406 12.1772C81.5039 12.3765 81.4355 12.939 81.4355 13.8647C81.4355 14.7905 81.4785 15.3745 81.5645 15.6167C81.6738 15.9253 81.8516 16.0796 82.0977 16.0796ZM90.9512 9.5874C90.6309 9.36865 90.2695 9.25928 89.8672 9.25928C89.4688 9.25928 89.1426 9.36475 88.8887 9.57568C88.6348 9.78271 88.5078 10.0757 88.5078 10.4546C88.5078 10.8296 88.6973 11.1616 89.0762 11.4507C89.3027 11.6265 89.7656 11.8647 90.4648 12.1655C91.1641 12.4663 91.6504 12.7437 91.9238 12.9976C92.4473 13.4819 92.709 13.9858 92.709 14.5093V14.7202C92.709 15.3687 92.4512 15.896 91.9355 16.3022C91.6973 16.4897 91.4004 16.6401 91.0449 16.7534C90.6895 16.8628 90.334 16.9175 89.9785 16.9175H89.7617C88.957 16.9175 88.252 16.7964 87.6465 16.5542C87.373 16.4448 87.2363 16.146 87.2363 15.6577V15.4526C87.2363 14.8745 87.3359 14.5854 87.5352 14.5854C87.6719 14.5854 87.8574 14.771 88.0918 15.1421C88.3262 15.5132 88.5957 15.7925 88.9004 15.98C89.209 16.1675 89.5801 16.2612 90.0137 16.2612C90.4473 16.2612 90.7969 16.1479 91.0625 15.9214C91.3281 15.6909 91.4609 15.4077 91.4609 15.0718C91.4609 14.6108 91.2461 14.2222 90.8164 13.9058C90.6328 13.7729 90.1719 13.5366 89.4336 13.1968C88.6953 12.853 88.1836 12.5327 87.8984 12.2358C87.5078 11.8296 87.3125 11.3335 87.3125 10.7476C87.3125 10.1616 87.5215 9.67529 87.9395 9.28857C88.1699 9.07373 88.457 8.90771 88.8008 8.79053C89.1445 8.66943 89.4961 8.60889 89.8555 8.60889H90.0723C90.2207 8.60889 90.4316 8.63428 90.7051 8.68506L90.9102 8.72607C91.1523 8.77295 91.2832 8.79834 91.3027 8.80225L91.4844 8.81396L91.6602 8.81982C91.8242 8.83154 91.9395 8.85107 92.0059 8.87842C92.2363 8.97217 92.3516 9.29834 92.3516 9.85693C92.3516 10.4155 92.2422 10.6948 92.0234 10.6948C91.9141 10.6948 91.75 10.5386 91.5312 10.2261C91.3125 9.91357 91.1191 9.70068 90.9512 9.5874ZM96.8574 14.1401H96.7578C96.2461 14.1401 95.8184 14.2554 95.4746 14.4858C95.1348 14.7124 94.9648 14.9956 94.9648 15.3354V15.4526C94.9648 15.6519 95.0254 15.8315 95.1465 15.9917C95.2715 16.1479 95.4316 16.2261 95.627 16.2261L95.6973 16.2378H95.873C96.2793 16.2378 96.6113 16.0718 96.8691 15.7397C96.9824 15.5952 97.0391 15.2983 97.0391 14.8491C97.0391 14.814 97.0391 14.7788 97.0391 14.7437L97.0449 14.603V14.4624C97.0449 14.2476 96.9824 14.1401 96.8574 14.1401ZM94.0098 12.2476C94.0098 11.9585 94.2383 11.7007 94.6953 11.4741C95.1562 11.2437 95.6328 11.1284 96.125 11.1284C96.1406 11.1284 96.1562 11.1284 96.1719 11.1284C96.6406 11.1284 97.0156 11.1851 97.2969 11.2983C97.8672 11.5249 98.1934 12.0054 98.2754 12.7397C98.2832 12.814 98.2871 13.3062 98.2871 14.2163C98.2871 15.1226 98.3105 15.6538 98.3574 15.8101C98.4082 15.9663 98.541 16.0815 98.7559 16.1558C98.9746 16.23 99.084 16.3003 99.084 16.3667C99.084 16.5073 99.0137 16.6147 98.873 16.689C98.5918 16.8374 98.3145 16.9116 98.041 16.9116C97.7715 16.9116 97.5703 16.8491 97.4375 16.7241C97.1992 16.5015 97.0723 16.3901 97.0566 16.3901C97.041 16.3901 96.8203 16.4897 96.3945 16.689C95.9688 16.8843 95.5957 16.9819 95.2754 16.9819C94.7949 16.9819 94.418 16.8491 94.1445 16.5835C93.8711 16.3179 93.7344 15.9956 93.7344 15.6167V15.4702C93.7344 15.064 93.9102 14.7065 94.2617 14.3979C94.6133 14.0894 95.2461 13.8491 96.1602 13.6772C96.4922 13.6147 96.7012 13.5562 96.7871 13.5015C96.959 13.3921 97.0449 13.1694 97.0449 12.8335C97.0449 12.4976 96.9551 12.2397 96.7754 12.0601C96.5957 11.8804 96.3555 11.7905 96.0547 11.7905C95.7539 11.7905 95.4629 11.9663 95.1816 12.3179C94.9043 12.6655 94.6504 12.8394 94.4199 12.8394C94.1465 12.8394 94.0098 12.6421 94.0098 12.2476ZM99.9922 16.6479C99.9922 16.5659 100.08 16.4604 100.256 16.3315C100.436 16.2026 100.557 16.0015 100.619 15.728C100.682 15.4507 100.713 14.4038 100.713 12.5874C100.713 10.771 100.691 9.7417 100.648 9.49951C100.609 9.25732 100.51 9.0835 100.35 8.97803C100.092 8.81006 99.9629 8.70654 99.9629 8.66748V8.59717C99.9629 8.53076 100.02 8.47217 100.133 8.42139C100.484 8.26904 100.953 8.19287 101.539 8.19287H101.656C101.855 8.19287 101.971 8.32764 102.002 8.59717C102.006 8.63232 102.008 8.92725 102.008 9.48193V10.7417L102.002 10.9819V11.3511L101.996 11.5913C101.996 11.5913 101.996 12.2104 101.996 13.4487C101.996 14.605 102.014 15.3218 102.049 15.5991C102.088 15.8726 102.176 16.0718 102.312 16.1968C102.328 16.2085 102.41 16.2593 102.559 16.3491C102.707 16.439 102.781 16.5308 102.781 16.6245C102.781 16.7612 102.539 16.8296 102.055 16.8296L101.814 16.8413H101.574L100.613 16.8589H100.49C100.158 16.8589 99.9922 16.7886 99.9922 16.6479ZM106.783 14.1401H106.684C106.172 14.1401 105.744 14.2554 105.4 14.4858C105.061 14.7124 104.891 14.9956 104.891 15.3354V15.4526C104.891 15.6519 104.951 15.8315 105.072 15.9917C105.197 16.1479 105.357 16.2261 105.553 16.2261L105.623 16.2378H105.799C106.205 16.2378 106.537 16.0718 106.795 15.7397C106.908 15.5952 106.965 15.2983 106.965 14.8491C106.965 14.814 106.965 14.7788 106.965 14.7437L106.971 14.603V14.4624C106.971 14.2476 106.908 14.1401 106.783 14.1401ZM103.936 12.2476C103.936 11.9585 104.164 11.7007 104.621 11.4741C105.082 11.2437 105.559 11.1284 106.051 11.1284C106.066 11.1284 106.082 11.1284 106.098 11.1284C106.566 11.1284 106.941 11.1851 107.223 11.2983C107.793 11.5249 108.119 12.0054 108.201 12.7397C108.209 12.814 108.213 13.3062 108.213 14.2163C108.213 15.1226 108.236 15.6538 108.283 15.8101C108.334 15.9663 108.467 16.0815 108.682 16.1558C108.9 16.23 109.01 16.3003 109.01 16.3667C109.01 16.5073 108.939 16.6147 108.799 16.689C108.518 16.8374 108.24 16.9116 107.967 16.9116C107.697 16.9116 107.496 16.8491 107.363 16.7241C107.125 16.5015 106.998 16.3901 106.982 16.3901C106.967 16.3901 106.746 16.4897 106.32 16.689C105.895 16.8843 105.521 16.9819 105.201 16.9819C104.721 16.9819 104.344 16.8491 104.07 16.5835C103.797 16.3179 103.66 15.9956 103.66 15.6167V15.4702C103.66 15.064 103.836 14.7065 104.188 14.3979C104.539 14.0894 105.172 13.8491 106.086 13.6772C106.418 13.6147 106.627 13.5562 106.713 13.5015C106.885 13.3921 106.971 13.1694 106.971 12.8335C106.971 12.4976 106.881 12.2397 106.701 12.0601C106.521 11.8804 106.281 11.7905 105.98 11.7905C105.68 11.7905 105.389 11.9663 105.107 12.3179C104.83 12.6655 104.576 12.8394 104.346 12.8394C104.072 12.8394 103.936 12.6421 103.936 12.2476ZM112.871 16.6245C112.871 16.7769 112.518 16.853 111.811 16.853H111.189L110.943 16.8413L110.574 16.8354C110.16 16.8354 109.953 16.7612 109.953 16.6128C109.953 16.5073 110.045 16.396 110.229 16.2788C110.416 16.1577 110.541 16.0034 110.604 15.8159C110.67 15.6245 110.703 15.064 110.703 14.1343C110.703 13.2046 110.672 12.6401 110.609 12.4409C110.551 12.2417 110.457 12.0991 110.328 12.0132C110.098 11.8608 109.982 11.7495 109.982 11.6792C109.982 11.6089 110.023 11.5464 110.105 11.4917C110.348 11.3276 110.758 11.2456 111.336 11.2456H111.447C111.67 11.2456 111.828 11.3589 111.922 11.5854C112.016 11.8081 112.092 11.9194 112.15 11.9194C112.209 11.9194 112.309 11.8647 112.449 11.7554C112.594 11.646 112.766 11.5366 112.965 11.4272C113.168 11.3179 113.393 11.2632 113.639 11.2632C113.885 11.2632 114.072 11.3276 114.201 11.4565C114.334 11.5815 114.4 11.7437 114.4 11.9429C114.396 12.146 114.344 12.2983 114.242 12.3999C114.141 12.5015 114.031 12.5522 113.914 12.5522C113.797 12.5522 113.643 12.5054 113.451 12.4116C113.26 12.314 113.1 12.2651 112.971 12.2651C112.842 12.2651 112.701 12.3198 112.549 12.4292C112.396 12.5347 112.266 12.7261 112.156 13.0034C112.051 13.2769 111.998 13.7476 111.998 14.4155C111.998 15.0796 112.045 15.5093 112.139 15.7046C112.232 15.896 112.377 16.0718 112.572 16.2319C112.771 16.3921 112.871 16.5229 112.871 16.6245ZM117.061 12.0015C117.061 12.4194 117.385 13.4116 118.033 14.978C118.123 15.1968 118.195 15.3062 118.25 15.3062C118.305 15.3062 118.406 15.1479 118.555 14.8315C119.094 13.6909 119.363 12.8296 119.363 12.2476C119.363 12.0796 119.336 11.9429 119.281 11.8374L119.217 11.7319C119.123 11.6069 119.076 11.519 119.076 11.4683C119.076 11.3159 119.324 11.2397 119.82 11.2397H120.195C120.668 11.2397 120.904 11.3296 120.904 11.5093C120.904 11.6108 120.807 11.7671 120.611 11.978C120.42 12.1851 120.281 12.3862 120.195 12.5815C120.109 12.7769 119.795 13.5933 119.252 15.0308C118.713 16.4644 118.295 17.4429 117.998 17.9663C117.701 18.4937 117.424 18.8726 117.166 19.103C116.912 19.3335 116.65 19.4487 116.381 19.4487H116.229C116.025 19.4487 115.852 19.3901 115.707 19.2729C115.566 19.1597 115.496 19.0405 115.496 18.9155C115.496 18.7944 115.545 18.6948 115.643 18.6167C115.744 18.5425 115.877 18.5054 116.041 18.5054L116.176 18.5171C116.234 18.521 116.324 18.5229 116.445 18.5229C116.719 18.5229 116.971 18.3472 117.201 17.9956C117.432 17.644 117.547 17.2886 117.547 16.9292C117.547 16.5698 116.99 15.2124 115.877 12.8569C115.775 12.6421 115.625 12.4194 115.426 12.189C115.23 11.9585 115.133 11.7983 115.133 11.7085C115.133 11.5601 115.236 11.4565 115.443 11.3979C115.65 11.3354 115.982 11.3042 116.439 11.3042C116.9 11.3042 117.131 11.4038 117.131 11.603C117.084 11.8062 117.061 11.939 117.061 12.0015Z" fill="#2961B6"/>
<defs>
<filter id="filter0_d_1120_1606" x="0.800781" y="0.435059" width="135.059" height="36.781" filterUnits="userSpaceOnUse" color-interpolation-filters="sRGB">
<feFlood flood-opacity="0" result="BackgroundImageFix"/>
<feColorMatrix in="SourceAlpha" type="matrix" values="0 0 0 0 0 0 0 0 0 0 0 0 0 0 0 0 0 0 127 0" result="hardAlpha"/>
<feOffset dy="4"/>
<feGaussianBlur stdDeviation="2"/>
<feComposite in2="hardAlpha" operator="out"/>
<feColorMatrix type="matrix" values="0 0 0 0 0 0 0 0 0 0 0 0 0 0 0 0 0 0 0.05 0"/>
<feBlend mode="normal" in2="BackgroundImageFix" result="effect1_dropShadow_1120_1606"/>
<feBlend mode="normal" in="SourceGraphic" in2="effect1_dropShadow_1120_1606" result="shape"/>
</filter>
</defs>
</svg>
