<svg width="87" height="57" viewBox="0 0 87 57" fill="none" xmlns="http://www.w3.org/2000/svg">
<path d="M24.1643 50.4729C17.5789 51.5643 4.55459 51.508 5.14005 42.5515C5.7255 33.595 15.5582 27.5536 20.4014 25.6524C25.9065 23.8569 36.3105 23.0331 33.8854 34.102C31.0632 39.3829 18.6244 38.8548 20.4014 19.6322C21.5512 8.75345 34.199 -0.857863 47.7876 1.88822C61.3762 4.63431 69.4248 15.196 65.1392 28.6096C60.8535 42.0232 27.1957 46.1423 20.4014 45.403C13.6071 44.6636 1.16834 40.5449 1.58645 34.102C2.00456 27.659 16.22 24.2791 23.4324 21.9556C30.6448 19.6322 58.8672 15.83 71.0969 19.6322C83.3266 23.4343 87.7168 30.9332 85.1036 38.6434C83.013 44.8115 72.5254 47.4097 67.543 47.9378C63.6682 48.3485 58.9841 45.7369 64.5906 42.9144C73.0745 38.6434 85.2081 45.8255 83.8492 49.7333C82.4904 53.6412 77.055 55.648 65.766 55.2255C56.7348 54.8875 36.7074 53.0427 27.8225 52.1626" stroke="#2961B6" stroke-width="2" stroke-linecap="round"/>
</svg>
