<svg width="26" height="25" viewBox="0 0 26 25" fill="none" xmlns="http://www.w3.org/2000/svg">
<path fill-rule="evenodd" clip-rule="evenodd" d="M19.2462 16.7192C18.4591 16.7192 17.7549 17.0299 17.2163 17.5167L9.83185 13.2186C9.88363 12.9804 9.92506 12.7422 9.92506 12.4936C9.92506 12.245 9.88363 12.0068 9.83185 11.7686L17.1334 7.51194C17.6927 8.02978 18.4281 8.35084 19.2462 8.35084C20.9655 8.35084 22.3533 6.96302 22.3533 5.24378C22.3533 3.52454 20.9655 2.13672 19.2462 2.13672C17.527 2.13672 16.1392 3.52454 16.1392 5.24378C16.1392 5.49235 16.1806 5.73055 16.2324 5.96876L8.9308 10.2254C8.37153 9.70759 7.63619 9.38653 6.818 9.38653C5.09876 9.38653 3.71094 10.7744 3.71094 12.4936C3.71094 14.2128 5.09876 15.6007 6.818 15.6007C7.63619 15.6007 8.37153 15.2796 8.9308 14.7617L16.3049 19.0702C16.2531 19.2877 16.222 19.5156 16.222 19.7434C16.222 21.4109 17.5788 22.7676 19.2462 22.7676C20.9137 22.7676 22.2705 21.4109 22.2705 19.7434C22.2705 18.0759 20.9137 16.7192 19.2462 16.7192ZM19.2462 4.20809C19.8159 4.20809 20.2819 4.67415 20.2819 5.24378C20.2819 5.81341 19.8159 6.27947 19.2462 6.27947C18.6766 6.27947 18.2106 5.81341 18.2106 5.24378C18.2106 4.67415 18.6766 4.20809 19.2462 4.20809ZM6.818 13.5293C6.24837 13.5293 5.78231 13.0632 5.78231 12.4936C5.78231 11.924 6.24837 11.4579 6.818 11.4579C7.38763 11.4579 7.85369 11.924 7.85369 12.4936C7.85369 13.0632 7.38763 13.5293 6.818 13.5293ZM19.2462 20.7993C18.6766 20.7993 18.2106 20.3333 18.2106 19.7636C18.2106 19.194 18.6766 18.7279 19.2462 18.7279C19.8159 18.7279 20.2819 19.194 20.2819 19.7636C20.2819 20.3333 19.8159 20.7993 19.2462 20.7993Z" fill="white"/>
</svg>
