<svg width="39" height="37" viewBox="0 0 39 37" fill="none" xmlns="http://www.w3.org/2000/svg">
<path d="M38.6455 20.2814C38.3956 20.5971 38.0658 20.6786 37.676 20.6684C36.7665 20.648 35.857 20.6582 34.9575 20.6582C34.4778 20.6582 34.168 20.3934 34.168 19.9962C34.168 19.6092 34.4578 19.3546 34.9276 19.3546C35.887 19.3444 36.8465 19.3648 37.796 19.3444C38.1558 19.3343 38.4456 19.4361 38.6455 19.7518C38.6455 19.9351 38.6455 20.1083 38.6455 20.2814Z" fill="#DE9A6D"/>
<path d="M20.1566 2.80191C20.1566 3.30094 20.1666 3.78979 20.1566 4.28883C20.1466 4.76749 19.9068 5.05266 19.517 5.06284C19.1072 5.07302 18.8473 4.78786 18.8473 4.28883C18.8373 3.29076 18.8373 2.28251 18.8473 1.28444C18.8473 0.815955 19.1072 0.510424 19.487 0.500239C19.8768 0.490055 20.1566 0.805771 20.1566 1.29462C20.1666 1.78347 20.1566 2.29269 20.1566 2.80191Z" fill="#DE9A6D"/>
<path d="M30.3509 9.63745C30.0411 9.64763 29.8512 9.50505 29.7312 9.25044C29.6113 9.00602 29.6513 8.76159 29.8212 8.57827C30.6008 7.76352 31.3903 6.94877 32.1899 6.15439C32.4298 5.92015 32.7996 5.95071 33.0394 6.17476C33.2893 6.41919 33.3493 6.79601 33.0994 7.0608C32.3198 7.88574 31.5203 8.68012 30.7307 9.48468C30.6208 9.59671 30.4708 9.63745 30.3509 9.63745Z" fill="#DE9A6D"/>
<path d="M2.63031 19.3678C3.13003 19.3678 3.62976 19.3576 4.11949 19.3678C4.54925 19.378 4.83909 19.653 4.82909 20.0298C4.8191 20.4066 4.52926 20.6816 4.10949 20.6816C3.09005 20.6816 2.07061 20.6816 1.05118 20.6816C0.621414 20.6816 0.351562 20.4168 0.351562 20.0196C0.351562 19.6326 0.601425 19.3882 1.02119 19.378C1.5609 19.3576 2.0906 19.3678 2.63031 19.3678Z" fill="#DE9A6D"/>
<path d="M9.31217 8.97142C9.28219 9.22603 9.18224 9.4399 8.96236 9.56211C8.72249 9.69451 8.46264 9.69451 8.27274 9.50101C7.48318 8.71681 6.69361 7.92243 5.92404 7.10768C5.67418 6.84288 5.72415 6.46606 5.97401 6.22164C6.20388 5.99758 6.57368 5.96703 6.81355 6.20127C7.60311 6.97528 8.37269 7.76966 9.14226 8.56404C9.2522 8.66589 9.29218 8.80847 9.31217 8.97142Z" fill="#DE9A6D"/>
<path d="M26.9773 3.265C26.9674 3.29555 26.9674 3.36684 26.9374 3.43813C26.6975 4.02883 26.4676 4.6297 26.2178 5.2204C26.0579 5.59722 25.6981 5.7398 25.3582 5.58704C25.0084 5.42409 24.8785 5.09819 25.0384 4.701C25.2683 4.10012 25.5082 3.50942 25.768 2.91873C25.9079 2.59283 26.2378 2.44006 26.5376 2.55209C26.8174 2.66412 26.9973 2.87799 26.9773 3.265Z" fill="#DE9A6D"/>
<path d="M12.6599 2.54315C12.9397 2.55333 13.1296 2.69591 13.2395 2.95052C13.4894 3.5514 13.7493 4.15228 13.9791 4.76334C14.1191 5.12998 13.9591 5.45588 13.6193 5.59846C13.2995 5.74104 12.9597 5.62901 12.8098 5.28275C12.5299 4.6615 12.2701 4.04025 12.0402 3.39863C11.8803 2.96071 12.2201 2.53296 12.6599 2.54315Z" fill="#DE9A6D"/>
<path d="M34.3687 14.4503C33.9389 14.4503 33.729 14.2975 33.6391 14.0021C33.5391 13.6864 33.6291 13.3911 33.9089 13.2485C34.5586 12.943 35.2182 12.6578 35.8978 12.4134C36.1777 12.3115 36.4375 12.4745 36.5774 12.7495C36.7174 13.0244 36.7174 13.3402 36.4575 13.5031C35.7879 13.9512 35.0083 14.1753 34.3687 14.4503Z" fill="#DE9A6D"/>
<path d="M4.71185 14.4379C4.65188 14.4278 4.55194 14.4074 4.46199 14.3768C3.9023 14.1426 3.34261 13.9084 2.78292 13.6639C2.39313 13.4908 2.24321 13.1242 2.39313 12.7677C2.53305 12.4418 2.90285 12.2992 3.27265 12.452C3.85233 12.6862 4.43201 12.9408 5.01169 13.1954C5.33151 13.338 5.43145 13.613 5.36149 13.9491C5.29153 14.275 5.07165 14.4278 4.71185 14.4379Z" fill="#DE9A6D"/>
<path d="M38.0568 27.1675C37.9069 26.7194 37.577 26.4851 37.1273 26.4749C36.0779 26.4342 35.0385 26.3527 33.999 26.2305C32.9796 26.1083 31.9502 25.9759 30.9407 25.762C33.8091 19.6107 31.6403 13.1945 27.3827 9.78275C22.9951 6.26914 16.7285 6.06546 12.191 9.32446C9.84233 11.0049 8.20324 13.2353 7.33372 16.0156C6.28429 19.3459 6.56414 22.5947 8.04332 25.7722C6.02444 26.1592 4.00555 26.3935 1.97667 26.4648C1.41698 26.4851 1.07716 26.699 0.927246 27.1471C0.767334 27.585 0.907257 27.9619 1.34701 28.3387C2.15657 29.0312 2.96612 29.7238 3.79567 30.4061C4.00555 30.5792 4.01554 30.7116 3.92559 30.9459C3.44586 32.2189 2.97612 33.492 2.51637 34.7752C2.19655 35.6613 2.74624 36.3436 3.66574 36.201C4.14547 36.1297 4.62521 36.0584 5.10494 35.9668C8.76293 35.2844 12.301 34.1947 15.6791 32.5856C15.7991 32.5245 15.909 32.4939 16.0589 32.5346C18.3377 33.1864 20.6264 33.1864 22.9051 32.5448C23.065 32.5041 23.185 32.5245 23.3249 32.5856C24.4243 33.1152 25.5537 33.5735 26.693 34.0012C29.5015 35.04 32.3799 35.7631 35.3383 36.201C36.2478 36.3334 36.7875 35.6409 36.4677 34.7548C36.0079 33.492 35.5482 32.2189 35.0584 30.9663C34.9485 30.6913 35.0085 30.5487 35.2283 30.3654C36.0679 29.6728 36.8974 28.9599 37.727 28.247C38.0568 27.972 38.2067 27.6054 38.0568 27.1675ZM3.94558 34.8159C3.88562 34.7039 3.95558 34.6224 3.98556 34.541C4.38534 33.4512 4.79511 32.3717 5.17491 31.282C5.26486 31.0274 5.39478 30.9255 5.63465 30.895C6.55415 30.7931 7.44366 30.5894 8.33316 30.3552C8.77292 30.233 9.01279 29.9071 8.91284 29.5404C8.82289 29.1636 8.47309 28.9599 8.02334 29.0821C7.08385 29.3266 6.13438 29.5201 5.17491 29.6423C5.05497 29.6627 4.94503 29.6932 4.8251 29.6015C4.13548 29.0109 3.43586 28.4202 2.70627 27.7989C3.56579 27.7073 4.37535 27.6258 5.1849 27.5443C6.28429 27.4323 7.37369 27.249 8.46309 27.0453C8.61301 27.0147 8.71296 27.0147 8.80291 27.1573C10.1222 29.184 11.8512 30.7218 14 31.7708C14.03 31.7912 14.06 31.8116 14.11 31.8523C10.8518 33.2679 7.46364 34.266 3.94558 34.8159ZM19.467 31.6995C13.1305 31.6995 8.02334 26.4444 8.02334 20.0079C8.02334 13.5 13.1805 8.28565 19.577 8.3162C25.8835 8.34676 30.9807 13.5917 30.9607 20.0282C30.9807 26.3222 25.9934 31.7097 19.467 31.6995ZM34.2089 29.5201C34.099 29.6117 33.999 29.6627 33.8391 29.6423C32.8796 29.4997 31.9302 29.3368 30.9907 29.072C30.8008 29.021 30.5909 28.9905 30.401 29.0821C30.1411 29.2145 30.0112 29.4386 30.0312 29.7339C30.0612 30.0497 30.2511 30.2533 30.5309 30.3246C31.2405 30.4978 31.9502 30.7218 32.6797 30.7727C33.4393 30.8339 33.8191 31.119 34.029 31.8828C34.2989 32.8605 34.7186 33.7975 35.0884 34.8159C31.5304 34.266 28.1422 33.2679 24.8741 31.8421C24.904 31.7199 25.014 31.7199 25.0939 31.6792C27.1428 30.6404 28.8119 29.1534 30.0812 27.2082C30.2411 26.9638 30.401 27.0147 30.6109 27.0555C32.4599 27.4017 34.3188 27.636 36.2678 27.7582C35.5482 28.3896 34.8785 28.9497 34.2089 29.5201Z" fill="#DE9A6D"/>
<path d="M26.3507 17.9635C26.5206 17.8005 26.6505 17.6172 26.5806 17.3728C26.5106 17.108 26.2807 17.0367 26.0509 16.9959C24.7416 16.8024 23.4223 16.6089 22.113 16.4154C21.9431 16.3951 21.8432 16.334 21.7632 16.1608C21.2035 14.9591 20.6239 13.7675 20.0542 12.5657C19.9342 12.3111 19.8243 12.0565 19.4945 12.0667C19.1647 12.0667 19.0647 12.3315 18.9448 12.5759C18.3751 13.7675 17.7954 14.9692 17.2357 16.1608C17.1658 16.3136 17.0658 16.3849 16.9059 16.4052C15.5966 16.5988 14.2774 16.7923 12.9681 16.9858C12.7382 17.0163 12.5083 17.0774 12.4284 17.3422C12.3484 17.607 12.4784 17.7801 12.6583 17.9635C13.6177 18.9208 14.5772 19.8883 15.5367 20.866C15.6066 20.9373 15.6966 20.978 15.6666 21.1206C15.5667 21.6808 15.4767 22.2511 15.3768 22.8112C15.2268 23.7074 15.0769 24.6037 14.927 25.4999C14.927 25.6934 14.987 25.8462 15.1469 25.9582C15.3268 26.0804 15.5167 26.0397 15.6966 25.948C16.8959 25.2962 18.0953 24.6444 19.2946 23.9824C19.4345 23.9009 19.5545 23.9009 19.7044 23.9824C20.0642 24.1963 20.434 24.3898 20.7938 24.5833C21.6133 25.0314 22.4329 25.4693 23.2524 25.9175C23.4523 26.0295 23.6422 26.0804 23.8521 25.948C24.072 25.8054 24.092 25.5916 24.042 25.3471C24.032 25.3064 24.042 25.2758 24.032 25.2351C23.8121 23.8908 23.5922 22.5566 23.3624 21.2123C23.3324 21.0493 23.3624 20.9577 23.4723 20.8456C24.4318 19.8883 25.3912 18.9208 26.3507 17.9635ZM22.5828 20.3772C22.3829 20.5808 22.3129 20.7845 22.3629 21.0799C22.5728 22.2002 22.7427 23.3306 22.9326 24.4611C22.9426 24.5018 22.9326 24.5527 22.9326 24.624C22.3629 24.3185 21.8232 24.0232 21.2835 23.7278C20.7938 23.463 20.304 23.1982 19.8243 22.9334C19.6044 22.8112 19.3945 22.8112 19.1747 22.9334C18.2252 23.4528 17.2757 23.9621 16.3262 24.4815C16.2463 24.5222 16.1663 24.5629 16.0464 24.624C16.1563 23.9621 16.2563 23.3408 16.3562 22.7297C16.4562 22.1391 16.5561 21.5484 16.6561 20.9577C16.696 20.7132 16.5861 20.5401 16.4262 20.3873C15.6666 19.6235 14.897 18.8495 14.1374 18.0857C14.0675 18.0144 13.9775 17.9635 13.8976 17.9024C13.9176 17.882 13.9276 17.8514 13.9475 17.8311C14.7471 17.7088 15.5367 17.5968 16.3362 17.4746C16.726 17.4135 17.1158 17.3626 17.5156 17.3015C17.7355 17.2709 17.8654 17.108 17.9553 16.9145C18.4651 15.8451 18.9748 14.7757 19.4845 13.7064C19.5944 13.7166 19.5944 13.8082 19.6144 13.8693C20.1042 14.8776 20.5839 15.8858 21.0636 16.8941C21.1836 17.1487 21.3435 17.2709 21.6233 17.3117C22.7727 17.4746 23.9121 17.6579 25.0614 17.8311C25.0414 17.9533 24.9415 18.0042 24.8715 18.0653C24.1119 18.8495 23.3524 19.6133 22.5828 20.3772Z" fill="#DE9A6D"/>
</svg>
