<svg width="22" height="21" viewBox="0 0 22 21" fill="none" xmlns="http://www.w3.org/2000/svg">
<g opacity="0.8">
<path d="M20.9725 6.32148C20.9245 5.2588 20.7488 4.52822 20.497 3.89516C20.2373 3.22318 19.8377 2.62156 19.3142 2.12143C18.8027 1.61351 18.1834 1.21884 17.5041 0.968855C16.8529 0.722682 16.1097 0.550833 15.0229 0.50398C13.9279 0.453158 13.5803 0.441406 10.8033 0.441406C8.02627 0.441406 7.67867 0.453158 6.5878 0.500012C5.50099 0.546865 4.75382 0.718866 4.10654 0.964887C3.41915 1.21884 2.80387 1.60955 2.29239 2.12143C1.77294 2.62156 1.36946 3.22715 1.11364 3.89134C0.861881 4.52822 0.686131 5.25483 0.638213 6.31751C0.586237 7.38813 0.574219 7.72801 0.574219 10.4434C0.574219 13.1588 0.586237 13.4987 0.634155 14.5653C0.682072 15.628 0.857978 16.3586 1.10974 16.9916C1.36946 17.6636 1.77294 18.2652 2.29239 18.7654C2.80387 19.2733 3.42321 19.6679 4.10249 19.9179C4.75382 20.1641 5.49693 20.3359 6.5839 20.3828C7.67461 20.4298 8.02236 20.4414 10.7994 20.4414C13.5764 20.4414 13.924 20.4298 15.0149 20.3828C16.1017 20.3359 16.8489 20.1641 17.4962 19.9179C18.8708 19.3983 19.9576 18.3356 20.4891 16.9916C20.7407 16.3547 20.9166 15.628 20.9645 14.5653C21.0124 13.4987 21.0244 13.1588 21.0244 10.4434C21.0244 7.72801 21.0204 7.38813 20.9725 6.32148ZM19.1305 14.4872C19.0865 15.4639 18.9187 15.9914 18.7789 16.343C18.4352 17.2143 17.7279 17.9058 16.8369 18.2419C16.4772 18.3786 15.9339 18.5427 14.9389 18.5856C13.86 18.6326 13.5365 18.6442 10.8074 18.6442C8.07824 18.6442 7.75062 18.6326 6.67568 18.5856C5.67674 18.5427 5.13732 18.3786 4.7777 18.2419C4.33427 18.0816 3.93064 17.8277 3.60302 17.4956C3.26338 17.1713 3.00366 16.7806 2.83977 16.347C2.69992 15.9953 2.53213 15.4639 2.48827 14.4911C2.4402 13.4362 2.42833 13.1197 2.42833 10.4512C2.42833 7.78264 2.4402 7.4623 2.48827 6.41137C2.53213 5.43461 2.69992 4.90717 2.83977 4.55553C3.00366 4.12179 3.26338 3.72728 3.60708 3.40678C3.9386 3.07468 4.33817 2.82072 4.78176 2.66063C5.14138 2.52388 5.68486 2.35982 6.67974 2.31678C7.75858 2.26992 8.0823 2.25817 10.8113 2.25817C13.5444 2.25817 13.868 2.26992 14.9429 2.31678C15.9419 2.35982 16.4813 2.52388 16.8409 2.66063C17.2844 2.82072 17.688 3.07468 18.0156 3.40678C18.3552 3.73109 18.615 4.12179 18.7789 4.55553C18.9187 4.90717 19.0865 5.43843 19.1305 6.41137C19.1784 7.46627 19.1904 7.78264 19.1904 10.4512C19.1904 13.1197 19.1784 13.4323 19.1305 14.4872Z" fill="#2961B6"/>
<path d="M10.8013 5.30859C7.90046 5.30859 5.54688 7.60969 5.54688 10.4462C5.54688 13.2826 7.90046 15.5837 10.8013 15.5837C13.7022 15.5837 16.0557 13.2826 16.0557 10.4462C16.0557 7.60969 13.7022 5.30859 10.8013 5.30859ZM10.8013 13.7788C8.91938 13.7788 7.39288 12.2864 7.39288 10.4462C7.39288 8.60595 8.91938 7.11355 10.8013 7.11355C12.6833 7.11355 14.2097 8.60595 14.2097 10.4462C14.2097 12.2864 12.6833 13.7788 10.8013 13.7788V13.7788Z" fill="#2961B6"/>
<path d="M17.4925 5.10153C17.4925 5.76376 16.9433 6.30072 16.2657 6.30072C15.5883 6.30072 15.0391 5.76376 15.0391 5.10153C15.0391 4.43915 15.5883 3.90234 16.2657 3.90234C16.9433 3.90234 17.4925 4.43915 17.4925 5.10153V5.10153Z" fill="#2961B6"/>
</g>
</svg>
