<svg width="21" height="21" viewBox="0 0 21 21" fill="none" xmlns="http://www.w3.org/2000/svg">
<g opacity="0.8">
<path d="M20.5694 20.4424V20.4416H20.5744V13.1065C20.5744 9.51811 19.8019 6.75391 15.6069 6.75391C13.5902 6.75391 12.2368 7.86059 11.6843 8.90977H11.626V7.08891H7.64844V20.4416H11.7902V13.8298C11.7902 12.089 12.1202 10.4056 14.276 10.4056C16.4002 10.4056 16.4319 12.3923 16.4319 13.9415V20.4424H20.5694Z" fill="#2961B6"/>
<path d="M0.902344 7.08984H5.04907V20.4425H0.902344V7.08984Z" fill="#2961B6"/>
<path d="M2.97592 0.441406C1.65007 0.441406 0.574219 1.51725 0.574219 2.84311C0.574219 4.16896 1.65007 5.2673 2.97592 5.2673C4.30177 5.2673 5.37762 4.16896 5.37762 2.84311C5.37678 1.51725 4.30093 0.441406 2.97592 0.441406V0.441406Z" fill="#2961B6"/>
</g>
</svg>
