<svg width="27" height="25" viewBox="0 0 27 25" fill="none" xmlns="http://www.w3.org/2000/svg">
<path d="M20.6486 0.930405C20.5491 1.02465 19.2664 2.49063 17.7952 4.19222C15.4496 6.90429 15.125 7.3022 15.125 7.4488C15.125 7.55352 15.1669 7.66346 15.2297 7.72629C15.3292 7.82577 15.4025 7.83101 16.7428 7.83101C18.0046 7.83101 18.1617 7.82053 18.2559 7.73676C18.4339 7.59017 18.4496 7.39645 18.303 7.22367L18.1722 7.07184L17.2821 7.04566L16.392 7.01948L18.6538 4.40688C19.8999 2.97231 20.9313 1.79429 20.9471 1.78905C20.9732 1.78382 25.4916 6.97759 25.4916 7.01424C25.4916 7.02995 25.0885 7.04566 24.5963 7.05613C23.7272 7.07184 23.701 7.07707 23.6015 7.19749C23.5073 7.31268 23.5021 7.4331 23.5021 9.56401C23.5021 11.742 23.5073 11.8153 23.6068 11.9148C23.7638 12.0719 24.0413 12.0562 24.1775 11.8834C24.2822 11.7473 24.2874 11.6897 24.2874 9.78914V7.83101H25.434H26.5859L26.6906 7.69488C26.7534 7.61634 26.8005 7.50116 26.8005 7.4331C26.8005 7.34409 25.9995 6.38596 24.0727 4.15557C22.5701 2.41733 21.2874 0.946112 21.2141 0.878049C21.0361 0.715743 20.8633 0.73145 20.6486 0.930405Z" fill="#2961B6"/>
<path d="M18.8266 8.37026C18.0621 8.57968 17.5962 9.29697 17.6485 10.1818C17.6799 10.7001 17.8527 11.0771 18.2244 11.4122C18.9993 12.1085 20.0883 11.831 20.5648 10.8101C20.7533 10.4122 20.7585 9.71058 20.5805 9.32315C20.2349 8.56921 19.5177 8.17654 18.8266 8.37026ZM19.5438 9.2289C19.7794 9.36503 19.9156 9.67394 19.9156 10.0823C19.9156 10.3703 19.8894 10.4593 19.769 10.6478C19.5281 11.0143 19.1564 11.1137 18.837 10.8991C18.2297 10.4959 18.3239 9.33885 18.9784 9.13466C19.1616 9.08231 19.3396 9.10848 19.5438 9.2289Z" fill="#2961B6"/>
<path d="M22.0508 8.72804C21.8937 8.90082 19.3125 15.0894 19.3125 15.2883C19.3125 15.6025 19.7209 15.77 19.9408 15.5449C19.9931 15.4925 20.6371 14.0056 21.3753 12.2412C22.412 9.76994 22.7104 9.00553 22.6843 8.90082C22.6162 8.6181 22.2445 8.51862 22.0508 8.72804Z" fill="#2961B6"/>
<path d="M10.309 9.62306C10.241 9.65971 10.1519 9.74871 10.1153 9.81678C10.0629 9.92149 10.0472 11.3875 10.0472 16.686V23.4295H9.6022H9.15717V23.1258C9.15717 22.8745 9.13623 22.8012 9.03675 22.707C8.89015 22.5656 8.68596 22.5604 8.52365 22.6913C8.42941 22.7646 8.40323 22.8536 8.38229 23.1101L8.36135 23.4295H5.82729H3.29323V19.4242V15.4189H5.83253H8.37182V18.3771C8.37182 20.4295 8.38753 21.3666 8.42941 21.4557C8.487 21.5813 8.67549 21.7017 8.81162 21.7017C8.84827 21.7017 8.94251 21.6546 9.02104 21.5918L9.15717 21.4871V18.1624C9.15717 14.9111 9.15717 14.843 9.05246 14.7383C8.94774 14.6336 8.87968 14.6336 5.83776 14.6336H2.72254L2.61783 14.7697C2.50788 14.9111 2.50788 14.9373 2.50788 19.1677V23.4295H1.38221C0.251312 23.4295 0.251312 23.4295 0.125656 23.5604C-0.0418853 23.7227 -0.0418853 23.9216 0.125656 24.084L0.251312 24.2148H13.3981H26.5448L26.6705 24.084C26.838 23.9216 26.838 23.7227 26.6705 23.5604C26.5448 23.4295 26.5448 23.4295 25.4139 23.4295H24.2882V20.2148C24.2882 17.0472 24.2882 17.0001 24.1783 16.864C24.0369 16.686 23.7751 16.6755 23.6181 16.8483L23.5029 16.9687V20.1991V23.4295H20.9636H18.4243L18.4138 18.0944C18.3981 12.932 18.3929 12.754 18.2986 12.6493C18.1677 12.5079 17.885 12.5027 17.7437 12.644C17.6389 12.7487 17.6389 12.8168 17.6389 18.0891V23.4295H17.1939H16.7489L16.7384 16.6231L16.7227 9.82201L16.6023 9.70159L16.4819 9.58117L13.4609 9.5707C11.1048 9.56023 10.4137 9.5707 10.309 9.62306ZM15.9531 16.8954L15.9635 23.4295H13.3981H10.8326V16.9216C10.8326 13.3404 10.8483 10.3927 10.8692 10.377C10.8849 10.3561 12.0368 10.3456 13.419 10.3508L15.9373 10.3665L15.9531 16.8954Z" fill="#2961B6"/>
<path d="M22.2813 12.6774C21.9148 12.7926 21.4541 13.2533 21.3075 13.6565C20.8886 14.8083 21.6164 16.0596 22.7159 16.0701C23.3337 16.0806 23.8468 15.7193 24.14 15.0753C24.2342 14.8711 24.2552 14.7245 24.2552 14.3476C24.2552 13.8135 24.1609 13.5256 23.8415 13.1381C23.4855 12.7088 22.8101 12.5046 22.2813 12.6774ZM23.1138 13.5151C23.297 13.6355 23.5012 14.0753 23.5012 14.3528C23.5012 14.4889 23.4489 14.6722 23.3546 14.8449C23.0352 15.4628 22.3965 15.4523 22.0824 14.8292C21.92 14.5151 21.9567 13.9915 22.1609 13.7193C22.4227 13.379 22.7839 13.3004 23.1138 13.5151Z" fill="#2961B6"/>
</svg>
