<svg width="37" height="44" viewBox="0 0 37 44" fill="none" xmlns="http://www.w3.org/2000/svg">
<path d="M29.0372 17.4628C29.0372 17.1338 28.9786 17.0163 28.6155 17.028C27.4442 17.0515 26.2846 17.028 25.1133 17.0398C24.9024 17.0398 24.8322 17.0045 24.8087 16.7578C24.6799 15.3006 23.4734 14.2195 22.0093 14.2195C20.5568 14.2195 19.3386 15.3123 19.2215 16.7578C19.1981 17.0045 19.1161 17.0398 18.917 17.028C18.1907 17.0163 17.4528 17.0045 16.7266 17.028C16.4338 17.0398 16.3986 16.934 16.3986 16.6755C16.4103 15.7471 16.3869 14.8305 16.4103 13.9022C16.422 13.5966 16.3635 13.4439 16.0121 13.4909C15.7427 13.5261 15.4616 13.5026 15.1804 13.5026C14.2551 13.5026 13.5991 12.9268 13.5991 12.1042C13.5874 11.2934 14.2434 10.694 15.157 10.6823C15.4381 10.6823 15.7192 10.6588 15.9887 10.694C16.3518 10.741 16.4103 10.5765 16.3986 10.2592C16.3752 9.35438 16.3869 8.43777 16.3869 7.53291C16.3869 6.58105 16.3869 5.62919 16.3869 4.67732C16.3869 4.53631 16.4572 4.34828 16.1761 4.34828C14.4894 4.34828 12.7909 4.31303 11.1394 4.77133C5.55215 6.29902 1.68677 10.741 1.04254 16.511C0.644294 20.2714 1.67506 23.6088 4.01771 26.5467C5.02505 27.8158 6.32522 28.7794 7.55511 29.8136C8.74986 30.8007 8.74986 30.8007 8.6913 32.3636C8.6913 32.5399 8.64444 32.6339 8.46875 32.7279C7.66053 33.151 7.22714 33.8208 7.28571 34.7492C7.33256 35.607 7.78938 36.1946 8.55074 36.5471C8.74986 36.6411 8.79672 36.7116 8.74986 36.9349C8.5156 37.9103 8.92556 38.8151 9.82748 39.2852C10.0383 39.4027 10.1437 39.532 10.1906 39.767C10.5771 42.035 12.6504 43.7507 14.993 43.7507C17.3474 43.7507 19.4206 42.0468 19.8189 39.7788C19.854 39.5672 19.9009 39.4145 20.1234 39.3087C21.0722 38.8151 21.4705 37.9573 21.2362 36.8997C21.1893 36.6881 21.2596 36.6176 21.4236 36.5471C22.2084 36.1946 22.6652 35.5835 22.7003 34.7139C22.7472 33.809 22.3138 33.1392 21.529 32.7279C21.365 32.6339 21.2948 32.5516 21.2948 32.3636C21.3065 31.9053 21.3065 31.4588 21.2948 31.0005C21.283 30.8007 21.365 30.6832 21.5173 30.5539C22.103 30.0721 22.6769 29.5785 23.286 29.1085C27.1162 26.1824 29.1192 22.3397 29.0372 17.4628ZM2.45985 16.699C2.69411 14.5015 3.45547 12.5038 4.76736 10.741C6.8406 7.97947 9.60493 6.36952 13.0135 5.88772C13.5757 5.80546 14.1497 5.82896 14.7119 5.78195C14.9462 5.75845 15.0047 5.85246 14.993 6.07574C14.9813 6.5693 14.993 7.07461 14.993 7.56817C14.993 7.73269 14.993 7.88545 14.993 8.04997C14.993 8.41427 15.0867 8.82557 14.9696 9.14285C14.829 9.4954 14.3488 9.33088 14.0325 9.46014C12.7909 9.9537 12.0296 11.1876 12.2053 12.5273C12.381 13.7964 13.4352 14.807 14.7353 14.9245C14.9462 14.948 15.0047 14.9833 15.0047 15.1948C14.993 15.7236 14.993 16.2525 15.0047 16.7813C15.0047 16.9928 14.9579 17.0515 14.7353 17.0515C13.974 17.0398 13.2126 17.0398 12.463 17.0515C12.2638 17.0515 12.2053 17.0045 12.1818 16.793C12.053 15.3123 10.8582 14.2195 9.40581 14.2195C7.91822 14.2195 6.73518 15.2888 6.59463 16.7813C6.5712 17.0045 6.48921 17.028 6.30179 17.028C5.11876 17.0163 3.93572 17.0163 2.75268 17.028C2.47156 17.0515 2.43642 16.9458 2.45985 16.699ZM6.09096 26.6877C3.84201 24.5019 2.63555 21.8109 2.413 18.685C2.38957 18.3677 2.56527 18.4382 2.72925 18.4382C4.33397 18.4382 5.93868 18.4147 7.5434 18.45C7.95336 18.4617 8.03536 18.3325 8.00022 17.9682C7.96508 17.6744 7.9885 17.3806 8.00022 17.0868C8.02364 16.2642 8.62102 15.6414 9.38238 15.6296C10.1555 15.6179 10.7763 16.2642 10.7997 17.1103C10.8114 17.4628 10.8231 17.8154 10.7997 18.1679C10.788 18.4147 10.8817 18.45 11.0925 18.45C12.2756 18.4382 13.4586 18.4617 14.6416 18.4382C14.9579 18.4382 15.0282 18.5322 15.0165 18.826C14.993 19.5311 15.0047 20.2362 15.0165 20.9295C15.0165 21.1528 14.993 21.2468 14.7236 21.2703C13.2829 21.3878 12.2053 22.6217 12.2053 24.0789C12.2053 25.5126 13.2946 26.7465 14.7119 26.864C15.0165 26.8875 15.0165 27.005 15.0165 27.2283C15.0047 28.0391 15.0165 28.8382 15.0165 29.649C15.0165 30.4951 15.0047 31.353 15.0165 32.1991C15.0165 32.4459 14.9579 32.5164 14.7002 32.5164C13.2712 32.5046 11.8422 32.5046 10.4014 32.5164C10.1555 32.5164 10.0735 32.4576 10.0852 32.1991C10.1086 31.6233 10.0617 31.0592 10.0969 30.4834C10.1203 30.1544 9.99147 29.9546 9.74549 29.7548C8.52731 28.7442 7.22714 27.8041 6.09096 26.6877ZM15.0047 42.3523C13.3649 42.3523 11.9007 41.1419 11.6079 39.5555C13.8686 39.5555 16.1292 39.5555 18.3899 39.5555C18.097 41.1537 16.6446 42.3523 15.0047 42.3523ZM18.999 38.1336C16.3283 38.1336 13.6577 38.1336 10.9754 38.1336C10.6357 38.1336 10.3429 38.0513 10.1789 37.7223C10.05 37.4755 10.0969 37.2405 10.2492 37.0289C10.4366 36.7822 10.6943 36.7351 10.9871 36.7351C12.3341 36.7351 13.6694 36.7351 15.0165 36.7351C16.34 36.7351 17.6754 36.7351 18.999 36.7351C19.5495 36.7351 19.8892 37.0054 19.9009 37.4167C19.9126 37.8515 19.5612 38.1336 18.999 38.1336ZM21.1542 35.0312C20.9551 35.3015 20.674 35.325 20.3694 35.325C18.3196 35.325 16.2815 35.325 14.2317 35.325C12.6855 35.325 11.1394 35.325 9.5815 35.325C9.25353 35.325 8.97241 35.2545 8.785 34.9607C8.49217 34.4671 8.85528 33.9266 9.51122 33.9148C10.8817 33.9031 12.2521 33.9148 13.6343 33.9148C14.0911 33.9148 14.5362 33.9148 14.993 33.9148C16.8203 33.9148 18.6476 33.9148 20.4748 33.9148C20.8028 33.9148 21.0722 34.0206 21.2245 34.3379C21.3533 34.5846 21.3065 34.8197 21.1542 35.0312ZM27.5848 18.7673C27.2919 22.4689 25.6521 25.4185 22.7706 27.7101C21.9038 28.4034 21.0605 29.1202 20.1937 29.8136C19.9712 29.9898 19.9009 30.1661 19.9126 30.4481C19.936 31.0475 19.9126 31.6468 19.9243 32.2461C19.9243 32.4576 19.8657 32.5164 19.6549 32.5164C18.6593 32.5046 17.6636 32.5046 16.6797 32.5164C16.4103 32.5164 16.4103 32.3871 16.4103 32.1991C16.4103 31.1297 16.4103 30.0603 16.4103 28.991C16.4103 27.9216 16.3986 26.8522 16.422 25.7828C16.422 25.5361 16.3518 25.4538 16.1058 25.4655C15.7544 25.4891 15.403 25.4773 15.0516 25.4655C14.2317 25.442 13.6109 24.8192 13.6109 24.0554C13.6109 23.2915 14.2317 22.6805 15.0516 22.657C15.403 22.6452 15.7544 22.6335 16.1058 22.657C16.3518 22.6687 16.422 22.5865 16.422 22.3397C16.4103 21.1528 16.422 19.9659 16.4103 18.779C16.4103 18.4852 16.4923 18.4147 16.7734 18.4265C17.9448 18.4382 19.1161 18.4265 20.2757 18.4382C20.5685 18.4382 20.6505 18.356 20.6271 18.0739C20.6037 17.7331 20.6154 17.4041 20.6271 17.0633C20.6505 16.2407 21.2596 15.6179 22.0327 15.6179C22.7941 15.6179 23.4031 16.2525 23.4266 17.0633C23.4383 17.4158 23.45 17.7684 23.4266 18.1209C23.4149 18.3677 23.4968 18.4382 23.7428 18.4382C24.9259 18.4265 26.1089 18.4382 27.2919 18.4265C27.5262 18.4382 27.6082 18.4617 27.5848 18.7673Z" fill="#DE9A6D"/>
<path d="M33.8701 0.148438C32.2654 0.148438 30.6606 0.148438 29.0559 0.148438C27.4044 0.148438 25.7528 0.148438 24.1012 0.148438C22.9416 0.148438 22.028 1.06505 22.0163 2.22844C22.0163 2.60448 22.0045 2.99228 22.0163 3.36832C22.028 3.57985 21.9811 3.65036 21.7351 3.67386C20.2944 3.79137 19.2051 5.01352 19.2051 6.47069C19.2051 7.92787 20.2944 9.15001 21.7351 9.26753C21.9694 9.29103 22.0163 9.36154 22.0163 9.57306C22.0045 10.5602 22.0163 11.5355 22.0045 12.5227C22.0045 12.7107 22.0163 12.8047 22.2505 12.8047C23.9607 12.7929 25.6708 12.7929 27.3809 12.8047C27.5801 12.8047 27.6269 12.7342 27.6269 12.5579C27.6152 12.1819 27.6152 11.7941 27.6269 11.418C27.6503 10.6189 28.2594 10.0079 29.0091 9.99611C29.7704 9.98436 30.4029 10.6072 30.4264 11.4298C30.4381 11.7823 30.4498 12.1349 30.4264 12.4874C30.4029 12.7577 30.4967 12.8282 30.7661 12.8282C31.7968 12.8165 32.8393 12.8282 33.8701 12.8165C35.1468 12.8165 36.037 11.9233 36.037 10.6424C36.037 7.86911 36.037 5.10753 36.037 2.3342C36.0253 1.04154 35.1468 0.148438 33.8701 0.148438ZM34.6314 10.4662C34.6314 11.1595 34.3737 11.4063 33.6709 11.4063C33.1438 11.4063 32.6168 11.3945 32.0897 11.4063C31.8905 11.4063 31.832 11.371 31.8085 11.1478C31.668 9.65532 30.4732 8.58595 28.9974 8.58595C27.5449 8.58595 26.3619 9.67883 26.2213 11.1478C26.1979 11.371 26.1276 11.4063 25.9402 11.4063C25.1905 11.3945 24.4526 11.3945 23.703 11.4063C23.4453 11.418 23.3984 11.3123 23.3984 11.0772C23.4101 10.1371 23.3867 9.19702 23.4101 8.26866C23.4218 7.91612 23.3047 7.84561 23.0002 7.88086C22.6839 7.90436 22.3559 7.89261 22.0397 7.88086C21.2198 7.85736 20.599 7.23453 20.6107 6.47069C20.6224 5.6951 21.2432 5.09578 22.0631 5.07228C22.4145 5.06052 22.7659 5.04877 23.1173 5.07228C23.375 5.08403 23.4336 4.99002 23.4218 4.75499C23.4101 4.0264 23.4101 3.28606 23.4218 2.55748C23.4218 1.77013 23.6444 1.55861 24.4526 1.55861C25.9871 1.55861 27.5215 1.55861 29.0559 1.55861C30.6021 1.55861 32.1482 1.55861 33.6944 1.55861C34.3972 1.55861 34.6431 1.80539 34.6431 2.51047C34.6314 5.15454 34.6314 7.81035 34.6314 10.4662Z" fill="#DE9A6D"/>
</svg>
