<svg width="43" height="43" viewBox="0 0 43 43" fill="none" xmlns="http://www.w3.org/2000/svg">
<path d="M9.37231 8.62506C9.38315 9.07184 9.0036 9.46414 8.55897 9.46414C8.1252 9.47504 7.72395 9.08274 7.71311 8.64685C7.70226 8.22187 8.10351 7.80777 8.52644 7.79688C8.97106 7.79687 9.36147 8.17828 9.37231 8.62506Z" fill="#DE9A6D"/>
<path d="M42.1922 20.8354C41.7801 19.5169 40.8909 18.8739 39.5136 18.8739C36.6615 18.8739 33.8095 18.8739 30.9574 18.8739C30.8272 18.8739 30.6971 18.8739 30.4368 18.8739C30.6754 18.656 30.8164 18.5252 30.9574 18.3835C32.1611 17.1631 32.1719 15.6484 30.9682 14.4279C26.7389 10.178 22.5095 5.92806 18.2693 1.66726C18.15 1.54739 18.0308 1.43842 17.9115 1.34034C16.9138 0.533952 15.4931 0.54485 14.5822 1.42752C13.2158 2.74608 11.8928 4.10823 10.5589 5.45948C10.3312 5.68832 10.2444 5.96075 10.3529 6.27677C10.4613 6.60369 10.6999 6.79984 11.0252 6.85432C11.3831 6.9197 11.6325 6.71266 11.8711 6.47292C13.0748 5.26333 14.2786 4.05374 15.4823 2.84416C16.0679 2.25571 16.5342 2.25571 17.109 2.84416C21.3383 7.09406 25.5568 11.3331 29.7862 15.583C30.3718 16.1714 30.3718 16.6618 29.7753 17.2611C25.5568 21.5001 21.3383 25.7391 17.1307 29.9673C16.5342 30.5666 16.0571 30.5666 15.4606 29.9673C11.2421 25.7282 7.02361 21.4892 2.81596 17.2611C2.19783 16.64 2.19783 16.1823 2.81596 15.5612C4.00885 14.3625 5.20174 13.1529 6.40548 11.9542C6.64406 11.7145 6.8501 11.4638 6.78504 11.1042C6.73081 10.7773 6.53561 10.5376 6.21028 10.4286C5.85241 10.3087 5.5813 10.4504 5.33188 10.6901C4.09561 11.9324 2.85934 13.1638 1.63391 14.4061C0.408487 15.6375 0.408487 17.1522 1.63391 18.3835C5.15837 21.9251 8.69366 25.4776 12.2181 29.0192C12.9447 29.7493 13.6713 30.4794 14.3979 31.2095C15.5257 32.3319 17.0439 32.3428 18.1826 31.2313C18.3561 31.0679 18.5188 30.8935 18.6923 30.7083C18.7899 30.8717 18.7465 31.0134 18.7465 31.1441C18.7465 34.0537 18.7465 36.9632 18.7465 39.8619C18.7465 41.0824 19.4622 42.0522 20.6226 42.4118C20.6768 42.4336 20.7636 42.4009 20.7744 42.499C27.2702 42.499 33.7552 42.499 40.2511 42.499C41.3897 42.2811 42.0621 41.6054 42.279 40.4612C42.279 33.9338 42.279 27.4173 42.279 20.8899C42.2465 20.8899 42.2031 20.8681 42.1922 20.8354ZM40.6415 39.6549C40.6415 40.5375 40.2944 40.8971 39.416 40.8971C33.4624 40.8971 27.5197 40.8971 21.566 40.8971C20.7202 40.8971 20.3623 40.5375 20.3623 39.6875C20.3623 36.2549 20.3623 32.8114 20.3515 29.3788C20.3515 29.1391 20.4274 28.9756 20.59 28.8122C23.2578 26.1314 25.9255 23.4616 28.5933 20.77C28.7668 20.5957 28.9403 20.5194 29.1897 20.5194C32.5949 20.5303 36 20.5194 39.416 20.5303C40.2944 20.5303 40.6306 20.879 40.6306 21.7726C40.6306 24.7475 40.6306 27.7224 40.6306 30.6974C40.6415 33.6723 40.6415 36.6581 40.6415 39.6549Z" fill="#DE9A6D"/>
<path d="M10.1107 13.4102C8.44069 13.3993 7.09597 14.7397 7.07428 16.4069C7.06344 18.0524 8.42984 19.4473 10.0782 19.4473C11.7374 19.4473 13.093 18.1069 13.1147 16.4396C13.1363 14.7833 11.7808 13.4102 10.1107 13.4102ZM10.089 17.8018C9.34078 17.7909 8.74433 17.1915 8.74433 16.4287C8.74433 15.6441 9.35162 15.0339 10.1216 15.0557C10.8807 15.0666 11.4554 15.6768 11.4446 16.4505C11.4446 17.2024 10.8373 17.8018 10.089 17.8018Z" fill="#DE9A6D"/>
<path d="M16.303 19.6212C14.633 19.6103 13.2883 20.9506 13.2774 22.6288C13.2666 24.3179 14.5787 25.6582 16.2596 25.6691C17.9297 25.68 19.2852 24.3396 19.2961 22.6833C19.3069 20.9942 17.9622 19.6212 16.303 19.6212ZM16.2922 24.0236C15.5439 24.0236 14.9258 23.4134 14.9149 22.6724C14.9041 21.9096 15.5439 21.2666 16.2922 21.2775C17.0404 21.2884 17.6586 21.9096 17.6477 22.6615C17.6586 23.3916 17.0296 24.0127 16.2922 24.0236Z" fill="#DE9A6D"/>
<path d="M16.291 7.16016C14.6427 7.16016 13.2871 8.52231 13.2871 10.1896C13.2871 11.8568 14.6318 13.219 16.2802 13.2299C17.9285 13.2299 19.2949 11.8568 19.2949 10.2005C19.2949 8.5332 17.9285 7.16016 16.291 7.16016ZM16.2802 11.5517C15.5211 11.5517 14.9246 10.9524 14.9246 10.1896C14.9246 9.41587 15.5319 8.81653 16.3127 8.82743C17.0718 8.83832 17.6683 9.45946 17.6574 10.2005C17.6466 10.9633 17.0393 11.5517 16.2802 11.5517Z" fill="#DE9A6D"/>
<path d="M22.4599 13.4102C20.7899 13.4211 19.456 14.7615 19.4669 16.4396C19.4669 18.096 20.8333 19.4582 22.4925 19.4582C24.1517 19.4473 25.4856 18.1069 25.4747 16.4178C25.4747 14.7179 24.1408 13.3993 22.4599 13.4102ZM22.4708 17.8018C21.7225 17.7909 21.1044 17.1698 21.1044 16.4178C21.1044 15.655 21.7442 15.023 22.5033 15.0448C23.2516 15.0557 23.848 15.6877 23.8372 16.4396C23.8372 17.1807 23.2082 17.8127 22.4708 17.8018Z" fill="#DE9A6D"/>
<path d="M30.5295 27.6836C28.8486 27.6836 27.5039 29.0131 27.5039 30.6803C27.5039 32.3694 28.8269 33.7097 30.4861 33.7097C32.167 33.7097 33.5009 32.3912 33.5009 30.713C33.5117 29.0348 32.1996 27.6945 30.5295 27.6836ZM30.5295 32.0861C29.7812 32.097 29.1197 31.4322 29.1306 30.6912C29.1414 29.9502 29.7812 29.3182 30.5078 29.3182C31.2344 29.3182 31.8742 29.9611 31.8851 30.6912C31.8959 31.4322 31.2669 32.0752 30.5295 32.0861Z" fill="#DE9A6D"/>
</svg>
