<svg width="28" height="27" viewBox="0 0 28 27" fill="none" xmlns="http://www.w3.org/2000/svg">
<path d="M6.84114 0.425276C6.60961 0.553904 6.58388 0.708257 6.59932 1.83504L6.61475 2.8795L6.75882 3.00298C6.85658 3.0853 6.96462 3.12646 7.10354 3.12646C7.24246 3.12646 7.35051 3.0853 7.44826 3.00298L7.59233 2.8795L7.60776 1.83504C7.6232 0.692822 7.59747 0.548759 7.35565 0.425276C7.17557 0.327518 7.01607 0.332664 6.84114 0.425276Z" fill="#2961B6"/>
<path d="M20.6413 0.420187C20.4046 0.553961 20.3841 0.662008 20.3789 1.7785V2.8281L20.5281 2.97731C20.7288 3.17283 21.0272 3.18312 21.2381 3.00304L21.3822 2.87956L21.3976 1.8351C21.4131 0.692879 21.3874 0.548816 21.1455 0.425333C20.9706 0.332721 20.806 0.332721 20.6413 0.420187Z" fill="#2961B6"/>
<path d="M1.89282 1.41831C1.78478 1.53151 1.75391 1.61383 1.75391 1.78876C1.75391 2.01 1.75391 2.01 3.02475 3.28599C3.71934 3.99087 4.37277 4.60314 4.47053 4.64945C4.62488 4.72148 4.67119 4.72148 4.83583 4.65974C5.06222 4.57742 5.22172 4.29444 5.17027 4.06805C5.14969 3.97029 4.70721 3.4918 3.8171 2.59655L2.4948 1.27425H2.26327C2.0729 1.27425 2.00602 1.29997 1.89282 1.41831Z" fill="#2961B6"/>
<path d="M24.2324 2.54503C23.5275 3.23962 22.9152 3.89305 22.8689 3.99081C22.7506 4.24292 22.8535 4.50532 23.121 4.63395C23.4503 4.79859 23.5275 4.74199 24.9476 3.31679L26.2441 2.00993V1.78869C26.2441 1.46455 26.0538 1.27418 25.7348 1.27418H25.5084L24.2324 2.54503Z" fill="#2961B6"/>
<path d="M16.5348 3.19849C16.1746 3.31683 16.01 3.4506 15.0067 4.45905L14.0291 5.43662L13.422 4.84493C13.0773 4.51564 12.6914 4.19664 12.5422 4.11432C12.3003 3.99084 12.2232 3.9754 11.7601 3.9754C11.3022 3.9754 11.2147 3.99084 10.9883 4.10918C10.4738 4.38701 10.1085 4.88609 10.0416 5.41604L10.0108 5.67329L9.75351 5.70416C9.04348 5.79163 8.38491 6.44506 8.30258 7.1448C8.27171 7.38662 8.26657 7.39691 8.08649 7.42778C7.4382 7.53068 6.99572 7.84454 6.7076 8.40021C6.52237 8.75522 6.48635 9.36749 6.62527 9.74309L6.72818 10.0055L6.45034 10.1495C5.88952 10.4428 5.56023 11.0036 5.56023 11.6674C5.56023 12.2539 5.69401 12.5266 6.27026 13.1234L6.76419 13.6277L3.84691 16.5449C2.16445 18.2325 0.909042 19.524 0.878171 19.6114C0.728962 20.0179 1.11999 20.4089 1.52131 20.2597C1.60878 20.2288 2.51432 19.3645 3.65654 18.2274L5.63741 16.2465L7.46393 18.073L9.29045 19.8996L6.37831 22.822C4.77303 24.4273 3.42501 25.7959 3.3787 25.8679C3.25522 26.0531 3.2758 26.2949 3.43015 26.4802C3.54334 26.6139 3.59994 26.6397 3.8006 26.6397H4.04242L8.20997 22.4773C10.4996 20.1877 12.429 18.2891 12.4907 18.2583C12.5936 18.2068 12.6862 18.2531 13.3139 18.6699C14.1783 19.241 14.3841 19.349 14.9604 19.5188C15.336 19.6269 15.5212 19.6526 16.0306 19.6526H16.648L20.1467 23.1461C22.5083 25.5026 23.6916 26.6448 23.7894 26.6654C24.1753 26.7632 24.5149 26.4236 24.4171 26.0377C24.3965 25.9399 23.6916 25.199 22.3333 23.8356L20.2804 21.7775L20.584 21.4585C20.8567 21.1807 20.8927 21.119 20.8927 20.9389C20.8927 20.5941 20.548 20.3523 20.229 20.4758C20.1518 20.5015 19.9717 20.6405 19.8225 20.7897L19.555 21.0521L18.989 20.4912L18.423 19.9253L20.5171 17.8312C21.6748 16.6736 22.642 15.732 22.6678 15.732C22.6986 15.732 22.961 15.9738 23.2595 16.2722L23.7945 16.8125L23.5321 17.08C23.1051 17.5225 23.0536 17.7283 23.3058 18.0062C23.4292 18.1451 23.491 18.1759 23.6659 18.1759C23.8511 18.1759 23.9077 18.1399 24.1753 17.8775C24.3399 17.718 24.4943 17.5843 24.52 17.5843C24.5457 17.5843 24.9934 18.0062 25.5079 18.5207C26.4237 19.4365 26.4546 19.4622 26.6604 19.4622C27.0257 19.4622 27.2727 19.0712 27.1132 18.7522C27.0823 18.6905 26.1922 17.7695 25.1374 16.7096L23.2183 14.7802L23.1823 14.3428C23.1411 13.818 22.961 13.0977 22.7552 12.6038L22.606 12.2436L23.1411 11.7085C23.8357 11.0191 24.0055 10.7052 24.0055 10.0981C24.0004 9.76367 23.9798 9.62989 23.8666 9.39836C23.6248 8.86841 23.0588 8.44651 22.5134 8.38477C22.2922 8.36419 22.2922 8.35905 22.2562 8.12237C22.1481 7.37118 21.4947 6.71775 20.7641 6.63543C20.548 6.61485 20.5428 6.6097 20.512 6.37303C20.4142 5.63213 19.7762 4.99414 19.0353 4.89638L18.7935 4.86551L18.7626 4.62369C18.6854 4.06287 18.2893 3.53292 17.7645 3.2911C17.4197 3.1316 16.8641 3.09044 16.5348 3.19849ZM17.3837 4.25838C17.713 4.45905 17.8416 4.86551 17.6821 5.17422C17.641 5.25139 17.3374 5.58068 17.0081 5.90482C16.1849 6.71775 16.1077 6.89269 16.437 7.22198C16.7663 7.55126 16.9412 7.47409 17.7542 6.65087C18.3922 6.00258 18.5311 5.90482 18.7935 5.90482C19.1279 5.90482 19.5035 6.26498 19.5035 6.58398C19.5035 6.86182 19.3749 7.03161 18.4488 7.96287C17.5021 8.90958 17.3889 9.06393 17.4352 9.33662C17.466 9.53728 17.6924 9.71222 17.924 9.71222C18.1298 9.71222 18.1658 9.68134 19.1176 8.73464C19.6579 8.19955 20.1672 7.73649 20.2444 7.70562C20.7847 7.49981 21.3352 7.95258 21.2271 8.51855C21.1963 8.67805 21.0265 8.87356 20.2033 9.71222C19.591 10.3296 19.1948 10.767 19.1742 10.8544C19.1022 11.158 19.3492 11.4616 19.6784 11.4616C19.874 11.4616 19.9203 11.4255 20.8618 10.4891C21.4021 9.94889 21.9114 9.48583 21.9886 9.4601C22.5906 9.22857 23.1977 9.83055 22.9302 10.3914C22.8015 10.6641 18.1298 15.2844 17.6153 15.6445C16.8075 16.2156 15.7784 16.6581 14.8215 16.8434C14.6105 16.8897 14.0806 16.9411 13.6484 16.972C12.8663 17.0183 12.393 17.1212 12.0997 17.3116C11.9813 17.3887 11.9608 17.3733 10.4841 15.8967L8.99203 14.4046L9.19783 14.3017C9.64546 14.0701 9.97989 13.6019 10.0931 13.0463L10.1497 12.7633L10.3966 12.7324C10.6796 12.6964 11.0758 12.5112 11.2816 12.3156C11.616 11.9966 11.7807 11.6777 11.8579 11.1992C11.8887 11.0191 11.899 11.0139 12.1408 10.9831C12.8457 10.9007 13.494 10.2473 13.5815 9.53214L13.6123 9.27488L13.8696 9.24401C14.3996 9.17712 14.8986 8.81182 15.1765 8.29731C15.2948 8.07092 15.3102 7.98345 15.3102 7.52554C15.3102 6.96472 15.2331 6.74348 14.9192 6.37818C14.8369 6.28556 14.77 6.19295 14.77 6.17237C14.77 6.10034 16.6531 4.26353 16.7766 4.21208C16.9824 4.12976 17.2036 4.15034 17.3837 4.25838ZM13.2059 6.11577L14.3069 7.22198V7.51525C14.3069 7.77765 14.2864 7.8291 14.1372 7.99374C14.0394 8.10179 13.9005 8.1944 13.7924 8.21498C13.4014 8.29731 13.3294 8.24586 12.1614 7.07791L11.0655 5.97686V5.67844C11.0655 5.39546 11.0758 5.36459 11.2713 5.17422C11.472 4.96841 11.4823 4.96841 11.791 4.98899L12.1048 5.00957L13.2059 6.11577ZM11.4411 7.84968C12.5833 8.99704 12.6348 9.06393 12.5525 9.45496C12.5267 9.56301 12.4393 9.70193 12.3312 9.79968C12.182 9.9386 12.1048 9.96947 11.9145 9.96947C11.7858 9.96947 11.616 9.9386 11.5389 9.89744C11.3022 9.76881 9.37791 7.79823 9.33675 7.63873C9.239 7.23227 9.47053 6.81037 9.83583 6.73319C10.2166 6.65087 10.2989 6.70746 11.4411 7.84968ZM8.67303 8.58029C8.7605 8.63174 9.25958 9.11024 9.78438 9.64533C10.8237 10.6898 10.9163 10.8287 10.8083 11.1992C10.6899 11.6159 10.1857 11.8474 9.81525 11.6622C9.65575 11.5799 7.73147 9.66076 7.63886 9.49612C7.54625 9.32119 7.54625 9.02791 7.63886 8.84783C7.84467 8.44651 8.27171 8.33847 8.67303 8.58029ZM7.60799 11.0448C7.89612 11.194 8.98174 12.3208 9.05377 12.5523C9.16182 12.8868 9.00747 13.2315 8.66274 13.4116C8.51868 13.4836 8.20997 13.4836 8.06591 13.4116C7.90641 13.3292 6.74876 12.1819 6.66129 12.0172C6.56353 11.832 6.56868 11.4873 6.67672 11.3072C6.77963 11.1323 7.07804 10.9522 7.27356 10.947C7.35074 10.947 7.49994 10.9934 7.60799 11.0448ZM21.968 13.427C22.0246 13.6277 22.1018 14.0032 22.1378 14.2554L22.1996 14.7081L19.9511 16.9565L17.7079 19.1998L17.4043 18.9117C17.2345 18.747 17.039 18.603 16.967 18.5876C16.8898 18.567 16.6583 18.5721 16.4473 18.603C15.7527 18.6956 15.1044 18.5618 14.4716 18.2017C14.1835 18.0319 14.1629 17.9444 14.4201 17.9444C14.878 17.9444 16.0769 17.6151 16.8023 17.291C17.96 16.7662 18.5825 16.2774 20.3782 14.4766C21.1551 13.6945 21.8085 13.0565 21.824 13.0565C21.8394 13.0565 21.9063 13.2212 21.968 13.427ZM9.35733 16.2105L11.1684 18.0216L10.6025 18.5876L10.0365 19.1535L8.20997 17.327L6.38345 15.5005L6.93398 14.9499C7.23754 14.6412 7.49994 14.3943 7.51538 14.3943C7.53081 14.3943 8.35918 15.2124 9.35733 16.2105Z" fill="#2961B6"/>
<path d="M1.09058 6.18277C0.848764 6.31654 0.766442 6.61496 0.90536 6.87736C1.02884 7.11918 1.17291 7.14491 2.31512 7.12947L3.35958 7.11404L3.48307 6.96997C3.66315 6.75902 3.65286 6.46061 3.45734 6.25995L3.30813 6.11074H2.25853C1.4919 6.11588 1.1832 6.13132 1.09058 6.18277Z" fill="#2961B6"/>
<path d="M24.5408 6.25995C24.3452 6.46061 24.3349 6.75902 24.515 6.96997L24.6385 7.11404L25.683 7.12947C26.8252 7.14491 26.9693 7.11918 27.0927 6.87736C27.1853 6.70243 27.1905 6.56865 27.1082 6.39372C26.995 6.13646 26.8561 6.11074 25.7293 6.11074H24.69L24.5408 6.25995Z" fill="#2961B6"/>
<path d="M21.6906 18.9426C21.5157 19.1176 21.4797 19.3079 21.5826 19.524C21.6803 19.7247 21.9273 19.8533 22.1434 19.8122C22.344 19.771 22.5396 19.5189 22.5396 19.2976C22.5396 18.886 21.9787 18.6545 21.6906 18.9426Z" fill="#2961B6"/>
</svg>
