<svg width="28" height="29" viewBox="0 0 28 29" fill="none" xmlns="http://www.w3.org/2000/svg">
<path d="M13.1063 0.0719722C11.2971 0.40092 9.65806 1.6203 8.34794 3.62234L7.99631 4.16681L7.37812 4.20083C5.16622 4.32561 3.44776 4.98917 2.26808 6.16885C1.60451 6.83242 1.21885 7.49598 0.912589 8.4885C0.770801 8.94222 0.759458 9.04998 0.753787 10.0538C0.753787 11.0123 0.770801 11.1881 0.889903 11.6419C1.11676 12.4983 1.28124 12.9633 1.63854 13.712L1.97883 14.4266L1.66123 15.0675C1.12244 16.145 0.816173 17.1716 0.731101 18.1811C0.674385 18.805 0.725429 19.0432 0.935275 19.2133C1.30392 19.5026 1.82003 19.253 1.87675 18.7539C2.00152 17.7161 2.06391 17.3587 2.22838 16.854C2.33047 16.5364 2.48927 16.1337 2.58001 15.9579L2.74449 15.6346L3.02239 16.0203C3.6179 16.8256 4.7125 18.0223 5.58025 18.805L5.95457 19.1453L6.08501 19.7294C6.35157 20.9431 6.78828 22.3383 7.17961 23.1947L7.35543 23.5804H7.20797C7.12857 23.5804 6.79962 23.5407 6.48202 23.4953C5.40443 23.3309 4.49131 22.9962 3.68596 22.4574C3.62357 22.4177 3.62357 22.3383 3.66894 22.0831C3.95252 20.5405 2.23972 19.4062 0.912589 20.2682C0.39081 20.6029 0.101562 21.1416 0.101562 21.7655C0.101562 22.5822 0.646028 23.2912 1.4287 23.501C1.83137 23.6088 2.08659 23.5974 2.49494 23.4613L2.8409 23.3479L3.13582 23.5464C4.20207 24.2496 5.7277 24.709 7.36677 24.8054L7.99631 24.8451L8.34794 25.3896C9.34046 26.9039 10.6619 28.0893 11.955 28.611C12.698 28.906 13.1177 28.9854 13.9968 28.9854C14.8759 28.9854 15.2955 28.906 16.0385 28.611C17.343 28.0836 18.7155 26.8472 19.6853 25.3272L20.0369 24.7714H20.5474C21.9652 24.7714 23.8368 24.3347 24.1488 23.932C24.2849 23.7619 24.2962 23.4273 24.1715 23.2458C24.1204 23.172 23.99 23.0813 23.8822 23.0359C23.7064 22.9622 23.6554 22.9679 23.196 23.121C22.9237 23.2118 22.5097 23.3252 22.2772 23.3762C21.8291 23.4726 20.7402 23.5917 20.6948 23.552C20.6835 23.535 20.7459 23.3649 20.8309 23.172C21.228 22.2589 21.6533 20.9091 21.9085 19.7294L22.039 19.1453L22.4133 18.805C23.281 18.0223 24.3756 16.8256 24.9712 16.0203L25.2491 15.6346L25.4079 15.9522C25.6347 16.3946 25.9013 17.2113 25.9977 17.7558C26.0771 18.2378 26.0998 19.219 26.0317 19.6614C25.992 19.9109 25.9864 19.9166 25.6801 20.0073C25.2547 20.1378 25.0619 20.2455 24.818 20.5008C23.7745 21.5954 24.404 23.3876 25.907 23.5634C26.4628 23.6258 27.183 23.3252 27.5233 22.8771C28.0565 22.1795 27.9997 21.153 27.3986 20.5291L27.149 20.2626L27.2171 19.8656C27.2568 19.65 27.2851 19.1339 27.2851 18.7313C27.2738 17.5119 26.9732 16.3549 26.338 15.0731L26.0147 14.4266L26.355 13.712C26.7123 12.9633 26.8768 12.4983 27.1036 11.6419C27.2227 11.1881 27.2398 11.0123 27.2398 10.0538C27.2341 9.04998 27.2227 8.94222 27.081 8.4885C26.7747 7.48464 26.4004 6.84376 25.7311 6.17452C24.4153 4.85873 22.4246 4.18382 19.8781 4.18382C18.1483 4.18382 16.5376 4.44471 14.5809 5.04589L13.9968 5.22171L13.4183 5.04589C12.1705 4.6659 11.0873 4.4277 9.95298 4.28024L9.39717 4.21218L9.73179 3.75846C10.1345 3.21966 10.8321 2.49938 11.3028 2.15342C11.7622 1.81313 12.4258 1.48985 12.9589 1.34239C13.4693 1.2006 14.3768 1.17225 14.9269 1.29135L15.2558 1.35941L15.2275 1.59194C15.2105 1.72238 15.2218 1.95491 15.2502 2.10805C15.4941 3.40115 16.9119 4.01367 18.0065 3.29906C18.5283 2.96444 18.8176 2.42565 18.8176 1.80178C18.8176 1.17792 18.5283 0.639124 18.0065 0.304504C17.4564 -0.0528011 16.8382 -0.0981732 16.2313 0.179731C15.9364 0.315847 15.9137 0.315847 15.6812 0.236446C15.046 0.00958552 13.8607 -0.0641442 13.1063 0.0719722ZM17.3827 1.33105C17.5642 1.45015 17.6492 1.75641 17.5698 1.99462C17.4337 2.40864 16.9176 2.51639 16.6 2.20446C16.4752 2.07402 16.4355 1.98327 16.4355 1.81313C16.4355 1.31403 16.9516 1.05314 17.3827 1.33105ZM9.77149 5.49394C10.3443 5.55065 11.972 5.85125 12.0855 5.92497C12.1082 5.93632 11.6374 6.20288 11.0362 6.50347C9.87925 7.08764 8.92077 7.64912 8.0587 8.24462C7.70706 8.48283 7.53125 8.57924 7.53125 8.52253C7.53125 8.26731 8.24586 6.32198 8.58615 5.64707C8.71092 5.39752 8.72794 5.38618 8.93211 5.40887C9.05121 5.42021 9.4312 5.45424 9.77149 5.49394ZM21.1429 5.45991C22.056 5.53931 23.0712 5.84557 23.8936 6.29362C24.5741 6.6566 25.3058 7.40524 25.612 8.04045C25.9183 8.66999 26.0204 9.07834 26.0601 9.77593C26.1111 10.7061 25.8389 11.9765 25.3795 12.9633L25.2377 13.2696L25.0676 13.02C24.5685 12.2941 23.247 10.8932 22.1751 9.95175C21.9426 9.74758 21.9199 9.7022 21.71 8.93088C21.4208 7.88165 21.1145 6.99689 20.7232 6.09512L20.4113 5.36917L20.5644 5.39752C20.6495 5.41454 20.9103 5.4429 21.1429 5.45991ZM7.17961 5.81154C6.79395 6.67361 6.29486 8.23895 6.07934 9.3052C5.98292 9.77593 5.96024 9.82131 5.71636 10.0368C4.7125 10.9386 3.47044 12.2601 2.96568 12.9633L2.75583 13.2639L2.61404 12.9633C2.37017 12.4415 2.09794 11.5511 1.99585 10.9386C1.88809 10.258 1.91078 9.40728 2.05823 8.86282C2.37017 7.70583 3.20955 6.71332 4.38356 6.12915C5.10384 5.77184 6.29486 5.46558 7.08887 5.43722L7.35543 5.43155L7.17961 5.81154ZM19.3734 6.05542C19.7931 6.94018 20.3942 8.49417 20.3205 8.49417C20.3092 8.49417 20.0993 8.35805 19.8554 8.18791C19.0614 7.64344 18.0746 7.06495 16.9573 6.50347C16.3561 6.20288 15.8854 5.94199 15.9081 5.92497C16.1009 5.80587 18.1994 5.44857 18.7665 5.43722L19.0841 5.43155L19.3734 6.05542ZM14.6603 6.7757C15.6018 7.14435 17.4507 8.09716 18.4092 8.69267C18.8516 8.97058 19.5832 9.47534 20.0313 9.80429L20.8423 10.4111L20.9103 10.8308C21.245 12.8159 21.3244 14.1827 21.1996 16.0486C21.1429 16.837 21.0181 17.9883 20.9387 18.3683C20.9103 18.5157 20.7459 18.6632 19.8384 19.3438L19.4698 19.6217L19.4358 19.1736C19.4017 18.6972 19.3677 18.5895 19.1976 18.3456C19.1352 18.2548 18.3979 17.7274 17.5585 17.1659L16.0328 16.145L16.2824 15.8501C16.8666 15.1695 17.0027 14.6761 17.0027 13.2866C17.0027 11.8177 16.8269 11.2732 16.1179 10.5699C15.1708 9.61713 13.7472 9.40728 12.5619 10.0425C11.8756 10.4055 11.2744 11.1711 11.0759 11.9254C10.9568 12.3905 10.9568 14.177 11.0759 14.6364C11.1894 15.0788 11.4106 15.4985 11.7112 15.8501L11.9607 16.145L10.4351 17.1659C9.59568 17.7274 8.85838 18.2548 8.79599 18.3456C8.62585 18.5895 8.59182 18.6972 8.55779 19.1736L8.52376 19.6217L8.15511 19.3438C7.24767 18.6632 7.0832 18.5157 7.05484 18.3683C6.90171 17.614 6.73723 15.6119 6.73723 14.5116C6.73723 13.6099 6.83365 12.2033 6.96409 11.2732L7.07185 10.5076L7.28737 10.3261C8.27421 9.48669 9.98701 8.39208 11.5297 7.61509C12.3861 7.17838 13.7926 6.54884 13.9798 6.50914C13.9911 6.50914 14.2974 6.62824 14.6603 6.7757ZM14.7454 11.0577C15.1424 11.2392 15.4487 11.5454 15.6358 11.9481C15.772 12.2374 15.7833 12.3395 15.8003 13.1165C15.8287 14.1203 15.7663 14.4719 15.4997 14.886C15.1594 15.4077 14.6206 15.697 13.9968 15.697C13.1801 15.697 12.4711 15.1525 12.2613 14.3699C12.1535 13.9672 12.1535 12.572 12.267 12.2033C12.5846 11.1314 13.7359 10.5983 14.7454 11.0577ZM23.3491 12.8329C23.8936 13.4624 24.5458 14.3358 24.5458 14.4379C24.5458 14.6137 23.4909 15.9862 22.7933 16.7179L22.3282 17.1999L22.3566 16.9164C22.3736 16.7576 22.402 15.9636 22.4246 15.1469C22.4587 13.7914 22.4076 12.4812 22.2942 11.8687C22.2658 11.7042 22.2772 11.7099 22.5891 12.0105C22.7649 12.1807 23.1109 12.5493 23.3491 12.8329ZM5.60293 12.6627C5.53487 13.4454 5.55756 16.1394 5.63696 16.9164L5.66532 17.1999L5.20025 16.7179C4.50266 15.9862 3.44776 14.6137 3.44776 14.4379C3.44776 14.3528 4.07162 13.4964 4.514 12.9747C4.92235 12.4983 5.61995 11.778 5.6483 11.812C5.65965 11.8233 5.63696 12.209 5.60293 12.6627ZM13.5998 16.888C13.8436 16.9277 14.1159 16.922 14.4165 16.8823L14.8645 16.8256L16.5546 17.9486L18.2447 19.0715L18.2504 19.7351V20.3987L17.9271 20.6085C17.0991 21.136 14.598 22.327 14.1045 22.4291C13.9854 22.4518 13.7359 22.378 13.1914 22.1568C12.369 21.8279 10.5882 20.9488 10.0721 20.6142L9.74314 20.3987V19.7351L9.74881 19.0715L11.4332 17.9543C12.3577 17.3361 13.146 16.8313 13.1744 16.8313C13.2084 16.8313 13.3956 16.8597 13.5998 16.888ZM8.0587 20.7617C8.80734 21.2891 9.95298 21.964 11.0419 22.5085L12.1422 23.0586L11.921 23.121C11.1383 23.3309 9.55031 23.5804 8.98315 23.5804H8.68256L8.50675 23.1947C8.09273 22.2873 7.53125 20.7276 7.53125 20.4894C7.53125 20.3817 7.53125 20.3817 8.0587 20.7617ZM20.2581 21.204C20.0539 21.8506 19.6343 22.9112 19.4358 23.3082C19.328 23.518 19.3167 23.5237 19.0274 23.5237C18.5794 23.5237 17.4167 23.3706 16.6397 23.2061C16.2654 23.1267 15.9478 23.0529 15.9364 23.0416C15.9251 23.0359 16.3448 22.8147 16.8666 22.5595C17.8647 22.0604 19.2259 21.2607 19.9802 20.7276C20.2865 20.5064 20.4396 20.427 20.451 20.4838C20.4623 20.5235 20.3772 20.8524 20.2581 21.204ZM2.35883 21.3969C2.4439 21.499 2.4836 21.6181 2.4836 21.7712C2.4836 22.4177 1.5478 22.5709 1.3493 21.9583C1.13945 21.3345 1.92212 20.8978 2.35883 21.3969ZM26.4571 21.2948C26.6386 21.4139 26.7237 21.7201 26.6442 21.9583C26.5081 22.3724 25.992 22.4801 25.6744 22.1682C25.5496 22.0377 25.5099 21.947 25.5099 21.7769C25.5099 21.2778 26.0261 21.0169 26.4571 21.2948ZM15.5281 24.2043C16.1576 24.3631 17.4677 24.6013 18.2618 24.6977L18.6361 24.7431L18.3298 25.1684C17.9385 25.7015 17.1445 26.5239 16.6907 26.8585C14.995 28.1119 12.9986 28.1119 11.3028 26.8585C10.7186 26.4275 9.78851 25.418 9.44255 24.8508C9.41419 24.8054 9.57299 24.7657 9.95865 24.7204C10.9852 24.5956 12.4087 24.278 13.5147 23.932L14.0251 23.7676L14.4505 23.9037C14.683 23.9774 15.1708 24.1078 15.5281 24.2043Z" fill="#2961B6"/>
</svg>
