<svg width="37" height="38" viewBox="0 0 37 38" fill="none" xmlns="http://www.w3.org/2000/svg">
<path d="M36.1797 37.1474C36.398 37.0341 36.5594 36.864 36.6733 36.6562C36.6733 37.1474 36.6733 37.1474 36.1797 37.1474Z" fill="#DE9A6D"/>
<path d="M16.4741 0.953334C16.8728 0.943889 17.205 1.25558 17.2145 1.64284C17.224 2.03954 16.9107 2.36068 16.5121 2.37012C16.104 2.37957 15.7907 2.08677 15.7812 1.68062C15.7812 1.27447 16.0755 0.962779 16.4741 0.953334Z" fill="#DE9A6D"/>
<path d="M36.6266 32.9365C36.3418 31.1608 35.3737 29.8762 33.7601 29.0923C33.5608 28.9978 33.6177 28.9128 33.6937 28.7806C34.0828 28.1383 34.2916 27.4299 34.3296 26.6837C34.4625 23.7463 31.8713 21.5266 29.1092 21.8761C26.9072 22.1595 25.0943 24.0768 25.0374 26.287C25.0089 27.2599 25.2746 28.1572 25.7967 28.9884C25.7207 29.0262 25.6543 29.0545 25.5974 29.0923C23.7465 30.0368 22.7594 31.5386 22.7024 33.6166C22.674 34.4855 22.7119 35.3545 22.6929 36.2329C22.6834 36.6579 22.8163 36.9602 23.196 37.1491C27.5241 37.1491 31.8618 37.1491 36.1899 37.1491C36.4747 37.1019 36.636 36.9318 36.6835 36.6579C36.6835 35.4301 36.6835 34.2116 36.6835 32.9837C36.6645 32.9648 36.636 32.9554 36.6266 32.9365ZM29.6977 23.274C31.4726 23.2834 32.9059 24.7097 32.8964 26.4571C32.8869 28.2044 31.4347 29.6496 29.6882 29.6496C27.9323 29.6496 26.4516 28.1666 26.4801 26.4287C26.5085 24.653 27.9228 23.2646 29.6977 23.274ZM34.9845 35.7417C33.2096 35.7323 31.4347 35.7323 29.6597 35.7323C27.9228 35.7323 26.1858 35.7229 24.4489 35.7417C24.1641 35.7417 24.0977 35.6567 24.1072 35.3923C24.1546 34.5044 24.0028 33.5977 24.2496 32.7193C24.6007 31.4536 25.417 30.613 26.6794 30.1974C26.8218 30.1502 26.9167 30.169 27.0306 30.2446C28.796 31.3686 30.5709 31.378 32.3364 30.2352C32.4598 30.1596 32.5547 30.1596 32.697 30.1974C34.1777 30.6413 35.2123 32.0109 35.2503 33.5977C35.2598 34.2211 35.2408 34.8444 35.2598 35.4678C35.2693 35.704 35.1933 35.7417 34.9845 35.7417Z" fill="#DE9A6D"/>
<path d="M14.311 36.2206C14.2921 35.3705 14.3205 34.5205 14.3016 33.6798C14.2636 31.583 13.286 30.0623 11.4256 29.0989C11.2263 28.995 11.2168 28.9383 11.3212 28.7588C11.9097 27.7388 12.09 26.6526 11.8527 25.5002C11.3782 23.2145 9.14764 21.5616 6.7083 21.8638C4.5727 22.1283 2.73134 24.0457 2.6649 26.1897C2.62693 27.1909 2.87371 28.1166 3.41473 28.9761C3.32931 29.0233 3.25337 29.0516 3.18693 29.0894C1.36455 30.0528 0.367939 31.5358 0.320481 33.6137C0.301498 34.4921 0.329973 35.38 0.31099 36.2584C0.301498 36.674 0.443871 36.9573 0.814042 37.1368C5.1422 37.1368 9.47984 37.1368 13.808 37.1368C14.1971 36.9573 14.3205 36.6456 14.311 36.2206ZM7.31576 23.2711C9.09069 23.2711 10.5144 24.6879 10.5239 26.4448C10.5239 28.2016 9.05272 29.6656 7.29678 29.6467C5.55033 29.6278 4.08863 28.1638 4.10761 26.4353C4.10761 24.6785 5.54084 23.2711 7.31576 23.2711ZM12.5836 35.7389C10.8182 35.7294 9.06221 35.7389 7.29678 35.7389C5.55033 35.7389 3.79439 35.7295 2.04795 35.7483C1.81066 35.7483 1.72523 35.7011 1.73472 35.4461C1.78218 34.5299 1.63032 33.6043 1.8771 32.707C2.22829 31.4696 3.03507 30.6385 4.25948 30.2134C4.42084 30.1567 4.52524 30.1662 4.67711 30.2606C6.42356 31.3657 8.17 31.3657 9.92594 30.2701C10.0683 30.1756 10.1822 30.1567 10.3436 30.2134C11.8337 30.6668 12.8399 32.0364 12.8778 33.6704C12.8873 34.2749 12.8683 34.8699 12.8873 35.4744C12.8968 35.7106 12.7924 35.7389 12.5836 35.7389Z" fill="#DE9A6D"/>
<path d="M30.9403 8.65131C30.741 8.59463 30.6745 8.51907 30.722 8.31128C30.8833 7.5651 30.8549 6.81892 30.722 6.07275C30.2284 3.21083 27.5898 0.972307 24.6759 0.962862C23.0528 0.953417 21.4297 0.962862 19.8162 0.962862C19.3036 0.962862 18.9904 1.22733 18.9809 1.66181C18.9809 2.10574 19.2941 2.37021 19.8067 2.37021C21.3348 2.37021 22.863 2.37021 24.3911 2.37021C24.7708 2.37021 25.1504 2.39854 25.5206 2.48355C28.1972 3.08805 29.7918 5.4777 29.3172 8.16015C29.2698 8.40573 29.1843 8.50018 28.9091 8.50018C25.8813 8.49074 22.8535 8.49074 19.8162 8.50018C19.4745 8.50018 19.1233 8.50018 18.7911 8.5663C16.9782 8.94411 15.8297 10.0398 15.3551 11.8155C15.2982 12.0138 15.2317 12.0705 15.0324 12.061C14.5578 12.0422 14.0833 12.0705 13.6087 12.0516C13.2765 12.0422 13.0202 12.1461 12.7639 12.3444C11.4541 13.3928 10.1443 14.4224 8.82493 15.4613C8.77747 15.4519 8.73951 15.4424 8.69205 15.4424C8.69205 14.6585 8.69205 13.8745 8.69205 13.0906C8.69205 12.2783 8.53069 12.0988 7.7334 11.9949C5.05678 11.6455 3.11101 8.88744 3.69948 6.2711C4.22152 3.91923 6.13882 2.37965 8.56866 2.37021C10.1063 2.37021 11.6439 2.37021 13.1816 2.37021C13.7036 2.37021 14.0168 2.10574 14.0168 1.67126C14.0168 1.23677 13.7036 0.962862 13.1911 0.953417C11.9382 0.953417 10.6853 0.943971 9.43239 0.953417C8.79646 0.962862 8.16052 0.934526 7.52459 1.01953C4.71508 1.39734 2.38965 3.84367 2.18083 6.68669C1.94354 9.78474 3.98423 12.59 7.01204 13.3078C7.23984 13.3645 7.2873 13.4495 7.2873 13.6573C7.29679 14.7529 7.32526 15.8486 7.34425 16.9442C7.34425 17.2276 7.43916 17.4448 7.68594 17.596C7.99917 17.7849 8.26493 17.7376 8.65408 17.4354C10.2582 16.1697 11.8527 14.9041 13.4568 13.629C13.5707 13.544 13.6751 13.4589 13.8365 13.4684C14.2541 13.4778 14.6622 13.4778 15.0799 13.4684C15.2222 13.4684 15.2982 13.4873 15.3361 13.6667C15.7633 15.5936 17.4623 17.1143 19.8541 17.067C21.686 17.0293 23.5179 17.067 25.3592 17.0576C25.5681 17.0576 25.7484 17.1048 25.9192 17.2182C27.1437 18.0116 28.3776 18.7955 29.6115 19.5795C30.2379 19.9762 30.7789 19.6928 30.8169 18.9655C30.8454 18.3894 30.8549 17.8132 30.8644 17.237C30.8644 17.0198 30.9118 16.9254 31.1491 16.8498C32.8671 16.3114 34.12 14.6585 34.1389 12.93C34.1484 10.8709 32.9335 9.23691 30.9403 8.65131ZM30.5511 15.518C29.4501 15.7919 29.4501 15.7919 29.4216 16.9348C29.4121 17.1804 29.4216 17.426 29.4216 17.7565C28.3681 17.0859 27.3904 16.472 26.4223 15.8486C26.166 15.6786 25.9003 15.603 25.5965 15.603C23.5938 15.6125 21.6006 15.6125 19.5979 15.603C18.0602 15.5936 16.9592 14.6585 16.7029 13.1473C16.4372 11.5699 17.747 9.94531 19.3606 9.93586C22.9104 9.91697 26.4603 9.91697 30.0101 9.93586C31.4054 9.94531 32.5349 11.1071 32.6867 12.5994C32.8101 13.8651 31.842 15.1969 30.5511 15.518Z" fill="#DE9A6D"/>
<path d="M23.9651 12.7317C23.9746 12.335 24.3163 12.0327 24.7054 12.0516C25.1041 12.0705 25.3983 12.4011 25.3793 12.7978C25.3603 13.1945 25.0471 13.4779 24.6295 13.4684C24.2403 13.459 23.9556 13.1473 23.9651 12.7317Z" fill="#DE9A6D"/>
<path d="M21.3531 12.7686C21.3531 13.1748 21.0494 13.477 20.6413 13.4676C20.2331 13.4676 19.9199 13.1559 19.9199 12.7592C19.9199 12.3814 20.2521 12.0508 20.6413 12.0508C21.0494 12.0602 21.3531 12.3719 21.3531 12.7686Z" fill="#DE9A6D"/>
<path d="M28.7196 13.4795C28.3115 13.4889 27.9983 13.1867 27.9983 12.79C27.9888 12.3933 28.302 12.0721 28.7006 12.0627C29.0898 12.0533 29.4315 12.3838 29.4315 12.7616C29.4315 13.1489 29.1183 13.47 28.7196 13.4795Z" fill="#DE9A6D"/>
</svg>
