<svg width="27" height="27" viewBox="0 0 27 27" fill="none" xmlns="http://www.w3.org/2000/svg">
<path d="M13.0591 0.689836C12.7547 0.830785 12.5348 1.13524 12.1063 2.03731C11.8695 2.52781 11.6496 2.93938 11.6101 2.95066C11.5707 2.96757 11.1027 3.04087 10.5728 3.1198C9.49591 3.27202 9.41134 3.29457 9.14636 3.52009C8.77989 3.82454 8.65022 4.3827 8.83063 4.8281C8.88701 4.95213 9.22529 5.34115 9.68196 5.80347L10.4431 6.56459L10.2627 7.6358C10.1386 8.34055 10.0935 8.76903 10.1217 8.90435C10.2119 9.39485 10.725 9.80078 11.2437 9.80078C11.4636 9.80078 11.6778 9.71621 12.5235 9.29336L13.544 8.78595L14.525 9.29336C15.3425 9.71621 15.5511 9.80078 15.7653 9.80078C16.2389 9.80078 16.6223 9.56399 16.814 9.15242C16.9549 8.8536 16.9493 8.63372 16.7745 7.51741L16.6336 6.57023L17.3947 5.80347C17.8401 5.35243 18.1953 4.9465 18.246 4.82246C18.4434 4.34887 18.2742 3.7738 17.8401 3.46935C17.6146 3.31149 17.3158 3.24383 15.6751 3.01268L15.4158 2.97321L14.976 2.05986C14.5306 1.11832 14.322 0.825147 14.0063 0.689836C13.7751 0.588353 13.279 0.593991 13.0591 0.689836ZM14.2769 2.69131C14.5814 3.28894 14.8745 3.7738 14.9535 3.83018C15.0437 3.89784 15.444 3.98241 16.2333 4.09516C16.8647 4.18537 17.4116 4.29249 17.4454 4.32632C17.4962 4.37706 17.2988 4.60258 16.6223 5.2735C15.8048 6.08536 15.7371 6.16993 15.7371 6.35599C15.7371 6.46875 15.8161 7.03254 15.9175 7.61889C16.0359 8.32364 16.0754 8.69574 16.0416 8.72957C16.0021 8.76903 15.63 8.5999 14.914 8.22215C14.0683 7.77112 13.8146 7.65836 13.6793 7.68091C13.5891 7.69782 13.0422 7.95153 12.4728 8.25034C11.8639 8.57171 11.4185 8.77467 11.3903 8.74648C11.3621 8.71829 11.4185 8.23907 11.5369 7.58506C11.644 6.97616 11.7342 6.40673 11.7342 6.32216C11.7342 6.19249 11.5707 6.0008 10.8603 5.29605C10.3811 4.82246 9.98641 4.41089 9.98641 4.3827C9.98641 4.35451 9.95822 4.33196 9.91876 4.33196C9.87929 4.33196 9.87365 4.31505 9.90748 4.28122C9.93567 4.25303 10.4656 4.16282 11.0858 4.07825C11.706 3.99368 12.2641 3.8922 12.3318 3.84709C12.3938 3.80763 12.6983 3.29457 13.0084 2.69695C13.3974 1.93583 13.5891 1.62574 13.6511 1.63701C13.6962 1.64829 13.9781 2.11624 14.2769 2.69131Z" fill="#2961B6"/>
<path d="M4.4516 4.83338C4.09641 4.95177 3.95546 5.12091 3.54953 5.92714C3.33528 6.3669 3.14923 6.73337 3.13795 6.74465C3.13232 6.75592 2.70947 6.82358 2.20205 6.89687C1.05191 7.07165 0.832029 7.19568 0.674166 7.78767C0.555769 8.24434 0.657252 8.4304 1.43529 9.21971L2.11185 9.90754L1.95962 10.7871C1.86378 11.3339 1.81867 11.7286 1.84122 11.8414C1.94271 12.3262 2.37119 12.6758 2.86169 12.6758C3.10413 12.6758 3.26763 12.6138 3.97237 12.2473L4.80679 11.8244L5.04359 11.9598C5.81035 12.4052 6.43052 12.6758 6.68423 12.6758C7.16346 12.6758 7.55812 12.377 7.68779 11.9034C7.72726 11.7455 7.71034 11.5087 7.58631 10.804L7.42844 9.90754L8.08808 9.2479C8.93942 8.39093 9.05781 8.10339 8.79847 7.55651C8.5955 7.15058 8.38126 7.0491 7.36643 6.90251C6.8872 6.82922 6.46999 6.75028 6.44744 6.73337C6.42489 6.71082 6.2332 6.34435 6.01331 5.9215C5.69195 5.29569 5.57355 5.12091 5.39314 4.99688C5.14507 4.8221 4.71658 4.74881 4.4516 4.83338ZM5.24655 6.68827C5.49462 7.17877 5.73142 7.60725 5.77652 7.64672C5.82162 7.68619 6.25011 7.77639 6.7237 7.85532C7.20292 7.93426 7.64832 8.00755 7.71598 8.02446C7.8231 8.04702 7.73853 8.1485 7.10708 8.76867C6.46999 9.40013 6.37978 9.51289 6.37978 9.67075C6.37978 9.77223 6.4418 10.2402 6.52073 10.7138C6.59966 11.1874 6.66168 11.5877 6.66168 11.6102C6.66168 11.6271 6.27266 11.4467 5.80471 11.2043C5.33112 10.9618 4.87445 10.7589 4.78424 10.7589C4.69967 10.7589 4.24863 10.9506 3.78068 11.1874C3.31273 11.4185 2.91807 11.5989 2.90116 11.582C2.88988 11.5707 2.9519 11.1704 3.04775 10.6969C3.14359 10.2233 3.22252 9.77223 3.22252 9.69894C3.22252 9.59182 3.0252 9.36066 2.45012 8.77431C2.02728 8.34583 1.71155 7.99627 1.75665 7.99627C1.80176 7.99627 2.25843 7.93426 2.76585 7.85532C3.48751 7.75384 3.71303 7.69746 3.80887 7.60725C3.87089 7.54524 4.11896 7.11111 4.35012 6.6488C4.58127 6.18085 4.7786 5.79747 4.78424 5.79747C4.79552 5.79747 4.99848 6.19776 5.24655 6.68827Z" fill="#2961B6"/>
<path d="M21.9766 4.83902C21.6214 4.95177 21.4466 5.16038 21.035 5.96661C20.7362 6.56423 20.6066 6.76156 20.5107 6.78411C20.4431 6.79539 20.0371 6.85741 19.6086 6.91942C18.7009 7.0491 18.4754 7.15622 18.2781 7.55651C18.0187 8.10339 18.1371 8.39093 18.9885 9.24226L19.6425 9.9019L19.4846 10.7758C19.3831 11.3227 19.3437 11.7173 19.3662 11.8414C19.4564 12.315 19.8905 12.6758 20.381 12.6758C20.6009 12.6758 20.7757 12.6138 21.3113 12.3431C21.6721 12.1627 22.0442 11.971 22.1344 11.9147L22.3036 11.8244L23.0647 12.2304C23.6849 12.563 23.8822 12.642 24.1416 12.6645C24.6546 12.704 25.0267 12.4559 25.2015 11.9428C25.2579 11.7737 25.2466 11.6046 25.1113 10.8322L24.9591 9.91318L25.6131 9.2479C25.9739 8.88143 26.3009 8.50933 26.3347 8.41912C26.4193 8.19924 26.4137 7.75384 26.3291 7.59034C26.1092 7.15622 25.8724 7.0491 24.8181 6.89123C24.3445 6.81794 23.9442 6.75592 23.9386 6.74465C23.9273 6.73337 23.7413 6.3669 23.5214 5.92714C23.1887 5.26186 23.0816 5.09836 22.9068 4.97996C22.6644 4.8221 22.2303 4.75445 21.9766 4.83902ZM23.279 7.61853C23.3579 7.69182 23.6511 7.75948 24.2825 7.86096C24.7787 7.93989 25.2128 8.01319 25.2579 8.0301C25.3143 8.04702 25.0944 8.30072 24.6264 8.77995C23.792 9.62001 23.8315 9.47906 24.0514 10.7589C24.1303 11.2099 24.1923 11.5933 24.1923 11.6158C24.1923 11.6384 23.8033 11.4523 23.3297 11.2099C22.8505 10.9618 22.3938 10.7589 22.3092 10.7589C22.2303 10.7589 21.7793 10.9506 21.3113 11.1874C20.8434 11.4185 20.4431 11.5989 20.4261 11.582C20.4092 11.5651 20.4769 11.1423 20.5784 10.6518C20.6855 10.1274 20.7475 9.69894 20.725 9.62001C20.7024 9.54671 20.3529 9.15206 19.9469 8.74048C19.5353 8.33455 19.2422 7.99627 19.2873 7.99627C19.3324 7.99627 19.7891 7.93426 20.2908 7.85532C20.9279 7.76512 21.2493 7.69182 21.3169 7.62981C21.379 7.57343 21.6214 7.14494 21.8638 6.66571L22.3036 5.80311L22.7321 6.66008C22.9689 7.13367 23.2169 7.56215 23.279 7.61853Z" fill="#2961B6"/>
<path d="M13.1321 10.9435C12.5795 11.1014 12.2413 11.5017 12.0665 12.2064C11.8635 13.007 11.6718 13.5426 11.3336 14.2248C10.9163 15.0648 10.4428 15.7358 9.69855 16.5251L9.12911 17.1283L8.92615 16.9536C8.56532 16.6378 8.27778 16.542 7.58431 16.5194C6.77245 16.4912 6.44545 16.5758 6.05079 16.931C5.89293 17.072 5.70687 17.3088 5.63358 17.4553L5.50391 17.7203V21.4414V25.1624L5.65613 25.45C5.83091 25.7826 6.12972 26.0589 6.48491 26.228C6.70479 26.3295 6.85138 26.3464 7.47719 26.3464C8.3398 26.3408 8.58787 26.2618 8.98817 25.8446L9.23624 25.5909L9.68163 25.7826C10.3187 26.0589 11.1024 26.2506 11.8466 26.3182C12.6641 26.3859 15.8383 26.3915 16.4528 26.3182C18.0089 26.1434 19.1478 25.1568 19.8131 23.4147C20.1964 22.4167 20.219 22.2363 20.219 19.9755V17.9458L20.0273 17.5907C19.8131 17.1904 19.4748 16.869 19.0745 16.666C18.8151 16.5364 18.77 16.5364 16.9377 16.5194C15.5226 16.5082 15.0602 16.4856 15.0602 16.4349C15.0602 16.3954 15.2181 15.8598 15.4042 15.2396C15.6748 14.3601 15.7537 14.0049 15.7763 13.6272C15.8214 12.8322 15.5677 12.1613 15.0095 11.6031C14.457 11.045 13.7071 10.7856 13.1321 10.9435ZM13.803 12.0485C14.3724 12.3079 14.7558 12.9732 14.7051 13.6046C14.6881 13.7907 14.4683 14.6194 14.2202 15.4482C13.9665 16.277 13.7635 17.0212 13.7635 17.1001C13.7635 17.1904 13.8312 17.3144 13.927 17.4159L14.0905 17.5794H16.2217C18.2626 17.5794 18.3585 17.585 18.5953 17.6978C18.911 17.85 19.0576 18.0642 19.1196 18.4645C19.1478 18.6393 19.176 19.4737 19.1816 20.3138C19.1816 21.7684 19.176 21.8586 19.0406 22.3998C18.9561 22.7212 18.7757 23.2117 18.6122 23.5443C18.0878 24.593 17.3887 25.1624 16.419 25.309C15.7763 25.4049 11.7057 25.3428 11.2264 25.2301C10.7472 25.1117 10.2793 24.9482 9.80567 24.7283L9.42229 24.5535V21.3624V18.1714L10.1045 17.4948C11.6324 15.9782 12.433 14.6364 12.9404 12.7364C13.0193 12.4488 13.1208 12.15 13.1715 12.0767C13.2787 11.9132 13.476 11.9019 13.803 12.0485ZM8.21013 17.7034C8.28342 17.788 8.35671 17.9684 8.37927 18.0981C8.39618 18.2334 8.40746 19.8346 8.39618 21.6556L8.37927 24.9764L8.19321 25.1399C8.01844 25.2977 7.99025 25.3034 7.45464 25.3034C6.81191 25.3034 6.64841 25.2245 6.54693 24.8636C6.468 24.5761 6.468 18.2447 6.55257 17.9571C6.64841 17.6019 6.85702 17.5117 7.5223 17.5343C8.04663 17.5512 8.08609 17.5568 8.21013 17.7034Z" fill="#2961B6"/>
</svg>
