<svg width="39" height="38" viewBox="0 0 39 38" fill="none" xmlns="http://www.w3.org/2000/svg">
<path d="M18.7617 0.297581C18.1579 0.473019 17.6123 0.85313 17.2341 1.37213C17.125 1.51101 16.1647 3.41888 15.0954 5.61183C14.026 7.80478 13.0658 9.70534 12.9712 9.83692C12.7239 10.1732 12.3165 10.4217 11.8946 10.5021C11.6909 10.5387 9.68317 10.8384 7.42081 11.1673C5.15845 11.4889 3.12887 11.8106 2.91064 11.869C2.10317 12.0957 1.52121 12.6073 1.13566 13.4334C0.939254 13.8573 0.910156 13.9816 0.910156 14.5664C0.910156 15.1512 0.939254 15.2754 1.13566 15.7067C1.41209 16.2842 1.36845 16.2403 5.22392 20.0195C6.83885 21.5984 8.20645 22.9873 8.26465 23.1043C8.51198 23.5794 8.48288 23.901 7.67542 28.5647C6.83885 33.4184 6.83158 33.4915 7.12983 34.2956C7.34807 34.8658 7.88638 35.4433 8.49743 35.743C8.95572 35.9696 9.02847 35.9842 9.74864 35.9842H10.5125L11.189 35.6333C11.56 35.4433 11.8801 35.2898 11.8946 35.2898C11.9019 35.2898 11.931 35.5822 11.9455 35.9403C11.9674 36.5251 11.9892 36.6275 12.1856 36.9052C12.3238 37.1026 12.5493 37.3 12.7966 37.4242C13.1822 37.6289 13.1895 37.6289 14.6007 37.6289C16.0047 37.6289 16.012 37.6289 16.1866 37.4462C16.4193 37.2196 16.4193 36.9418 16.1866 36.7152C16.012 36.5324 15.9974 36.5324 14.6589 36.5324C13.4077 36.5324 13.3059 36.5251 13.1676 36.3862C13.0294 36.2473 13.0222 36.145 13.0222 34.5734C13.0222 32.9652 13.0294 32.8921 13.1749 32.7606C13.3204 32.629 13.5314 32.6217 19.4964 32.6217C25.4615 32.6217 25.6725 32.629 25.818 32.7606C25.9634 32.8921 25.9707 32.9652 25.9707 34.5661C25.9707 36.1889 25.9634 36.24 25.8107 36.3862C25.6579 36.5324 25.5779 36.5324 21.9261 36.5324C18.2743 36.5324 18.2016 36.5324 18.0124 36.6859C17.7506 36.8906 17.7506 37.2707 18.0124 37.4754C18.2016 37.6289 18.2743 37.6289 22.0061 37.6289H25.8107L26.1962 37.4242C26.4436 37.3 26.6691 37.1026 26.8073 36.9052C27.0037 36.6275 27.0255 36.5251 27.0473 35.9403C27.0619 35.5822 27.091 35.2898 27.0983 35.2898C27.1128 35.2898 27.4329 35.4433 27.8039 35.6406L28.4804 35.9842H29.2442C29.9644 35.9842 30.0371 35.9696 30.4954 35.743C31.1065 35.4433 31.6448 34.8658 31.863 34.2956C32.1613 33.4915 32.154 33.4184 31.3175 28.5647C30.51 23.8937 30.4809 23.5794 30.7282 23.1043C30.7864 22.9873 32.1395 21.6131 33.7326 20.0488C37.6172 16.2476 37.5808 16.2842 37.8499 15.714C38.0536 15.2754 38.0827 15.1512 38.0827 14.5664C38.0827 13.9816 38.0536 13.8573 37.8572 13.4334C37.5881 12.8559 37.2825 12.4977 36.8242 12.2053C36.3441 11.891 35.9222 11.796 33.8999 11.5036C28.946 10.7945 27.0037 10.4948 26.8 10.429C26.6763 10.3925 26.4363 10.239 26.269 10.1001C26.0144 9.88078 25.8325 9.55914 25.1778 8.21413C24.5013 6.81795 24.3631 6.57673 24.1739 6.49632C23.8029 6.34282 23.4247 6.59135 23.4247 6.99339C23.4247 7.27116 25.0032 10.3486 25.3306 10.6995C25.6797 11.0796 26.1162 11.3574 26.5818 11.4962C26.7636 11.5547 28.866 11.8764 31.2593 12.2272C33.6526 12.5708 35.7549 12.907 35.9295 12.9728C36.5405 13.1921 37.0279 13.9085 37.0279 14.5737C37.0279 14.888 36.8461 15.3778 36.6496 15.6117C36.5551 15.7213 35.0929 17.176 33.3907 18.8426C31.6885 20.5093 30.2117 21.9786 30.1026 22.1028C29.9862 22.2344 29.8116 22.5268 29.7098 22.7534C29.3533 23.5282 29.3679 23.6598 30.2263 28.6744C30.7646 31.803 30.9901 33.2942 30.961 33.4842C30.8664 34.0763 30.4591 34.5953 29.9208 34.8292C29.7898 34.8804 29.4916 34.9243 29.2442 34.9243C28.8514 34.9243 28.7205 34.8804 27.9348 34.4711L27.0619 34.0252V33.3965C27.0619 32.6363 26.9237 32.2927 26.4799 31.9126C26.189 31.6568 25.7161 31.4886 25.3087 31.4886C25.1633 31.4886 25.1633 31.4521 25.1851 30.0047C25.2069 28.5647 25.2142 28.5209 25.4033 28.1554C25.5124 27.9507 25.8471 27.5121 26.1526 27.1758C26.8364 26.4302 27.2438 25.8308 27.5129 25.1949C27.7457 24.632 27.9348 23.6306 27.9348 22.9434C27.9348 21.7373 27.6802 19.8295 27.3092 18.2725C27.1783 17.695 27.1346 17.3076 27.1346 16.657C27.1346 15.6629 27.0328 15.2827 26.6545 14.8368C26.5163 14.6687 26.2253 14.4494 26.0071 14.3471C25.6506 14.1716 25.5488 14.1497 25.0469 14.1863C24.7341 14.2009 24.4067 14.2447 24.3194 14.274C24.1739 14.3178 24.1521 14.3032 24.1521 14.1497C24.1521 13.8646 23.8029 13.2433 23.4828 12.9582C23.0391 12.5489 22.6099 12.388 21.9916 12.388C21.5769 12.388 21.3951 12.4246 21.0968 12.5708L20.7185 12.7608L20.2675 12.3076C19.9475 11.9787 19.7219 11.8179 19.4673 11.7302C19.0163 11.5767 18.3834 11.5693 17.947 11.7229C17.5905 11.8471 16.9795 12.3442 16.8194 12.6439L16.7249 12.8193L16.2884 12.6C15.4446 12.1834 14.4552 12.3515 13.786 13.024C13.1822 13.6307 13.1458 13.7915 13.1094 16.0795L13.0876 18.0312L12.8403 18.2213C12.2438 18.6745 11.5382 19.961 11.2617 21.0868C11.0362 22.0005 11.0362 23.6013 11.269 24.4347C11.56 25.5165 12.1128 26.5106 13.0513 27.6437L13.5314 28.2211V29.8512C13.5314 31.6495 13.575 31.4886 13.0513 31.5983C12.7385 31.6568 12.2292 32.11 12.0692 32.4682C11.9746 32.6875 11.931 32.9433 11.931 33.3965V34.0325L11.058 34.4784C10.2724 34.8804 10.1342 34.9243 9.74137 34.9243C9.50131 34.9243 9.20306 34.8804 9.07212 34.8292C8.5338 34.5953 8.12643 34.0763 8.03187 33.4842C8.00277 33.2942 8.22828 31.803 8.76659 28.6744C9.62498 23.6817 9.63953 23.5209 9.29762 22.7826C9.19578 22.5633 9.02119 22.2709 8.9048 22.1321C8.78841 21.9859 7.30442 20.5093 5.60219 18.8426C3.89997 17.176 2.4378 15.7213 2.34323 15.6117C2.14682 15.3778 1.96495 14.888 1.96495 14.5737C1.96495 13.9085 2.45234 13.1921 3.0634 12.9728C3.23799 12.907 5.33304 12.5708 7.71906 12.2272C10.0978 11.8837 12.1783 11.5693 12.3384 11.5255C12.8403 11.3866 13.2695 11.1161 13.6332 10.7287C13.9242 10.4144 14.3025 9.70534 16.0338 6.17469C17.8451 2.49053 18.1288 1.95691 18.3907 1.73031C19.0527 1.16014 19.9402 1.16014 20.5949 1.723C20.8277 1.92767 21.0459 2.29317 21.6788 3.56508C22.1152 4.44226 22.5226 5.17324 22.5881 5.20248C22.9664 5.34868 23.3592 5.12938 23.3665 4.7712C23.3665 4.63962 23.0755 3.9525 22.6317 3.03146C21.7806 1.26248 21.4242 0.809269 20.6531 0.458397C20.122 0.224483 19.2855 0.151386 18.7617 0.297581ZM19.2637 12.8486C19.3946 12.929 19.5619 13.0971 19.6419 13.2287C19.7801 13.4553 19.7874 13.6015 19.7874 15.5678V17.6731H18.6962H17.6051V15.5678C17.6051 13.6015 17.6123 13.4553 17.7506 13.2287C18.0561 12.7243 18.7617 12.5416 19.2637 12.8486ZM15.7865 13.5942C16.3975 13.9085 16.4048 13.9377 16.4266 15.926L16.4484 17.6804L15.3354 17.6584L14.2224 17.6365L14.2006 16.1161C14.1933 15.217 14.2152 14.4787 14.2588 14.3105C14.3825 13.8427 14.8553 13.4699 15.35 13.4407C15.4155 13.4334 15.6119 13.5065 15.7865 13.5942ZM22.5881 13.6453C22.7118 13.7111 22.8791 13.9158 22.9736 14.0912C23.1337 14.4129 23.1409 14.4494 23.1191 16.6278L23.0973 18.828L22.8718 19.1131C22.5881 19.4713 22.1662 19.6321 21.7733 19.5298L21.4969 19.464L21.5187 19.0839C21.5551 18.5429 21.4314 18.1628 21.1332 17.8997L20.8786 17.6804V16.1161C20.8786 15.2535 20.9004 14.4494 20.9222 14.3252C21.0241 13.8281 21.6642 13.3895 22.1516 13.4772C22.2753 13.4991 22.4717 13.5796 22.5881 13.6453ZM25.607 15.3705C26.0216 15.5824 26.0435 15.714 26.0435 17.8777C26.0435 19.8002 26.0362 19.8514 25.8762 20.0926C25.7816 20.2315 25.5924 20.385 25.4324 20.4435C25.0541 20.5897 24.6249 20.4435 24.3922 20.0926C24.2248 19.8514 24.2248 19.8075 24.2248 17.8777C24.2248 15.7286 24.2467 15.5898 24.6468 15.3778C24.9014 15.2316 25.3378 15.2316 25.607 15.3705ZM20.4421 18.8573C20.4421 19.1204 20.2748 19.4932 20.0638 19.6979C19.4964 20.2461 18.558 20.4362 17.0886 20.3046C16.5721 20.2534 16.0774 20.2315 15.9829 20.2607C15.5246 20.3777 15.2554 20.8455 15.4155 21.2476C15.4664 21.3572 15.7355 21.6642 16.0265 21.9274C16.8049 22.6364 17.1686 23.4332 17.1686 24.442C17.1686 24.8513 17.1904 24.9171 17.3577 25.0487C17.7287 25.3411 18.1361 25.151 18.2307 24.6466C18.3762 23.8718 17.9324 22.4025 17.3577 21.7081C17.2486 21.5911 17.1686 21.4815 17.1686 21.4669C17.1686 21.4522 17.5396 21.4376 17.9906 21.4303C19.1836 21.423 20.1511 21.1233 20.6967 20.597L20.915 20.385L21.3151 20.5239C21.9261 20.7359 22.348 20.6993 23.1409 20.3485C23.2282 20.3119 23.2864 20.3558 23.3519 20.5239C23.5774 21.0648 24.4795 21.6204 25.1342 21.6204C25.527 21.6204 26.0726 21.4157 26.3854 21.1452L26.6836 20.8894L26.7491 21.3791C26.7782 21.6569 26.8073 22.3221 26.8073 22.863C26.8073 23.6817 26.7782 23.9376 26.6472 24.3616C26.4145 25.0852 26.0435 25.6773 25.3015 26.4887C24.6468 27.2051 24.3049 27.7826 24.1594 28.4185C24.1157 28.6013 24.0794 29.3615 24.0794 30.1144V31.4886H19.3509H14.6298L14.608 29.6758L14.5862 27.8557L14.3898 27.5706C14.2806 27.4171 13.9606 27.0077 13.6841 26.6642C12.4693 25.1803 11.9892 23.6233 12.222 21.9493C12.3966 20.6847 13.0149 19.4201 13.6696 18.9815L13.9897 18.7695H17.2195C19.751 18.7695 20.4421 18.7915 20.4421 18.8573Z" fill="#DE9A6D"/>
</svg>
