<svg width="579" height="206" viewBox="0 0 579 206" fill="none" xmlns="http://www.w3.org/2000/svg">
<path d="M512.625 19.1988C525.322 18.5915 550.25 16.9196 553.075 19.2001C556.606 22.0507 565.458 53.0341 564.069 57.6389C562.68 62.2437 539.276 65.8015 536.544 66.7241C533.813 67.6467 518.484 71.6919 515.795 69.4446C513.105 67.1972 509.018 59.7885 508.067 52.2267C507.116 44.6649 505.642 27.609 509.076 24.15C512.511 20.6911 530.428 41.6909 534.59 44.9939C538.753 48.2969 550.732 57.3609 553.48 55.9704C556.228 54.5799 552.677 29.1553 552.553 25.7062C552.475 23.5314 552.098 22.3404 548.226 25.9657C544.355 29.591 521.867 56.1583 519.637 57.638C515.438 60.4244 507.215 60.9445 504.431 61.301C499.735 61.9023 490.904 59.2872 489.961 61.4917C489.207 63.2552 502.184 79.1041 508.767 86.808C511.528 90.0667 517.371 96.0463 518.657 93.896C520.265 91.2081 519.154 78.0916 517.706 74.334" stroke="#2961B6" stroke-width="2.55776" stroke-linecap="round"/>
<path d="M3.08424 131.29C34.652 117.195 68.7191 101.791 98.9771 85.3654C112.257 78.1566 129.203 65.8389 144.399 63.625C178.629 58.638 197.333 91.1464 171.538 113.381C159.326 123.908 132.847 127.617 123.605 140.225C112.394 155.517 113.533 169.284 132.681 176.765C165.992 189.781 225.852 168.04 254.912 152.264C264.653 146.976 289.511 127.901 290.246 117.991C292.5 87.5814 268.485 103.385 261.475 108.189C247.642 117.667 241.787 148.947 251.42 157.898C263.791 169.394 286.151 169.977 301.616 170.704C366.718 173.765 430.495 108.767 490.351 93.6263" stroke="#2961B6" stroke-width="2.55776" stroke-linecap="round" stroke-linejoin="round"/>
</svg>
