<svg width="170" height="54" viewBox="0 0 170 54" fill="none" xmlns="http://www.w3.org/2000/svg">
<mask id="path-1-outside-1_1038_6656" maskUnits="userSpaceOnUse" x="38.0078" y="5.07422" width="132" height="49" fill="black">
<rect fill="white" x="38.0078" y="5.07422" width="132" height="49"/>
<path d="M60.2349 40.1273C60.2349 40.8826 59.8643 41.2603 59.1233 41.2603H57.0498C56.494 41.2603 56.1591 41.1534 56.045 40.9396C55.931 40.7116 55.8669 40.5121 55.8527 40.3411C55.8384 40.1558 55.8099 39.9349 55.7671 39.6784C55.6816 38.9801 55.5605 38.2248 55.4037 37.4125C54.2922 39.4504 52.5464 40.7971 50.1665 41.4527C49.3256 41.6807 48.3993 41.7947 47.3875 41.7947C46.3756 41.7947 45.3638 41.6237 44.352 41.2816C43.3402 40.9539 42.4423 40.4622 41.6585 39.8067C39.8914 38.3245 39.0078 36.3793 39.0078 33.9708C39.0078 31.3344 39.9769 29.3178 41.915 27.9212C43.5112 26.7954 45.5633 26.2324 48.0715 26.2324C50.5797 26.2324 52.7032 26.9664 54.4418 28.4342C54.4845 27.9497 54.5059 27.344 54.5059 26.6172C54.5059 25.8904 54.3634 25.1636 54.0784 24.4368C53.7934 23.71 53.3872 23.1043 52.8599 22.6198C51.7768 21.665 50.2662 21.1875 48.3281 21.1875C46.5894 21.1875 44.8223 21.665 43.0266 22.6198C42.6846 22.805 42.3853 22.8977 42.1288 22.8977C41.744 22.8977 41.3735 22.52 41.0172 21.7647C40.6324 20.9952 40.4401 20.4394 40.4401 20.0973C40.4401 19.4703 40.9103 18.8646 41.8509 18.2803C43.6466 17.1687 46.0479 16.6129 49.0549 16.6129C51.7911 16.6129 54.057 17.3611 55.8527 18.8575C57.9761 20.6531 59.0378 23.1898 59.0378 26.4676C59.0378 27.9212 58.8026 29.7525 58.3324 31.9614C59.5437 35.4102 60.1779 38.1321 60.2349 40.1273ZM45.9125 31.0636C45.3282 31.4911 44.9078 31.9187 44.6513 32.3462C44.409 32.7737 44.2879 33.2796 44.2879 33.8639C44.2879 34.434 44.3876 34.947 44.5871 35.4031C44.8009 35.8448 45.093 36.2154 45.4636 36.5146C46.2474 37.1274 47.1238 37.4338 48.0929 37.4338C49.0762 37.4338 49.8814 37.3198 50.5085 37.0918C51.1355 36.8638 51.6771 36.5716 52.1331 36.2154C53.1164 35.4458 53.6081 34.6335 53.6081 33.7784C53.5226 32.7096 52.9312 31.8688 51.8338 31.256C50.8505 30.6859 49.689 30.4009 48.3494 30.4009C47.3091 30.4009 46.4968 30.6218 45.9125 31.0636Z"/>
<path d="M73.1037 37.4125C75.8399 37.4125 77.208 36.4933 77.208 34.6549C77.208 33.643 76.4313 32.788 74.8779 32.0897C74.2224 31.7904 73.5027 31.5125 72.7189 31.256C71.9493 30.9995 71.2083 30.6931 70.4957 30.3368C69.7831 29.9805 69.1133 29.5957 68.4863 29.1824C67.8735 28.7549 67.3391 28.2704 66.883 27.7288C65.9425 26.5887 65.4722 25.1422 65.4722 23.3893C65.4722 21.2517 66.3629 19.5558 68.1443 18.3017C69.7261 17.1759 71.6714 16.6129 73.9801 16.6129C76.4598 16.6129 78.5333 17.0975 80.2007 18.0665C80.7708 18.4086 81.0558 18.8005 81.0558 19.2423C81.0558 19.8693 80.8848 20.5605 80.5427 21.3158C80.215 22.0569 79.8231 22.4274 79.367 22.4274C78.9252 22.4274 78.5191 22.3348 78.1486 22.1495C77.7923 21.9642 77.4645 21.8075 77.1652 21.6792C76.8802 21.5367 76.5738 21.4227 76.246 21.3372C75.5335 21.1234 74.8708 21.0165 74.258 21.0165C73.6594 21.0165 73.1749 21.0593 72.8044 21.1448C72.4338 21.2303 72.0989 21.3657 71.7997 21.5509C71.0729 21.9927 70.7095 22.5343 70.7095 23.1756C70.7095 23.8169 70.852 24.3085 71.137 24.6506C71.4363 24.9926 71.8424 25.3061 72.3555 25.5911C72.8685 25.8762 73.4813 26.1612 74.1939 26.4462L76.5025 27.4082C78.3694 28.2205 79.6307 28.9544 80.2862 29.61C81.5688 30.9211 82.2101 32.4388 82.2101 34.1632C82.2101 36.3294 81.4691 38.1108 79.987 39.5074C78.3481 41.0322 76.018 41.7947 72.9968 41.7947C69.9328 41.7947 67.6312 41.2033 66.0921 40.0204C65.3368 39.4504 64.9591 38.9373 64.9591 38.4813C64.9591 38.0253 65.0375 37.6191 65.1943 37.2628C65.3653 36.8923 65.5791 36.4648 65.8356 35.9802C66.1063 35.4814 66.4626 35.232 66.9044 35.232C67.3604 35.232 67.8379 35.4387 68.3366 35.852C68.8497 36.251 69.548 36.6144 70.4316 36.9422C71.3151 37.2557 72.2058 37.4125 73.1037 37.4125Z"/>
<path d="M93.6467 37.5621C93.7892 38.9872 93.8604 40.7686 93.8604 42.9063V51.7349C93.8604 52.7894 93.44 53.3167 92.5992 53.3167H89.9485C89.0507 53.3167 88.6018 52.7609 88.6018 51.6493V27.9853C88.6018 23.9808 88.388 21.0593 87.9605 19.2209C87.9177 19.0356 87.8963 18.7791 87.8963 18.4513C87.8963 18.1236 88.0246 17.8243 88.2811 17.5535C88.5519 17.2827 88.8939 17.1473 89.3072 17.1473H90.6112C91.395 17.1473 91.9508 17.4894 92.2786 18.1734C92.6633 18.9715 92.9555 20.0047 93.155 21.2731C94.1526 19.5344 95.5136 18.2661 97.238 17.468C98.4635 16.898 99.853 16.6129 101.406 16.6129C102.974 16.6129 104.371 16.9193 105.596 17.5321C106.822 18.1307 107.841 18.9572 108.653 20.0118C110.263 22.1067 111.069 24.9142 111.069 28.4342C111.069 32.111 110.164 35.2178 108.354 37.7545C106.444 40.448 103.943 41.7947 100.851 41.7947C97.6299 41.7947 95.2285 40.3838 93.6467 37.5621ZM93.3688 29.9734C93.3688 32.0255 94.0528 33.7927 95.4209 35.2748C96.7178 36.6714 98.1856 37.3697 99.8245 37.3697C101.891 37.3697 103.423 36.365 104.421 34.3556C105.219 32.7595 105.618 30.7429 105.618 28.306C105.618 26.3393 105.147 24.6719 104.207 23.3038C103.195 21.8217 101.848 21.0807 100.167 21.0807C98.2712 21.0807 96.6537 21.8645 95.314 23.4321C94.0172 24.9712 93.3688 26.7597 93.3688 28.7977V29.9734Z"/>
<path d="M120.111 13.0216C119.142 13.0216 118.315 12.6867 117.631 12.0169C116.947 11.3614 116.605 10.5348 116.605 9.53724C116.605 8.56817 116.947 7.7416 117.631 7.05755C118.287 6.40199 119.113 6.07422 120.111 6.07422C121.636 6.07422 122.705 6.77252 123.318 8.16914C123.503 8.58242 123.595 9.03845 123.595 9.53724C123.595 10.5348 123.253 11.3614 122.569 12.0169C121.885 12.6867 121.066 13.0216 120.111 13.0216ZM122.612 35.3817C122.612 36.3935 122.947 36.8994 123.617 36.8994C123.845 36.8994 124.101 36.8353 124.386 36.707C124.942 36.4648 125.32 36.3436 125.519 36.3436C125.819 36.3436 126.061 36.5503 126.246 36.9636L126.909 38.4599C127.023 38.7022 127.08 38.9302 127.08 39.144C127.08 39.7568 126.553 40.3268 125.498 40.8541C124.5 41.3672 123.51 41.6237 122.527 41.6237C121.558 41.6237 120.781 41.5168 120.197 41.303C119.612 41.0893 119.113 40.733 118.7 40.2342C117.874 39.2081 117.46 37.5407 117.46 35.232V18.5582C117.46 18.1592 117.574 17.8243 117.802 17.5535C118.03 17.2827 118.301 17.1473 118.615 17.1473H121.479C121.807 17.1473 122.078 17.2827 122.291 17.5535C122.505 17.8243 122.612 18.1592 122.612 18.5582V35.3817Z"/>
<path d="M131.59 18.6865C131.59 17.6604 132.039 17.1473 132.937 17.1473H134.091C134.875 17.1473 135.431 17.4894 135.759 18.1734C136.229 19.171 136.571 20.5462 136.785 22.2991C136.785 22.3276 136.792 22.3419 136.806 22.3419C136.835 22.3419 136.885 22.0996 136.956 21.6151C137.027 21.1305 137.234 20.5391 137.576 19.8408C137.918 19.1283 138.338 18.5297 138.837 18.0452C139.849 17.0903 141.089 16.6129 142.557 16.6129C144.195 16.6129 145.336 16.8837 145.977 17.4252C146.276 17.6675 146.397 18.0024 146.34 18.43L145.998 21.1234C145.913 21.8502 145.542 22.2136 144.887 22.2136C144.573 22.2136 144.188 22.1495 143.732 22.0212C142.849 21.7932 142.15 21.6792 141.637 21.6792C141.124 21.6792 140.583 21.9072 140.013 22.3633C139.443 22.8051 138.951 23.3608 138.538 24.0306C137.697 25.4273 137.277 26.9165 137.277 28.4984V39.8494C137.277 40.2484 137.163 40.5833 136.934 40.8541C136.706 41.1249 136.379 41.2603 135.951 41.2603H133.471C133.015 41.2603 132.666 41.1249 132.424 40.8541C132.196 40.5833 132.082 40.2484 132.082 39.8494V25.1209C132.082 22.6127 131.996 20.9595 131.825 20.1615C131.669 19.3491 131.59 18.8575 131.59 18.6865Z"/>
<path d="M153.972 30.3795L153.95 30.7857C153.95 32.7381 154.57 34.3057 155.81 35.4886C157.107 36.7427 158.867 37.3697 161.09 37.3697C163.114 37.3697 164.995 36.764 166.734 35.5527C167.061 35.3247 167.354 35.2107 167.61 35.2107C168.137 35.2107 168.536 35.4743 168.807 36.0016L169.384 37.1987C169.513 37.4837 169.577 37.7901 169.577 38.1179C169.577 38.4457 169.427 38.7877 169.128 39.144C168.843 39.486 168.465 39.7995 167.995 40.0845C167.525 40.3696 166.976 40.619 166.349 40.8327C165.736 41.0465 165.102 41.2246 164.446 41.3672C163.135 41.6522 161.767 41.7947 160.342 41.7947C158.917 41.7947 157.478 41.5239 156.024 40.9824C154.585 40.4408 153.338 39.6499 152.283 38.6096C150.017 36.4006 148.884 33.415 148.884 29.6527C148.884 23.0544 151.207 18.9501 155.853 17.3397C157.306 16.841 158.796 16.5916 160.321 16.5916C161.86 16.5916 163.164 16.7554 164.233 17.0832C165.316 17.411 166.249 17.8955 167.033 18.5368C168.686 19.8907 169.513 21.779 169.513 24.2017C169.513 26.5816 168.544 28.3986 166.605 29.6527C164.909 30.7501 162.672 31.2987 159.893 31.2987C158.183 31.2987 156.209 30.9923 153.972 30.3795ZM164.489 24.1375C164.489 22.0996 163.121 21.0807 160.385 21.0807C157.777 21.0807 155.953 22.0355 154.912 23.9451C154.542 24.6149 154.3 25.4415 154.185 26.4248C155.411 27.0376 156.972 27.344 158.867 27.344C162.615 27.344 164.489 26.2752 164.489 24.1375Z"/>
</mask>
<path d="M60.2349 40.1273C60.2349 40.8826 59.8643 41.2603 59.1233 41.2603H57.0498C56.494 41.2603 56.1591 41.1534 56.045 40.9396C55.931 40.7116 55.8669 40.5121 55.8527 40.3411C55.8384 40.1558 55.8099 39.9349 55.7671 39.6784C55.6816 38.9801 55.5605 38.2248 55.4037 37.4125C54.2922 39.4504 52.5464 40.7971 50.1665 41.4527C49.3256 41.6807 48.3993 41.7947 47.3875 41.7947C46.3756 41.7947 45.3638 41.6237 44.352 41.2816C43.3402 40.9539 42.4423 40.4622 41.6585 39.8067C39.8914 38.3245 39.0078 36.3793 39.0078 33.9708C39.0078 31.3344 39.9769 29.3178 41.915 27.9212C43.5112 26.7954 45.5633 26.2324 48.0715 26.2324C50.5797 26.2324 52.7032 26.9664 54.4418 28.4342C54.4845 27.9497 54.5059 27.344 54.5059 26.6172C54.5059 25.8904 54.3634 25.1636 54.0784 24.4368C53.7934 23.71 53.3872 23.1043 52.8599 22.6198C51.7768 21.665 50.2662 21.1875 48.3281 21.1875C46.5894 21.1875 44.8223 21.665 43.0266 22.6198C42.6846 22.805 42.3853 22.8977 42.1288 22.8977C41.744 22.8977 41.3735 22.52 41.0172 21.7647C40.6324 20.9952 40.4401 20.4394 40.4401 20.0973C40.4401 19.4703 40.9103 18.8646 41.8509 18.2803C43.6466 17.1687 46.0479 16.6129 49.0549 16.6129C51.7911 16.6129 54.057 17.3611 55.8527 18.8575C57.9761 20.6531 59.0378 23.1898 59.0378 26.4676C59.0378 27.9212 58.8026 29.7525 58.3324 31.9614C59.5437 35.4102 60.1779 38.1321 60.2349 40.1273ZM45.9125 31.0636C45.3282 31.4911 44.9078 31.9187 44.6513 32.3462C44.409 32.7737 44.2879 33.2796 44.2879 33.8639C44.2879 34.434 44.3876 34.947 44.5871 35.4031C44.8009 35.8448 45.093 36.2154 45.4636 36.5146C46.2474 37.1274 47.1238 37.4338 48.0929 37.4338C49.0762 37.4338 49.8814 37.3198 50.5085 37.0918C51.1355 36.8638 51.6771 36.5716 52.1331 36.2154C53.1164 35.4458 53.6081 34.6335 53.6081 33.7784C53.5226 32.7096 52.9312 31.8688 51.8338 31.256C50.8505 30.6859 49.689 30.4009 48.3494 30.4009C47.3091 30.4009 46.4968 30.6218 45.9125 31.0636Z" fill="#2961B6"/>
<path d="M73.1037 37.4125C75.8399 37.4125 77.208 36.4933 77.208 34.6549C77.208 33.643 76.4313 32.788 74.8779 32.0897C74.2224 31.7904 73.5027 31.5125 72.7189 31.256C71.9493 30.9995 71.2083 30.6931 70.4957 30.3368C69.7831 29.9805 69.1133 29.5957 68.4863 29.1824C67.8735 28.7549 67.3391 28.2704 66.883 27.7288C65.9425 26.5887 65.4722 25.1422 65.4722 23.3893C65.4722 21.2517 66.3629 19.5558 68.1443 18.3017C69.7261 17.1759 71.6714 16.6129 73.9801 16.6129C76.4598 16.6129 78.5333 17.0975 80.2007 18.0665C80.7708 18.4086 81.0558 18.8005 81.0558 19.2423C81.0558 19.8693 80.8848 20.5605 80.5427 21.3158C80.215 22.0569 79.8231 22.4274 79.367 22.4274C78.9252 22.4274 78.5191 22.3348 78.1486 22.1495C77.7923 21.9642 77.4645 21.8075 77.1652 21.6792C76.8802 21.5367 76.5738 21.4227 76.246 21.3372C75.5335 21.1234 74.8708 21.0165 74.258 21.0165C73.6594 21.0165 73.1749 21.0593 72.8044 21.1448C72.4338 21.2303 72.0989 21.3657 71.7997 21.5509C71.0729 21.9927 70.7095 22.5343 70.7095 23.1756C70.7095 23.8169 70.852 24.3085 71.137 24.6506C71.4363 24.9926 71.8424 25.3061 72.3555 25.5911C72.8685 25.8762 73.4813 26.1612 74.1939 26.4462L76.5025 27.4082C78.3694 28.2205 79.6307 28.9544 80.2862 29.61C81.5688 30.9211 82.2101 32.4388 82.2101 34.1632C82.2101 36.3294 81.4691 38.1108 79.987 39.5074C78.3481 41.0322 76.018 41.7947 72.9968 41.7947C69.9328 41.7947 67.6312 41.2033 66.0921 40.0204C65.3368 39.4504 64.9591 38.9373 64.9591 38.4813C64.9591 38.0253 65.0375 37.6191 65.1943 37.2628C65.3653 36.8923 65.5791 36.4648 65.8356 35.9802C66.1063 35.4814 66.4626 35.232 66.9044 35.232C67.3604 35.232 67.8379 35.4387 68.3366 35.852C68.8497 36.251 69.548 36.6144 70.4316 36.9422C71.3151 37.2557 72.2058 37.4125 73.1037 37.4125Z" fill="#2961B6"/>
<path d="M93.6467 37.5621C93.7892 38.9872 93.8604 40.7686 93.8604 42.9063V51.7349C93.8604 52.7894 93.44 53.3167 92.5992 53.3167H89.9485C89.0507 53.3167 88.6018 52.7609 88.6018 51.6493V27.9853C88.6018 23.9808 88.388 21.0593 87.9605 19.2209C87.9177 19.0356 87.8963 18.7791 87.8963 18.4513C87.8963 18.1236 88.0246 17.8243 88.2811 17.5535C88.5519 17.2827 88.8939 17.1473 89.3072 17.1473H90.6112C91.395 17.1473 91.9508 17.4894 92.2786 18.1734C92.6633 18.9715 92.9555 20.0047 93.155 21.2731C94.1526 19.5344 95.5136 18.2661 97.238 17.468C98.4635 16.898 99.853 16.6129 101.406 16.6129C102.974 16.6129 104.371 16.9193 105.596 17.5321C106.822 18.1307 107.841 18.9572 108.653 20.0118C110.263 22.1067 111.069 24.9142 111.069 28.4342C111.069 32.111 110.164 35.2178 108.354 37.7545C106.444 40.448 103.943 41.7947 100.851 41.7947C97.6299 41.7947 95.2285 40.3838 93.6467 37.5621ZM93.3688 29.9734C93.3688 32.0255 94.0528 33.7927 95.4209 35.2748C96.7178 36.6714 98.1856 37.3697 99.8245 37.3697C101.891 37.3697 103.423 36.365 104.421 34.3556C105.219 32.7595 105.618 30.7429 105.618 28.306C105.618 26.3393 105.147 24.6719 104.207 23.3038C103.195 21.8217 101.848 21.0807 100.167 21.0807C98.2712 21.0807 96.6537 21.8645 95.314 23.4321C94.0172 24.9712 93.3688 26.7597 93.3688 28.7977V29.9734Z" fill="#2961B6"/>
<path d="M120.111 13.0216C119.142 13.0216 118.315 12.6867 117.631 12.0169C116.947 11.3614 116.605 10.5348 116.605 9.53724C116.605 8.56817 116.947 7.7416 117.631 7.05755C118.287 6.40199 119.113 6.07422 120.111 6.07422C121.636 6.07422 122.705 6.77252 123.318 8.16914C123.503 8.58242 123.595 9.03845 123.595 9.53724C123.595 10.5348 123.253 11.3614 122.569 12.0169C121.885 12.6867 121.066 13.0216 120.111 13.0216ZM122.612 35.3817C122.612 36.3935 122.947 36.8994 123.617 36.8994C123.845 36.8994 124.101 36.8353 124.386 36.707C124.942 36.4648 125.32 36.3436 125.519 36.3436C125.819 36.3436 126.061 36.5503 126.246 36.9636L126.909 38.4599C127.023 38.7022 127.08 38.9302 127.08 39.144C127.08 39.7568 126.553 40.3268 125.498 40.8541C124.5 41.3672 123.51 41.6237 122.527 41.6237C121.558 41.6237 120.781 41.5168 120.197 41.303C119.612 41.0893 119.113 40.733 118.7 40.2342C117.874 39.2081 117.46 37.5407 117.46 35.232V18.5582C117.46 18.1592 117.574 17.8243 117.802 17.5535C118.03 17.2827 118.301 17.1473 118.615 17.1473H121.479C121.807 17.1473 122.078 17.2827 122.291 17.5535C122.505 17.8243 122.612 18.1592 122.612 18.5582V35.3817Z" fill="#2961B6"/>
<path d="M131.59 18.6865C131.59 17.6604 132.039 17.1473 132.937 17.1473H134.091C134.875 17.1473 135.431 17.4894 135.759 18.1734C136.229 19.171 136.571 20.5462 136.785 22.2991C136.785 22.3276 136.792 22.3419 136.806 22.3419C136.835 22.3419 136.885 22.0996 136.956 21.6151C137.027 21.1305 137.234 20.5391 137.576 19.8408C137.918 19.1283 138.338 18.5297 138.837 18.0452C139.849 17.0903 141.089 16.6129 142.557 16.6129C144.195 16.6129 145.336 16.8837 145.977 17.4252C146.276 17.6675 146.397 18.0024 146.34 18.43L145.998 21.1234C145.913 21.8502 145.542 22.2136 144.887 22.2136C144.573 22.2136 144.188 22.1495 143.732 22.0212C142.849 21.7932 142.15 21.6792 141.637 21.6792C141.124 21.6792 140.583 21.9072 140.013 22.3633C139.443 22.8051 138.951 23.3608 138.538 24.0306C137.697 25.4273 137.277 26.9165 137.277 28.4984V39.8494C137.277 40.2484 137.163 40.5833 136.934 40.8541C136.706 41.1249 136.379 41.2603 135.951 41.2603H133.471C133.015 41.2603 132.666 41.1249 132.424 40.8541C132.196 40.5833 132.082 40.2484 132.082 39.8494V25.1209C132.082 22.6127 131.996 20.9595 131.825 20.1615C131.669 19.3491 131.59 18.8575 131.59 18.6865Z" fill="#2961B6"/>
<path d="M153.972 30.3795L153.95 30.7857C153.95 32.7381 154.57 34.3057 155.81 35.4886C157.107 36.7427 158.867 37.3697 161.09 37.3697C163.114 37.3697 164.995 36.764 166.734 35.5527C167.061 35.3247 167.354 35.2107 167.61 35.2107C168.137 35.2107 168.536 35.4743 168.807 36.0016L169.384 37.1987C169.513 37.4837 169.577 37.7901 169.577 38.1179C169.577 38.4457 169.427 38.7877 169.128 39.144C168.843 39.486 168.465 39.7995 167.995 40.0845C167.525 40.3696 166.976 40.619 166.349 40.8327C165.736 41.0465 165.102 41.2246 164.446 41.3672C163.135 41.6522 161.767 41.7947 160.342 41.7947C158.917 41.7947 157.478 41.5239 156.024 40.9824C154.585 40.4408 153.338 39.6499 152.283 38.6096C150.017 36.4006 148.884 33.415 148.884 29.6527C148.884 23.0544 151.207 18.9501 155.853 17.3397C157.306 16.841 158.796 16.5916 160.321 16.5916C161.86 16.5916 163.164 16.7554 164.233 17.0832C165.316 17.411 166.249 17.8955 167.033 18.5368C168.686 19.8907 169.513 21.779 169.513 24.2017C169.513 26.5816 168.544 28.3986 166.605 29.6527C164.909 30.7501 162.672 31.2987 159.893 31.2987C158.183 31.2987 156.209 30.9923 153.972 30.3795ZM164.489 24.1375C164.489 22.0996 163.121 21.0807 160.385 21.0807C157.777 21.0807 155.953 22.0355 154.912 23.9451C154.542 24.6149 154.3 25.4415 154.185 26.4248C155.411 27.0376 156.972 27.344 158.867 27.344C162.615 27.344 164.489 26.2752 164.489 24.1375Z" fill="#2961B6"/>
<path d="M60.2349 40.1273C60.2349 40.8826 59.8643 41.2603 59.1233 41.2603H57.0498C56.494 41.2603 56.1591 41.1534 56.045 40.9396C55.931 40.7116 55.8669 40.5121 55.8527 40.3411C55.8384 40.1558 55.8099 39.9349 55.7671 39.6784C55.6816 38.9801 55.5605 38.2248 55.4037 37.4125C54.2922 39.4504 52.5464 40.7971 50.1665 41.4527C49.3256 41.6807 48.3993 41.7947 47.3875 41.7947C46.3756 41.7947 45.3638 41.6237 44.352 41.2816C43.3402 40.9539 42.4423 40.4622 41.6585 39.8067C39.8914 38.3245 39.0078 36.3793 39.0078 33.9708C39.0078 31.3344 39.9769 29.3178 41.915 27.9212C43.5112 26.7954 45.5633 26.2324 48.0715 26.2324C50.5797 26.2324 52.7032 26.9664 54.4418 28.4342C54.4845 27.9497 54.5059 27.344 54.5059 26.6172C54.5059 25.8904 54.3634 25.1636 54.0784 24.4368C53.7934 23.71 53.3872 23.1043 52.8599 22.6198C51.7768 21.665 50.2662 21.1875 48.3281 21.1875C46.5894 21.1875 44.8223 21.665 43.0266 22.6198C42.6846 22.805 42.3853 22.8977 42.1288 22.8977C41.744 22.8977 41.3735 22.52 41.0172 21.7647C40.6324 20.9952 40.4401 20.4394 40.4401 20.0973C40.4401 19.4703 40.9103 18.8646 41.8509 18.2803C43.6466 17.1687 46.0479 16.6129 49.0549 16.6129C51.7911 16.6129 54.057 17.3611 55.8527 18.8575C57.9761 20.6531 59.0378 23.1898 59.0378 26.4676C59.0378 27.9212 58.8026 29.7525 58.3324 31.9614C59.5437 35.4102 60.1779 38.1321 60.2349 40.1273ZM45.9125 31.0636C45.3282 31.4911 44.9078 31.9187 44.6513 32.3462C44.409 32.7737 44.2879 33.2796 44.2879 33.8639C44.2879 34.434 44.3876 34.947 44.5871 35.4031C44.8009 35.8448 45.093 36.2154 45.4636 36.5146C46.2474 37.1274 47.1238 37.4338 48.0929 37.4338C49.0762 37.4338 49.8814 37.3198 50.5085 37.0918C51.1355 36.8638 51.6771 36.5716 52.1331 36.2154C53.1164 35.4458 53.6081 34.6335 53.6081 33.7784C53.5226 32.7096 52.9312 31.8688 51.8338 31.256C50.8505 30.6859 49.689 30.4009 48.3494 30.4009C47.3091 30.4009 46.4968 30.6218 45.9125 31.0636Z" stroke="#2961B6" stroke-width="0.488508" mask="url(#path-1-outside-1_1038_6656)"/>
<path d="M73.1037 37.4125C75.8399 37.4125 77.208 36.4933 77.208 34.6549C77.208 33.643 76.4313 32.788 74.8779 32.0897C74.2224 31.7904 73.5027 31.5125 72.7189 31.256C71.9493 30.9995 71.2083 30.6931 70.4957 30.3368C69.7831 29.9805 69.1133 29.5957 68.4863 29.1824C67.8735 28.7549 67.3391 28.2704 66.883 27.7288C65.9425 26.5887 65.4722 25.1422 65.4722 23.3893C65.4722 21.2517 66.3629 19.5558 68.1443 18.3017C69.7261 17.1759 71.6714 16.6129 73.9801 16.6129C76.4598 16.6129 78.5333 17.0975 80.2007 18.0665C80.7708 18.4086 81.0558 18.8005 81.0558 19.2423C81.0558 19.8693 80.8848 20.5605 80.5427 21.3158C80.215 22.0569 79.8231 22.4274 79.367 22.4274C78.9252 22.4274 78.5191 22.3348 78.1486 22.1495C77.7923 21.9642 77.4645 21.8075 77.1652 21.6792C76.8802 21.5367 76.5738 21.4227 76.246 21.3372C75.5335 21.1234 74.8708 21.0165 74.258 21.0165C73.6594 21.0165 73.1749 21.0593 72.8044 21.1448C72.4338 21.2303 72.0989 21.3657 71.7997 21.5509C71.0729 21.9927 70.7095 22.5343 70.7095 23.1756C70.7095 23.8169 70.852 24.3085 71.137 24.6506C71.4363 24.9926 71.8424 25.3061 72.3555 25.5911C72.8685 25.8762 73.4813 26.1612 74.1939 26.4462L76.5025 27.4082C78.3694 28.2205 79.6307 28.9544 80.2862 29.61C81.5688 30.9211 82.2101 32.4388 82.2101 34.1632C82.2101 36.3294 81.4691 38.1108 79.987 39.5074C78.3481 41.0322 76.018 41.7947 72.9968 41.7947C69.9328 41.7947 67.6312 41.2033 66.0921 40.0204C65.3368 39.4504 64.9591 38.9373 64.9591 38.4813C64.9591 38.0253 65.0375 37.6191 65.1943 37.2628C65.3653 36.8923 65.5791 36.4648 65.8356 35.9802C66.1063 35.4814 66.4626 35.232 66.9044 35.232C67.3604 35.232 67.8379 35.4387 68.3366 35.852C68.8497 36.251 69.548 36.6144 70.4316 36.9422C71.3151 37.2557 72.2058 37.4125 73.1037 37.4125Z" stroke="#2961B6" stroke-width="0.488508" mask="url(#path-1-outside-1_1038_6656)"/>
<path d="M93.6467 37.5621C93.7892 38.9872 93.8604 40.7686 93.8604 42.9063V51.7349C93.8604 52.7894 93.44 53.3167 92.5992 53.3167H89.9485C89.0507 53.3167 88.6018 52.7609 88.6018 51.6493V27.9853C88.6018 23.9808 88.388 21.0593 87.9605 19.2209C87.9177 19.0356 87.8963 18.7791 87.8963 18.4513C87.8963 18.1236 88.0246 17.8243 88.2811 17.5535C88.5519 17.2827 88.8939 17.1473 89.3072 17.1473H90.6112C91.395 17.1473 91.9508 17.4894 92.2786 18.1734C92.6633 18.9715 92.9555 20.0047 93.155 21.2731C94.1526 19.5344 95.5136 18.2661 97.238 17.468C98.4635 16.898 99.853 16.6129 101.406 16.6129C102.974 16.6129 104.371 16.9193 105.596 17.5321C106.822 18.1307 107.841 18.9572 108.653 20.0118C110.263 22.1067 111.069 24.9142 111.069 28.4342C111.069 32.111 110.164 35.2178 108.354 37.7545C106.444 40.448 103.943 41.7947 100.851 41.7947C97.6299 41.7947 95.2285 40.3838 93.6467 37.5621ZM93.3688 29.9734C93.3688 32.0255 94.0528 33.7927 95.4209 35.2748C96.7178 36.6714 98.1856 37.3697 99.8245 37.3697C101.891 37.3697 103.423 36.365 104.421 34.3556C105.219 32.7595 105.618 30.7429 105.618 28.306C105.618 26.3393 105.147 24.6719 104.207 23.3038C103.195 21.8217 101.848 21.0807 100.167 21.0807C98.2712 21.0807 96.6537 21.8645 95.314 23.4321C94.0172 24.9712 93.3688 26.7597 93.3688 28.7977V29.9734Z" stroke="#2961B6" stroke-width="0.488508" mask="url(#path-1-outside-1_1038_6656)"/>
<path d="M120.111 13.0216C119.142 13.0216 118.315 12.6867 117.631 12.0169C116.947 11.3614 116.605 10.5348 116.605 9.53724C116.605 8.56817 116.947 7.7416 117.631 7.05755C118.287 6.40199 119.113 6.07422 120.111 6.07422C121.636 6.07422 122.705 6.77252 123.318 8.16914C123.503 8.58242 123.595 9.03845 123.595 9.53724C123.595 10.5348 123.253 11.3614 122.569 12.0169C121.885 12.6867 121.066 13.0216 120.111 13.0216ZM122.612 35.3817C122.612 36.3935 122.947 36.8994 123.617 36.8994C123.845 36.8994 124.101 36.8353 124.386 36.707C124.942 36.4648 125.32 36.3436 125.519 36.3436C125.819 36.3436 126.061 36.5503 126.246 36.9636L126.909 38.4599C127.023 38.7022 127.08 38.9302 127.08 39.144C127.08 39.7568 126.553 40.3268 125.498 40.8541C124.5 41.3672 123.51 41.6237 122.527 41.6237C121.558 41.6237 120.781 41.5168 120.197 41.303C119.612 41.0893 119.113 40.733 118.7 40.2342C117.874 39.2081 117.46 37.5407 117.46 35.232V18.5582C117.46 18.1592 117.574 17.8243 117.802 17.5535C118.03 17.2827 118.301 17.1473 118.615 17.1473H121.479C121.807 17.1473 122.078 17.2827 122.291 17.5535C122.505 17.8243 122.612 18.1592 122.612 18.5582V35.3817Z" stroke="#2961B6" stroke-width="0.488508" mask="url(#path-1-outside-1_1038_6656)"/>
<path d="M131.59 18.6865C131.59 17.6604 132.039 17.1473 132.937 17.1473H134.091C134.875 17.1473 135.431 17.4894 135.759 18.1734C136.229 19.171 136.571 20.5462 136.785 22.2991C136.785 22.3276 136.792 22.3419 136.806 22.3419C136.835 22.3419 136.885 22.0996 136.956 21.6151C137.027 21.1305 137.234 20.5391 137.576 19.8408C137.918 19.1283 138.338 18.5297 138.837 18.0452C139.849 17.0903 141.089 16.6129 142.557 16.6129C144.195 16.6129 145.336 16.8837 145.977 17.4252C146.276 17.6675 146.397 18.0024 146.34 18.43L145.998 21.1234C145.913 21.8502 145.542 22.2136 144.887 22.2136C144.573 22.2136 144.188 22.1495 143.732 22.0212C142.849 21.7932 142.15 21.6792 141.637 21.6792C141.124 21.6792 140.583 21.9072 140.013 22.3633C139.443 22.8051 138.951 23.3608 138.538 24.0306C137.697 25.4273 137.277 26.9165 137.277 28.4984V39.8494C137.277 40.2484 137.163 40.5833 136.934 40.8541C136.706 41.1249 136.379 41.2603 135.951 41.2603H133.471C133.015 41.2603 132.666 41.1249 132.424 40.8541C132.196 40.5833 132.082 40.2484 132.082 39.8494V25.1209C132.082 22.6127 131.996 20.9595 131.825 20.1615C131.669 19.3491 131.59 18.8575 131.59 18.6865Z" stroke="#2961B6" stroke-width="0.488508" mask="url(#path-1-outside-1_1038_6656)"/>
<path d="M153.972 30.3795L153.95 30.7857C153.95 32.7381 154.57 34.3057 155.81 35.4886C157.107 36.7427 158.867 37.3697 161.09 37.3697C163.114 37.3697 164.995 36.764 166.734 35.5527C167.061 35.3247 167.354 35.2107 167.61 35.2107C168.137 35.2107 168.536 35.4743 168.807 36.0016L169.384 37.1987C169.513 37.4837 169.577 37.7901 169.577 38.1179C169.577 38.4457 169.427 38.7877 169.128 39.144C168.843 39.486 168.465 39.7995 167.995 40.0845C167.525 40.3696 166.976 40.619 166.349 40.8327C165.736 41.0465 165.102 41.2246 164.446 41.3672C163.135 41.6522 161.767 41.7947 160.342 41.7947C158.917 41.7947 157.478 41.5239 156.024 40.9824C154.585 40.4408 153.338 39.6499 152.283 38.6096C150.017 36.4006 148.884 33.415 148.884 29.6527C148.884 23.0544 151.207 18.9501 155.853 17.3397C157.306 16.841 158.796 16.5916 160.321 16.5916C161.86 16.5916 163.164 16.7554 164.233 17.0832C165.316 17.411 166.249 17.8955 167.033 18.5368C168.686 19.8907 169.513 21.779 169.513 24.2017C169.513 26.5816 168.544 28.3986 166.605 29.6527C164.909 30.7501 162.672 31.2987 159.893 31.2987C158.183 31.2987 156.209 30.9923 153.972 30.3795ZM164.489 24.1375C164.489 22.0996 163.121 21.0807 160.385 21.0807C157.777 21.0807 155.953 22.0355 154.912 23.9451C154.542 24.6149 154.3 25.4415 154.185 26.4248C155.411 27.0376 156.972 27.344 158.867 27.344C162.615 27.344 164.489 26.2752 164.489 24.1375Z" stroke="#2961B6" stroke-width="0.488508" mask="url(#path-1-outside-1_1038_6656)"/>
<path d="M10.519 28.4081C10.4073 27.9571 8.65737 21.3176 8.01376 18.623C7.37014 15.9283 6.4312 15.4313 5.34683 14.2699C4.26246 13.1084 3.41349 12.293 2.62315 11.4924C2.09789 10.9603 1.71555 10.6623 1.25257 10.1886C0.948116 9.51007 1.11807 9.19714 1.7064 8.76911C2.29393 8.34168 3.54528 8.19138 4.23716 8.05881C7.25973 7.47968 10.3257 7.02428 13.2899 6.1832C16.522 5.26611 23.063 3.2155 23.063 3.2155C23.063 3.2155 24.7576 2.70001 25.6085 2.41435C26.4166 2.14307 27.2256 1.97246 28.0648 1.82251C28.4001 1.76262 28.7431 1.75126 29.0303 1.82208C29.0953 1.83811 29.7799 1.96543 29.6911 2.63133C29.5122 3.49764 26.4288 12.6744 26.1276 13.5067C25.9275 14.0877 24.1339 21.5285 24.0978 21.8902C23.8947 22.637 23.7807 23.3981 23.5531 24.1385C23.4105 24.6024 23.3992 24.6237 23.2291 25.1051C23.1921 25.2099 22.8922 26.0141 22.1752 26.3254C20.5818 26.7764 19.8785 25.8036 19.225 25.17C18.9523 24.9055 14.8156 20.8194 14.5313 20.569C14.1757 20.2559 13.8418 19.9282 13.4913 19.6172C12.9639 19.1494 9.29138 15.5623 9.12029 15.443C8.93933 15.1527 8.66057 14.8262 9.16339 14.287C9.4986 13.9275 9.8275 13.7189 10.3488 13.3761C10.9743 12.9648 11.82 12.3883 12.349 12.0664C13.3657 11.4479 14.3975 10.9063 15.4532 10.367C16.1428 10.0148 16.8783 9.62303 17.5493 9.24359C19.2272 8.29471 20.3217 7.52071 22.2029 6.38795C23.4278 5.55312 26.0112 3.7872 26.7837 4.19841C27.5561 4.60962 23.3202 8.21033 21.9504 9.41578C21.003 10.2495 19.8207 11.5922 19.3771 12.0552C18.8491 12.6063 17.7454 14.0126 17.6707 14.115C17.596 14.2175 16.0052 16.2714 16.0052 16.2714C15.4663 16.898 15.0821 17.6128 14.5817 18.2561C14.2451 18.6887 13.9066 19.1117 13.7601 19.6504C13.5812 20.3082 13.4037 21.4182 13.344 21.6559C13.2724 21.941 13.1611 22.4103 12.9988 23.7374C12.9667 24.0002 12.8087 25.9418 12.6702 27.0343C12.6141 27.4767 12.5415 28.5075 13.2296 28.1054C14.0584 27.621 16.7761 24.0466 17.2944 23.2695" stroke="#2961B6" stroke-width="1.58454" stroke-linecap="round" stroke-linejoin="round"/>
</svg>
