<svg width="113" height="37" viewBox="0 0 113 37" fill="none" xmlns="http://www.w3.org/2000/svg">
<mask id="path-1-outside-1_472_3448" maskUnits="userSpaceOnUse" x="21.0181" y="2.5061" width="92" height="34" fill="black">
<rect fill="white" x="21.0181" y="2.5061" width="92" height="34"/>
<path d="M36.6503 26.9796C36.6503 27.5003 36.3949 27.7606 35.8841 27.7606H34.4548C34.0716 27.7606 33.8408 27.6869 33.7622 27.5396C33.6836 27.3824 33.6394 27.2449 33.6296 27.127C33.6197 26.9993 33.6001 26.847 33.5706 26.6702C33.5117 26.1888 33.4282 25.6682 33.3201 25.1082C32.5539 26.513 31.3505 27.4413 29.71 27.8932C29.1304 28.0504 28.4918 28.129 27.7943 28.129C27.0969 28.129 26.3994 28.0111 25.7019 27.7753C25.0044 27.5494 24.3856 27.2105 23.8453 26.7586C22.6271 25.7369 22.0181 24.396 22.0181 22.7358C22.0181 20.9184 22.6861 19.5284 24.0221 18.5657C25.1223 17.7896 26.5369 17.4016 28.2659 17.4016C29.9948 17.4016 31.4586 17.9075 32.657 18.9193C32.6865 18.5853 32.7012 18.1678 32.7012 17.6668C32.7012 17.1658 32.603 16.6648 32.4065 16.1638C32.2101 15.6628 31.9301 15.2453 31.5666 14.9113C30.82 14.2531 29.7787 13.924 28.4427 13.924C27.2442 13.924 26.0261 14.2531 24.7883 14.9113C24.5526 15.039 24.3463 15.1029 24.1694 15.1029C23.9042 15.1029 23.6488 14.8425 23.4032 14.3219C23.138 13.7914 23.0053 13.4083 23.0053 13.1725C23.0053 12.7403 23.3295 12.3228 23.9779 11.92C25.2157 11.1538 26.8709 10.7707 28.9437 10.7707C30.8298 10.7707 32.3918 11.2864 33.6296 12.3179C35.0933 13.5557 35.8251 15.3043 35.8251 17.5637C35.8251 18.5657 35.6631 19.828 35.3389 21.3507C36.1739 23.728 36.611 25.6043 36.6503 26.9796ZM26.7776 20.7318C26.3748 21.0265 26.085 21.3212 25.9082 21.6159C25.7412 21.9106 25.6577 22.2594 25.6577 22.6621C25.6577 23.0551 25.7265 23.4087 25.864 23.7231C26.0114 24.0276 26.2127 24.283 26.4682 24.4893C27.0085 24.9117 27.6126 25.1229 28.2806 25.1229C28.9584 25.1229 29.5135 25.0444 29.9457 24.8872C30.378 24.73 30.7513 24.5286 31.0656 24.283C31.7434 23.7526 32.0824 23.1926 32.0824 22.6032C32.0234 21.8664 31.6157 21.2868 30.8593 20.8644C30.1815 20.4715 29.3809 20.275 28.4574 20.275C27.7403 20.275 27.1804 20.4273 26.7776 20.7318Z"/>
<path d="M45.521 25.1082C47.4072 25.1082 48.3502 24.4746 48.3502 23.2073C48.3502 22.5099 47.8149 21.9205 46.7441 21.4391C46.2922 21.2328 45.7961 21.0412 45.2558 20.8644C44.7253 20.6876 44.2145 20.4764 43.7233 20.2308C43.2321 19.9852 42.7704 19.72 42.3382 19.4351C41.9158 19.1404 41.5474 18.8064 41.233 18.4331C40.5847 17.6472 40.2605 16.6501 40.2605 15.4418C40.2605 13.9682 40.8745 12.7992 42.1024 11.9348C43.1929 11.1587 44.5338 10.7707 46.1252 10.7707C47.8345 10.7707 49.2638 11.1047 50.4132 11.7727C50.8061 12.0084 51.0026 12.2786 51.0026 12.5831C51.0026 13.0154 50.8847 13.4918 50.649 14.0125C50.423 14.5233 50.1529 14.7787 49.8385 14.7787C49.534 14.7787 49.254 14.7148 48.9986 14.5871C48.753 14.4594 48.5271 14.3514 48.3208 14.263C48.1243 14.1647 47.9131 14.0861 47.6872 14.0272C47.196 13.8798 46.7392 13.8062 46.3168 13.8062C45.9042 13.8062 45.5702 13.8356 45.3148 13.8946C45.0593 13.9535 44.8285 14.0468 44.6222 14.1745C44.1212 14.4791 43.8707 14.8524 43.8707 15.2944C43.8707 15.7365 43.9689 16.0754 44.1654 16.3112C44.3717 16.5469 44.6517 16.7631 45.0053 16.9595C45.359 17.156 45.7814 17.3525 46.2726 17.549L47.864 18.212C49.1509 18.772 50.0203 19.2779 50.4721 19.7298C51.3563 20.6336 51.7983 21.6798 51.7983 22.8684C51.7983 24.3616 51.2875 25.5896 50.2658 26.5523C49.1361 27.6034 47.53 28.129 45.4474 28.129C43.3353 28.129 41.7488 27.7213 40.6878 26.9059C40.1672 26.513 39.9069 26.1593 39.9069 25.845C39.9069 25.5306 39.9609 25.2507 40.0689 25.0051C40.1868 24.7497 40.3342 24.4549 40.511 24.1209C40.6977 23.7771 40.9432 23.6052 41.2478 23.6052C41.5621 23.6052 41.8912 23.7476 42.2351 24.0325C42.5887 24.3076 43.0701 24.5581 43.6791 24.784C44.2882 25.0002 44.9022 25.1082 45.521 25.1082Z"/>
<path d="M59.6818 25.2114C59.78 26.1937 59.8291 27.4217 59.8291 28.8952V34.9809C59.8291 35.7079 59.5393 36.0714 58.9597 36.0714H57.1325C56.5137 36.0714 56.2042 35.6882 56.2042 34.922V18.6099C56.2042 15.8495 56.0569 13.8356 55.7622 12.5684C55.7327 12.4407 55.7179 12.2638 55.7179 12.0379C55.7179 11.812 55.8064 11.6057 55.9832 11.419C56.1698 11.2324 56.4056 11.139 56.6905 11.139H57.5893C58.1296 11.139 58.5128 11.3748 58.7387 11.8463C59.0039 12.3965 59.2053 13.1087 59.3429 13.983C60.0305 12.7845 60.9687 11.9102 62.1573 11.3601C63.0022 10.9671 63.96 10.7707 65.0307 10.7707C66.1113 10.7707 67.074 10.9819 67.9189 11.4043C68.7637 11.8169 69.4661 12.3866 70.026 13.1136C71.1361 14.5577 71.6911 16.4929 71.6911 18.9193C71.6911 21.4538 71.0673 23.5954 69.8197 25.344C68.5034 27.2006 66.7793 28.129 64.6476 28.129C62.4275 28.129 60.7722 27.1564 59.6818 25.2114ZM59.4902 19.9803C59.4902 21.3949 59.9617 22.613 60.9048 23.6347C61.7988 24.5974 62.8106 25.0787 63.9403 25.0787C65.3647 25.0787 66.4208 24.3862 67.1084 23.0011C67.6585 21.9008 67.9336 20.5108 67.9336 18.8309C67.9336 17.4753 67.6094 16.3259 66.9611 15.3828C66.2636 14.3612 65.3353 13.8504 64.1761 13.8504C62.8695 13.8504 61.7546 14.3907 60.8311 15.4713C59.9372 16.5322 59.4902 17.7651 59.4902 19.1698V19.9803Z"/>
<path d="M77.9242 8.29511C77.2562 8.29511 76.6864 8.06426 76.2149 7.60255C75.7434 7.15066 75.5076 6.58089 75.5076 5.89324C75.5076 5.22523 75.7434 4.65547 76.2149 4.18393C76.6668 3.73205 77.2366 3.5061 77.9242 3.5061C78.9753 3.5061 79.7121 3.98746 80.1345 4.95017C80.2622 5.23506 80.3261 5.54941 80.3261 5.89324C80.3261 6.58089 80.0903 7.15066 79.6188 7.60255C79.1473 8.06426 78.5824 8.29511 77.9242 8.29511ZM79.6483 23.7084C79.6483 24.4058 79.8791 24.7546 80.3408 24.7546C80.498 24.7546 80.6748 24.7104 80.8713 24.6219C81.2544 24.4549 81.5147 24.3714 81.6523 24.3714C81.8586 24.3714 82.0256 24.5139 82.1533 24.7988L82.6101 25.8302C82.6887 25.9973 82.728 26.1544 82.728 26.3018C82.728 26.7242 82.3645 27.1171 81.6375 27.4806C80.9499 27.8343 80.2671 28.0111 79.5893 28.0111C78.9213 28.0111 78.3859 27.9374 77.9832 27.7901C77.5804 27.6427 77.2366 27.3971 76.9517 27.0533C76.3819 26.346 76.097 25.1966 76.097 23.6052V12.1116C76.097 11.8365 76.1756 11.6057 76.3328 11.419C76.49 11.2324 76.6766 11.139 76.8927 11.139H78.8673C79.0932 11.139 79.2799 11.2324 79.4272 11.419C79.5746 11.6057 79.6483 11.8365 79.6483 12.1116V23.7084Z"/>
<path d="M85.8371 12.2C85.8371 11.4927 86.1466 11.139 86.7655 11.139H87.5612C88.1015 11.139 88.4846 11.3748 88.7105 11.8463C89.0347 12.534 89.2705 13.482 89.4178 14.6903C89.4178 14.7099 89.4227 14.7198 89.4326 14.7198C89.4522 14.7198 89.4866 14.5527 89.5357 14.2187C89.5848 13.8847 89.7273 13.4771 89.963 12.9957C90.1988 12.5045 90.4886 12.0919 90.8324 11.7579C91.5299 11.0998 92.3846 10.7707 93.3964 10.7707C94.5261 10.7707 95.312 10.9573 95.7541 11.3306C95.9604 11.4976 96.0439 11.7285 96.0046 12.0232L95.7688 13.8798C95.7099 14.3808 95.4544 14.6313 95.0026 14.6313C94.7864 14.6313 94.5212 14.5871 94.2068 14.4987C93.5978 14.3415 93.1164 14.263 92.7628 14.263C92.4091 14.263 92.0358 14.4201 91.6429 14.7345C91.2499 15.039 90.911 15.4221 90.6261 15.8838C90.0465 16.8466 89.7567 17.8731 89.7567 18.9635V26.7881C89.7567 27.0631 89.6782 27.294 89.521 27.4806C89.3638 27.6673 89.1379 27.7606 88.8432 27.7606H87.1339C86.8195 27.7606 86.5788 27.6673 86.4118 27.4806C86.2546 27.294 86.176 27.0631 86.176 26.7881V16.6354C86.176 14.9064 86.1171 13.7669 85.9992 13.2167C85.8912 12.6568 85.8371 12.3179 85.8371 12.2Z"/>
<path d="M101.265 20.2603L101.25 20.5402C101.25 21.8861 101.678 22.9667 102.532 23.782C103.426 24.6465 104.64 25.0787 106.172 25.0787C107.567 25.0787 108.864 24.6612 110.062 23.8262C110.288 23.6691 110.489 23.5905 110.666 23.5905C111.03 23.5905 111.305 23.7722 111.491 24.1357L111.889 24.9609C111.978 25.1573 112.022 25.3685 112.022 25.5945C112.022 25.8204 111.919 26.0562 111.713 26.3018C111.516 26.5375 111.256 26.7537 110.932 26.9501C110.607 27.1466 110.229 27.3185 109.797 27.4659C109.374 27.6132 108.937 27.736 108.485 27.8343C107.582 28.0307 106.639 28.129 105.656 28.129C104.674 28.129 103.682 27.9423 102.68 27.569C101.688 27.1957 100.828 26.6505 100.101 25.9334C98.5391 24.4107 97.7581 22.3527 97.7581 19.7593C97.7581 15.2109 99.3593 12.3817 102.562 11.2717C103.564 10.9278 104.59 10.7559 105.642 10.7559C106.702 10.7559 107.601 10.8689 108.338 11.0948C109.085 11.3208 109.728 11.6548 110.268 12.0968C111.408 13.0301 111.978 14.3317 111.978 16.0017C111.978 17.6423 111.31 18.8948 109.974 19.7593C108.805 20.5157 107.262 20.8939 105.347 20.8939C104.168 20.8939 102.807 20.6827 101.265 20.2603ZM108.515 15.9575C108.515 14.5528 107.572 13.8504 105.686 13.8504C103.888 13.8504 102.631 14.5085 101.913 15.8249C101.658 16.2866 101.491 16.8564 101.412 17.5342C102.257 17.9566 103.333 18.1678 104.64 18.1678C107.223 18.1678 108.515 17.4311 108.515 15.9575Z"/>
</mask>
<path d="M36.6503 26.9796C36.6503 27.5003 36.3949 27.7606 35.8841 27.7606H34.4548C34.0716 27.7606 33.8408 27.6869 33.7622 27.5396C33.6836 27.3824 33.6394 27.2449 33.6296 27.127C33.6197 26.9993 33.6001 26.847 33.5706 26.6702C33.5117 26.1888 33.4282 25.6682 33.3201 25.1082C32.5539 26.513 31.3505 27.4413 29.71 27.8932C29.1304 28.0504 28.4918 28.129 27.7943 28.129C27.0969 28.129 26.3994 28.0111 25.7019 27.7753C25.0044 27.5494 24.3856 27.2105 23.8453 26.7586C22.6271 25.7369 22.0181 24.396 22.0181 22.7358C22.0181 20.9184 22.6861 19.5284 24.0221 18.5657C25.1223 17.7896 26.5369 17.4016 28.2659 17.4016C29.9948 17.4016 31.4586 17.9075 32.657 18.9193C32.6865 18.5853 32.7012 18.1678 32.7012 17.6668C32.7012 17.1658 32.603 16.6648 32.4065 16.1638C32.2101 15.6628 31.9301 15.2453 31.5666 14.9113C30.82 14.2531 29.7787 13.924 28.4427 13.924C27.2442 13.924 26.0261 14.2531 24.7883 14.9113C24.5526 15.039 24.3463 15.1029 24.1694 15.1029C23.9042 15.1029 23.6488 14.8425 23.4032 14.3219C23.138 13.7914 23.0053 13.4083 23.0053 13.1725C23.0053 12.7403 23.3295 12.3228 23.9779 11.92C25.2157 11.1538 26.8709 10.7707 28.9437 10.7707C30.8298 10.7707 32.3918 11.2864 33.6296 12.3179C35.0933 13.5557 35.8251 15.3043 35.8251 17.5637C35.8251 18.5657 35.6631 19.828 35.3389 21.3507C36.1739 23.728 36.611 25.6043 36.6503 26.9796ZM26.7776 20.7318C26.3748 21.0265 26.085 21.3212 25.9082 21.6159C25.7412 21.9106 25.6577 22.2594 25.6577 22.6621C25.6577 23.0551 25.7265 23.4087 25.864 23.7231C26.0114 24.0276 26.2127 24.283 26.4682 24.4893C27.0085 24.9117 27.6126 25.1229 28.2806 25.1229C28.9584 25.1229 29.5135 25.0444 29.9457 24.8872C30.378 24.73 30.7513 24.5286 31.0656 24.283C31.7434 23.7526 32.0824 23.1926 32.0824 22.6032C32.0234 21.8664 31.6157 21.2868 30.8593 20.8644C30.1815 20.4715 29.3809 20.275 28.4574 20.275C27.7403 20.275 27.1804 20.4273 26.7776 20.7318Z" fill="#2961B6"/>
<path d="M45.521 25.1082C47.4072 25.1082 48.3502 24.4746 48.3502 23.2073C48.3502 22.5099 47.8149 21.9205 46.7441 21.4391C46.2922 21.2328 45.7961 21.0412 45.2558 20.8644C44.7253 20.6876 44.2145 20.4764 43.7233 20.2308C43.2321 19.9852 42.7704 19.72 42.3382 19.4351C41.9158 19.1404 41.5474 18.8064 41.233 18.4331C40.5847 17.6472 40.2605 16.6501 40.2605 15.4418C40.2605 13.9682 40.8745 12.7992 42.1024 11.9348C43.1929 11.1587 44.5338 10.7707 46.1252 10.7707C47.8345 10.7707 49.2638 11.1047 50.4132 11.7727C50.8061 12.0084 51.0026 12.2786 51.0026 12.5831C51.0026 13.0154 50.8847 13.4918 50.649 14.0125C50.423 14.5233 50.1529 14.7787 49.8385 14.7787C49.534 14.7787 49.254 14.7148 48.9986 14.5871C48.753 14.4594 48.5271 14.3514 48.3208 14.263C48.1243 14.1647 47.9131 14.0861 47.6872 14.0272C47.196 13.8798 46.7392 13.8062 46.3168 13.8062C45.9042 13.8062 45.5702 13.8356 45.3148 13.8946C45.0593 13.9535 44.8285 14.0468 44.6222 14.1745C44.1212 14.4791 43.8707 14.8524 43.8707 15.2944C43.8707 15.7365 43.9689 16.0754 44.1654 16.3112C44.3717 16.5469 44.6517 16.7631 45.0053 16.9595C45.359 17.156 45.7814 17.3525 46.2726 17.549L47.864 18.212C49.1509 18.772 50.0203 19.2779 50.4721 19.7298C51.3563 20.6336 51.7983 21.6798 51.7983 22.8684C51.7983 24.3616 51.2875 25.5896 50.2658 26.5523C49.1361 27.6034 47.53 28.129 45.4474 28.129C43.3353 28.129 41.7488 27.7213 40.6878 26.9059C40.1672 26.513 39.9069 26.1593 39.9069 25.845C39.9069 25.5306 39.9609 25.2507 40.0689 25.0051C40.1868 24.7497 40.3342 24.4549 40.511 24.1209C40.6977 23.7771 40.9432 23.6052 41.2478 23.6052C41.5621 23.6052 41.8912 23.7476 42.2351 24.0325C42.5887 24.3076 43.0701 24.5581 43.6791 24.784C44.2882 25.0002 44.9022 25.1082 45.521 25.1082Z" fill="#2961B6"/>
<path d="M59.6818 25.2114C59.78 26.1937 59.8291 27.4217 59.8291 28.8952V34.9809C59.8291 35.7079 59.5393 36.0714 58.9597 36.0714H57.1325C56.5137 36.0714 56.2042 35.6882 56.2042 34.922V18.6099C56.2042 15.8495 56.0569 13.8356 55.7622 12.5684C55.7327 12.4407 55.7179 12.2638 55.7179 12.0379C55.7179 11.812 55.8064 11.6057 55.9832 11.419C56.1698 11.2324 56.4056 11.139 56.6905 11.139H57.5893C58.1296 11.139 58.5128 11.3748 58.7387 11.8463C59.0039 12.3965 59.2053 13.1087 59.3429 13.983C60.0305 12.7845 60.9687 11.9102 62.1573 11.3601C63.0022 10.9671 63.96 10.7707 65.0307 10.7707C66.1113 10.7707 67.074 10.9819 67.9189 11.4043C68.7637 11.8169 69.4661 12.3866 70.026 13.1136C71.1361 14.5577 71.6911 16.4929 71.6911 18.9193C71.6911 21.4538 71.0673 23.5954 69.8197 25.344C68.5034 27.2006 66.7793 28.129 64.6476 28.129C62.4275 28.129 60.7722 27.1564 59.6818 25.2114ZM59.4902 19.9803C59.4902 21.3949 59.9617 22.613 60.9048 23.6347C61.7988 24.5974 62.8106 25.0787 63.9403 25.0787C65.3647 25.0787 66.4208 24.3862 67.1084 23.0011C67.6585 21.9008 67.9336 20.5108 67.9336 18.8309C67.9336 17.4753 67.6094 16.3259 66.9611 15.3828C66.2636 14.3612 65.3353 13.8504 64.1761 13.8504C62.8695 13.8504 61.7546 14.3907 60.8311 15.4713C59.9372 16.5322 59.4902 17.7651 59.4902 19.1698V19.9803Z" fill="#2961B6"/>
<path d="M77.9242 8.29511C77.2562 8.29511 76.6864 8.06426 76.2149 7.60255C75.7434 7.15066 75.5076 6.58089 75.5076 5.89324C75.5076 5.22523 75.7434 4.65547 76.2149 4.18393C76.6668 3.73205 77.2366 3.5061 77.9242 3.5061C78.9753 3.5061 79.7121 3.98746 80.1345 4.95017C80.2622 5.23506 80.3261 5.54941 80.3261 5.89324C80.3261 6.58089 80.0903 7.15066 79.6188 7.60255C79.1473 8.06426 78.5824 8.29511 77.9242 8.29511ZM79.6483 23.7084C79.6483 24.4058 79.8791 24.7546 80.3408 24.7546C80.498 24.7546 80.6748 24.7104 80.8713 24.6219C81.2544 24.4549 81.5147 24.3714 81.6523 24.3714C81.8586 24.3714 82.0256 24.5139 82.1533 24.7988L82.6101 25.8302C82.6887 25.9973 82.728 26.1544 82.728 26.3018C82.728 26.7242 82.3645 27.1171 81.6375 27.4806C80.9499 27.8343 80.2671 28.0111 79.5893 28.0111C78.9213 28.0111 78.3859 27.9374 77.9832 27.7901C77.5804 27.6427 77.2366 27.3971 76.9517 27.0533C76.3819 26.346 76.097 25.1966 76.097 23.6052V12.1116C76.097 11.8365 76.1756 11.6057 76.3328 11.419C76.49 11.2324 76.6766 11.139 76.8927 11.139H78.8673C79.0932 11.139 79.2799 11.2324 79.4272 11.419C79.5746 11.6057 79.6483 11.8365 79.6483 12.1116V23.7084Z" fill="#2961B6"/>
<path d="M85.8371 12.2C85.8371 11.4927 86.1466 11.139 86.7655 11.139H87.5612C88.1015 11.139 88.4846 11.3748 88.7105 11.8463C89.0347 12.534 89.2705 13.482 89.4178 14.6903C89.4178 14.7099 89.4227 14.7198 89.4326 14.7198C89.4522 14.7198 89.4866 14.5527 89.5357 14.2187C89.5848 13.8847 89.7273 13.4771 89.963 12.9957C90.1988 12.5045 90.4886 12.0919 90.8324 11.7579C91.5299 11.0998 92.3846 10.7707 93.3964 10.7707C94.5261 10.7707 95.312 10.9573 95.7541 11.3306C95.9604 11.4976 96.0439 11.7285 96.0046 12.0232L95.7688 13.8798C95.7099 14.3808 95.4544 14.6313 95.0026 14.6313C94.7864 14.6313 94.5212 14.5871 94.2068 14.4987C93.5978 14.3415 93.1164 14.263 92.7628 14.263C92.4091 14.263 92.0358 14.4201 91.6429 14.7345C91.2499 15.039 90.911 15.4221 90.6261 15.8838C90.0465 16.8466 89.7567 17.8731 89.7567 18.9635V26.7881C89.7567 27.0631 89.6782 27.294 89.521 27.4806C89.3638 27.6673 89.1379 27.7606 88.8432 27.7606H87.1339C86.8195 27.7606 86.5788 27.6673 86.4118 27.4806C86.2546 27.294 86.176 27.0631 86.176 26.7881V16.6354C86.176 14.9064 86.1171 13.7669 85.9992 13.2167C85.8912 12.6568 85.8371 12.3179 85.8371 12.2Z" fill="#2961B6"/>
<path d="M101.265 20.2603L101.25 20.5402C101.25 21.8861 101.678 22.9667 102.532 23.782C103.426 24.6465 104.64 25.0787 106.172 25.0787C107.567 25.0787 108.864 24.6612 110.062 23.8262C110.288 23.6691 110.489 23.5905 110.666 23.5905C111.03 23.5905 111.305 23.7722 111.491 24.1357L111.889 24.9609C111.978 25.1573 112.022 25.3685 112.022 25.5945C112.022 25.8204 111.919 26.0562 111.713 26.3018C111.516 26.5375 111.256 26.7537 110.932 26.9501C110.607 27.1466 110.229 27.3185 109.797 27.4659C109.374 27.6132 108.937 27.736 108.485 27.8343C107.582 28.0307 106.639 28.129 105.656 28.129C104.674 28.129 103.682 27.9423 102.68 27.569C101.688 27.1957 100.828 26.6505 100.101 25.9334C98.5391 24.4107 97.7581 22.3527 97.7581 19.7593C97.7581 15.2109 99.3593 12.3817 102.562 11.2717C103.564 10.9278 104.59 10.7559 105.642 10.7559C106.702 10.7559 107.601 10.8689 108.338 11.0948C109.085 11.3208 109.728 11.6548 110.268 12.0968C111.408 13.0301 111.978 14.3317 111.978 16.0017C111.978 17.6423 111.31 18.8948 109.974 19.7593C108.805 20.5157 107.262 20.8939 105.347 20.8939C104.168 20.8939 102.807 20.6827 101.265 20.2603ZM108.515 15.9575C108.515 14.5528 107.572 13.8504 105.686 13.8504C103.888 13.8504 102.631 14.5085 101.913 15.8249C101.658 16.2866 101.491 16.8564 101.412 17.5342C102.257 17.9566 103.333 18.1678 104.64 18.1678C107.223 18.1678 108.515 17.4311 108.515 15.9575Z" fill="#2961B6"/>
<path d="M36.6503 26.9796C36.6503 27.5003 36.3949 27.7606 35.8841 27.7606H34.4548C34.0716 27.7606 33.8408 27.6869 33.7622 27.5396C33.6836 27.3824 33.6394 27.2449 33.6296 27.127C33.6197 26.9993 33.6001 26.847 33.5706 26.6702C33.5117 26.1888 33.4282 25.6682 33.3201 25.1082C32.5539 26.513 31.3505 27.4413 29.71 27.8932C29.1304 28.0504 28.4918 28.129 27.7943 28.129C27.0969 28.129 26.3994 28.0111 25.7019 27.7753C25.0044 27.5494 24.3856 27.2105 23.8453 26.7586C22.6271 25.7369 22.0181 24.396 22.0181 22.7358C22.0181 20.9184 22.6861 19.5284 24.0221 18.5657C25.1223 17.7896 26.5369 17.4016 28.2659 17.4016C29.9948 17.4016 31.4586 17.9075 32.657 18.9193C32.6865 18.5853 32.7012 18.1678 32.7012 17.6668C32.7012 17.1658 32.603 16.6648 32.4065 16.1638C32.2101 15.6628 31.9301 15.2453 31.5666 14.9113C30.82 14.2531 29.7787 13.924 28.4427 13.924C27.2442 13.924 26.0261 14.2531 24.7883 14.9113C24.5526 15.039 24.3463 15.1029 24.1694 15.1029C23.9042 15.1029 23.6488 14.8425 23.4032 14.3219C23.138 13.7914 23.0053 13.4083 23.0053 13.1725C23.0053 12.7403 23.3295 12.3228 23.9779 11.92C25.2157 11.1538 26.8709 10.7707 28.9437 10.7707C30.8298 10.7707 32.3918 11.2864 33.6296 12.3179C35.0933 13.5557 35.8251 15.3043 35.8251 17.5637C35.8251 18.5657 35.6631 19.828 35.3389 21.3507C36.1739 23.728 36.611 25.6043 36.6503 26.9796ZM26.7776 20.7318C26.3748 21.0265 26.085 21.3212 25.9082 21.6159C25.7412 21.9106 25.6577 22.2594 25.6577 22.6621C25.6577 23.0551 25.7265 23.4087 25.864 23.7231C26.0114 24.0276 26.2127 24.283 26.4682 24.4893C27.0085 24.9117 27.6126 25.1229 28.2806 25.1229C28.9584 25.1229 29.5135 25.0444 29.9457 24.8872C30.378 24.73 30.7513 24.5286 31.0656 24.283C31.7434 23.7526 32.0824 23.1926 32.0824 22.6032C32.0234 21.8664 31.6157 21.2868 30.8593 20.8644C30.1815 20.4715 29.3809 20.275 28.4574 20.275C27.7403 20.275 27.1804 20.4273 26.7776 20.7318Z" stroke="#2961B6" stroke-width="0.543869" mask="url(#path-1-outside-1_472_3448)"/>
<path d="M45.521 25.1082C47.4072 25.1082 48.3502 24.4746 48.3502 23.2073C48.3502 22.5099 47.8149 21.9205 46.7441 21.4391C46.2922 21.2328 45.7961 21.0412 45.2558 20.8644C44.7253 20.6876 44.2145 20.4764 43.7233 20.2308C43.2321 19.9852 42.7704 19.72 42.3382 19.4351C41.9158 19.1404 41.5474 18.8064 41.233 18.4331C40.5847 17.6472 40.2605 16.6501 40.2605 15.4418C40.2605 13.9682 40.8745 12.7992 42.1024 11.9348C43.1929 11.1587 44.5338 10.7707 46.1252 10.7707C47.8345 10.7707 49.2638 11.1047 50.4132 11.7727C50.8061 12.0084 51.0026 12.2786 51.0026 12.5831C51.0026 13.0154 50.8847 13.4918 50.649 14.0125C50.423 14.5233 50.1529 14.7787 49.8385 14.7787C49.534 14.7787 49.254 14.7148 48.9986 14.5871C48.753 14.4594 48.5271 14.3514 48.3208 14.263C48.1243 14.1647 47.9131 14.0861 47.6872 14.0272C47.196 13.8798 46.7392 13.8062 46.3168 13.8062C45.9042 13.8062 45.5702 13.8356 45.3148 13.8946C45.0593 13.9535 44.8285 14.0468 44.6222 14.1745C44.1212 14.4791 43.8707 14.8524 43.8707 15.2944C43.8707 15.7365 43.9689 16.0754 44.1654 16.3112C44.3717 16.5469 44.6517 16.7631 45.0053 16.9595C45.359 17.156 45.7814 17.3525 46.2726 17.549L47.864 18.212C49.1509 18.772 50.0203 19.2779 50.4721 19.7298C51.3563 20.6336 51.7983 21.6798 51.7983 22.8684C51.7983 24.3616 51.2875 25.5896 50.2658 26.5523C49.1361 27.6034 47.53 28.129 45.4474 28.129C43.3353 28.129 41.7488 27.7213 40.6878 26.9059C40.1672 26.513 39.9069 26.1593 39.9069 25.845C39.9069 25.5306 39.9609 25.2507 40.0689 25.0051C40.1868 24.7497 40.3342 24.4549 40.511 24.1209C40.6977 23.7771 40.9432 23.6052 41.2478 23.6052C41.5621 23.6052 41.8912 23.7476 42.2351 24.0325C42.5887 24.3076 43.0701 24.5581 43.6791 24.784C44.2882 25.0002 44.9022 25.1082 45.521 25.1082Z" stroke="#2961B6" stroke-width="0.543869" mask="url(#path-1-outside-1_472_3448)"/>
<path d="M59.6818 25.2114C59.78 26.1937 59.8291 27.4217 59.8291 28.8952V34.9809C59.8291 35.7079 59.5393 36.0714 58.9597 36.0714H57.1325C56.5137 36.0714 56.2042 35.6882 56.2042 34.922V18.6099C56.2042 15.8495 56.0569 13.8356 55.7622 12.5684C55.7327 12.4407 55.7179 12.2638 55.7179 12.0379C55.7179 11.812 55.8064 11.6057 55.9832 11.419C56.1698 11.2324 56.4056 11.139 56.6905 11.139H57.5893C58.1296 11.139 58.5128 11.3748 58.7387 11.8463C59.0039 12.3965 59.2053 13.1087 59.3429 13.983C60.0305 12.7845 60.9687 11.9102 62.1573 11.3601C63.0022 10.9671 63.96 10.7707 65.0307 10.7707C66.1113 10.7707 67.074 10.9819 67.9189 11.4043C68.7637 11.8169 69.4661 12.3866 70.026 13.1136C71.1361 14.5577 71.6911 16.4929 71.6911 18.9193C71.6911 21.4538 71.0673 23.5954 69.8197 25.344C68.5034 27.2006 66.7793 28.129 64.6476 28.129C62.4275 28.129 60.7722 27.1564 59.6818 25.2114ZM59.4902 19.9803C59.4902 21.3949 59.9617 22.613 60.9048 23.6347C61.7988 24.5974 62.8106 25.0787 63.9403 25.0787C65.3647 25.0787 66.4208 24.3862 67.1084 23.0011C67.6585 21.9008 67.9336 20.5108 67.9336 18.8309C67.9336 17.4753 67.6094 16.3259 66.9611 15.3828C66.2636 14.3612 65.3353 13.8504 64.1761 13.8504C62.8695 13.8504 61.7546 14.3907 60.8311 15.4713C59.9372 16.5322 59.4902 17.7651 59.4902 19.1698V19.9803Z" stroke="#2961B6" stroke-width="0.543869" mask="url(#path-1-outside-1_472_3448)"/>
<path d="M77.9242 8.29511C77.2562 8.29511 76.6864 8.06426 76.2149 7.60255C75.7434 7.15066 75.5076 6.58089 75.5076 5.89324C75.5076 5.22523 75.7434 4.65547 76.2149 4.18393C76.6668 3.73205 77.2366 3.5061 77.9242 3.5061C78.9753 3.5061 79.7121 3.98746 80.1345 4.95017C80.2622 5.23506 80.3261 5.54941 80.3261 5.89324C80.3261 6.58089 80.0903 7.15066 79.6188 7.60255C79.1473 8.06426 78.5824 8.29511 77.9242 8.29511ZM79.6483 23.7084C79.6483 24.4058 79.8791 24.7546 80.3408 24.7546C80.498 24.7546 80.6748 24.7104 80.8713 24.6219C81.2544 24.4549 81.5147 24.3714 81.6523 24.3714C81.8586 24.3714 82.0256 24.5139 82.1533 24.7988L82.6101 25.8302C82.6887 25.9973 82.728 26.1544 82.728 26.3018C82.728 26.7242 82.3645 27.1171 81.6375 27.4806C80.9499 27.8343 80.2671 28.0111 79.5893 28.0111C78.9213 28.0111 78.3859 27.9374 77.9832 27.7901C77.5804 27.6427 77.2366 27.3971 76.9517 27.0533C76.3819 26.346 76.097 25.1966 76.097 23.6052V12.1116C76.097 11.8365 76.1756 11.6057 76.3328 11.419C76.49 11.2324 76.6766 11.139 76.8927 11.139H78.8673C79.0932 11.139 79.2799 11.2324 79.4272 11.419C79.5746 11.6057 79.6483 11.8365 79.6483 12.1116V23.7084Z" stroke="#2961B6" stroke-width="0.543869" mask="url(#path-1-outside-1_472_3448)"/>
<path d="M85.8371 12.2C85.8371 11.4927 86.1466 11.139 86.7655 11.139H87.5612C88.1015 11.139 88.4846 11.3748 88.7105 11.8463C89.0347 12.534 89.2705 13.482 89.4178 14.6903C89.4178 14.7099 89.4227 14.7198 89.4326 14.7198C89.4522 14.7198 89.4866 14.5527 89.5357 14.2187C89.5848 13.8847 89.7273 13.4771 89.963 12.9957C90.1988 12.5045 90.4886 12.0919 90.8324 11.7579C91.5299 11.0998 92.3846 10.7707 93.3964 10.7707C94.5261 10.7707 95.312 10.9573 95.7541 11.3306C95.9604 11.4976 96.0439 11.7285 96.0046 12.0232L95.7688 13.8798C95.7099 14.3808 95.4544 14.6313 95.0026 14.6313C94.7864 14.6313 94.5212 14.5871 94.2068 14.4987C93.5978 14.3415 93.1164 14.263 92.7628 14.263C92.4091 14.263 92.0358 14.4201 91.6429 14.7345C91.2499 15.039 90.911 15.4221 90.6261 15.8838C90.0465 16.8466 89.7567 17.8731 89.7567 18.9635V26.7881C89.7567 27.0631 89.6782 27.294 89.521 27.4806C89.3638 27.6673 89.1379 27.7606 88.8432 27.7606H87.1339C86.8195 27.7606 86.5788 27.6673 86.4118 27.4806C86.2546 27.294 86.176 27.0631 86.176 26.7881V16.6354C86.176 14.9064 86.1171 13.7669 85.9992 13.2167C85.8912 12.6568 85.8371 12.3179 85.8371 12.2Z" stroke="#2961B6" stroke-width="0.543869" mask="url(#path-1-outside-1_472_3448)"/>
<path d="M101.265 20.2603L101.25 20.5402C101.25 21.8861 101.678 22.9667 102.532 23.782C103.426 24.6465 104.64 25.0787 106.172 25.0787C107.567 25.0787 108.864 24.6612 110.062 23.8262C110.288 23.6691 110.489 23.5905 110.666 23.5905C111.03 23.5905 111.305 23.7722 111.491 24.1357L111.889 24.9609C111.978 25.1573 112.022 25.3685 112.022 25.5945C112.022 25.8204 111.919 26.0562 111.713 26.3018C111.516 26.5375 111.256 26.7537 110.932 26.9501C110.607 27.1466 110.229 27.3185 109.797 27.4659C109.374 27.6132 108.937 27.736 108.485 27.8343C107.582 28.0307 106.639 28.129 105.656 28.129C104.674 28.129 103.682 27.9423 102.68 27.569C101.688 27.1957 100.828 26.6505 100.101 25.9334C98.5391 24.4107 97.7581 22.3527 97.7581 19.7593C97.7581 15.2109 99.3593 12.3817 102.562 11.2717C103.564 10.9278 104.59 10.7559 105.642 10.7559C106.702 10.7559 107.601 10.8689 108.338 11.0948C109.085 11.3208 109.728 11.6548 110.268 12.0968C111.408 13.0301 111.978 14.3317 111.978 16.0017C111.978 17.6423 111.31 18.8948 109.974 19.7593C108.805 20.5157 107.262 20.8939 105.347 20.8939C104.168 20.8939 102.807 20.6827 101.265 20.2603ZM108.515 15.9575C108.515 14.5528 107.572 13.8504 105.686 13.8504C103.888 13.8504 102.631 14.5085 101.913 15.8249C101.658 16.2866 101.491 16.8564 101.412 17.5342C102.257 17.9566 103.333 18.1678 104.64 18.1678C107.223 18.1678 108.515 17.4311 108.515 15.9575Z" stroke="#2961B6" stroke-width="0.543869" mask="url(#path-1-outside-1_472_3448)"/>
<path fill-rule="evenodd" clip-rule="evenodd" d="M20.1094 2.03632C20.0164 2.01337 19.8664 2.01068 19.6784 2.04425C19.1083 2.14608 18.5814 2.25814 18.0626 2.43228C17.7619 2.53321 17.3167 2.67326 16.9507 2.78688C16.7668 2.84396 16.6015 2.89483 16.4821 2.93143C16.4224 2.94973 16.3741 2.96448 16.3408 2.97466L16.3023 2.98638L16.2925 2.98935L16.29 2.99013L16.2897 2.99023L16.2802 2.9932L16.0944 3.05133C15.9663 3.09135 15.7809 3.1492 15.5514 3.22061C15.0925 3.3634 14.4573 3.56041 13.7522 3.77724C12.3438 4.21038 10.6506 4.72445 9.52757 5.04303C7.95371 5.48949 6.33044 5.78299 4.74246 6.0701C4.23243 6.16232 3.72603 6.25388 3.22609 6.34964C3.12628 6.36875 3.02578 6.38601 2.92326 6.40363C2.73927 6.43523 2.54877 6.46796 2.34412 6.51451C2.02157 6.58788 1.80601 6.66832 1.70525 6.74161C1.61656 6.80613 1.56527 6.85103 1.5354 6.88287C1.53192 6.88658 1.52893 6.8899 1.52639 6.89284C1.52891 6.9045 1.53332 6.92101 1.54095 6.94322C1.65921 7.06029 1.77264 7.16398 1.89799 7.27855C2.04941 7.41693 2.21581 7.56903 2.40853 7.76427C2.55753 7.91523 2.7118 8.0691 2.87319 8.23009C3.29057 8.64644 3.75564 9.11035 4.30079 9.69433C4.42249 9.8247 4.53577 9.9366 4.65463 10.054C4.71122 10.1099 4.76907 10.1671 4.8297 10.2281C5.0101 10.4095 5.1972 10.608 5.37665 10.8494C5.74343 11.3428 6.04415 11.9689 6.28012 12.9571C6.6158 14.3628 7.37752 17.2845 7.77001 18.79C7.89916 19.2854 7.98833 19.6274 8.00919 19.7117C8.08462 20.0162 7.89888 20.3243 7.59432 20.3997C7.28976 20.4751 6.98171 20.2894 6.90628 19.9848C6.89007 19.9194 6.81235 19.6212 6.69696 19.1787C6.31379 17.7089 5.51531 14.6463 5.17496 13.221C4.96645 12.3478 4.72065 11.8715 4.46478 11.5273C4.3329 11.3499 4.18964 11.1958 4.0239 11.0291C3.97748 10.9824 3.92741 10.9329 3.8749 10.881C3.74846 10.7561 3.6079 10.6172 3.47022 10.4697C2.9398 9.90148 2.49685 9.45965 2.08374 9.04758C1.91892 8.88318 1.75886 8.72352 1.59988 8.56246C1.42979 8.39014 1.28274 8.25552 1.13147 8.11727L1.12474 8.11112C0.97638 7.97554 0.821256 7.83377 0.65119 7.65974C0.604464 7.61192 0.566545 7.55623 0.539178 7.49523C0.409548 7.20629 0.321491 6.86777 0.448519 6.51504C0.56506 6.19143 0.824298 5.97739 1.03686 5.82277C1.34195 5.60083 1.76151 5.48178 2.0921 5.40658C2.32273 5.35411 2.57824 5.30992 2.7799 5.27504C2.87069 5.25934 2.95057 5.24552 3.01235 5.23369C3.53836 5.13294 4.06134 5.03834 4.58122 4.94431C6.15588 4.65949 7.70202 4.37983 9.21749 3.94993C10.3271 3.63516 12.0094 3.12449 13.4182 2.69121C14.1218 2.47483 14.7558 2.27821 15.2138 2.13568C15.4428 2.06442 15.6278 2.00669 15.7556 1.96679L15.9534 1.90492C15.9534 1.90491 15.9536 1.90486 16.1235 2.44697L15.9582 1.90344L16.0091 1.88792C16.042 1.87786 16.0898 1.86325 16.149 1.8451C16.2675 1.80878 16.4315 1.75832 16.6138 1.70174C16.98 1.58804 17.414 1.45145 17.701 1.3551C18.2986 1.15454 18.8894 1.03096 19.4787 0.925715C19.7538 0.876569 20.0777 0.858218 20.3815 0.933142C20.3716 0.930704 20.4476 0.94694 20.5282 0.974512C20.61 1.0025 20.7235 1.04985 20.8381 1.12965C20.9542 1.21045 21.0827 1.33261 21.1713 1.51065C21.2625 1.6937 21.2941 1.90108 21.265 2.11887C21.2632 2.13223 21.261 2.14551 21.2583 2.15871C21.2195 2.34628 21.0498 2.89357 20.8353 3.56253C20.6141 4.25253 20.3291 5.12097 20.0418 5.98736C19.4726 7.70421 18.8893 9.4295 18.7764 9.74298L18.7746 9.74854C18.7737 9.7514 18.7727 9.75478 18.7715 9.75872C18.7706 9.76183 18.7695 9.76528 18.7684 9.76909C18.7632 9.78649 18.7567 9.80902 18.7489 9.83696C18.7333 9.89284 18.7137 9.96569 18.6905 10.054C18.6441 10.2305 18.5849 10.4628 18.5171 10.733C18.3816 11.2731 18.2134 11.9593 18.0485 12.6415C17.8837 13.3236 17.7225 14.0004 17.6011 14.5217C17.5404 14.7825 17.4899 15.003 17.454 15.1652C17.4292 15.2777 17.4153 15.3453 17.4084 15.3787C17.4039 15.4005 17.4024 15.4077 17.4029 15.4031C17.3998 15.4344 17.394 15.4654 17.3858 15.4958C17.3283 15.707 17.2819 15.9199 17.2319 16.1493C17.2249 16.1813 17.2179 16.2136 17.2107 16.2463C17.1537 16.5068 17.0904 16.7863 17.0042 17.0666C16.9165 17.352 16.8957 17.4105 16.8173 17.6316C16.8043 17.6682 16.7898 17.7093 16.773 17.7566C16.7518 17.8165 16.675 18.022 16.5218 18.2511C16.3707 18.4769 16.1194 18.7647 15.7356 18.9313C15.7123 18.9414 15.6884 18.9499 15.664 18.9568C14.9661 19.1543 14.4104 19.0446 13.961 18.7828C13.6404 18.5961 13.37 18.319 13.1879 18.1325C13.1457 18.0893 13.1083 18.051 13.0761 18.0198C13.0229 17.9682 12.7668 17.7158 12.4207 17.375C12.3542 17.3094 12.2844 17.2406 12.212 17.1693C11.9502 17.5211 11.6067 17.9677 11.2567 18.4017C10.9603 18.7692 10.6526 19.1359 10.3794 19.4349C10.243 19.5842 10.1108 19.7215 9.98987 19.8354C9.87606 19.9425 9.74596 20.0543 9.6167 20.1298C9.43234 20.2375 9.11866 20.3552 8.79859 20.1863C8.51047 20.0342 8.42159 19.7499 8.39064 19.6162C8.32303 19.3243 8.36126 18.9764 8.3801 18.8279C8.4266 18.4612 8.47706 17.946 8.51913 17.4932C8.53348 17.3389 8.54706 17.1894 8.55917 17.0559C8.58148 16.8101 8.59884 16.6189 8.6069 16.5531C8.72127 15.6184 8.80196 15.2704 8.85836 15.0459C8.86791 15.0078 8.88602 14.9108 8.91348 14.7636C8.92461 14.7039 8.93729 14.636 8.95155 14.5604C8.97756 14.4226 9.00743 14.2679 9.03956 14.1147C8.77272 13.8668 8.17402 13.289 7.59604 12.7312L7.51479 12.6528C7.16731 12.3175 6.82868 11.9908 6.56958 11.7428C6.43988 11.6187 6.3314 11.5156 6.25224 11.4414C6.21245 11.4041 6.1818 11.3758 6.16033 11.3563C6.15152 11.3484 6.14574 11.3433 6.14247 11.3404C6.09002 11.2995 6.0451 11.2496 6.00983 11.193C6.00741 11.1891 6.00337 11.1831 5.99804 11.1752C5.95175 11.1063 5.80767 10.8921 5.76871 10.6469C5.71307 10.2967 5.8521 9.97912 6.10635 9.70651C6.37417 9.41934 6.64422 9.24225 6.96023 9.03503C6.98276 9.02025 7.00552 9.00533 7.02854 8.9902C7.14922 8.91085 7.28584 8.81982 7.4282 8.72497C7.77679 8.49273 8.15975 8.23758 8.42713 8.07493C9.14833 7.63624 9.87669 7.25428 10.6083 6.88063C11.079 6.64025 11.5798 6.37348 12.035 6.11611C12.7052 5.73712 13.2198 5.41114 13.7941 5.04727C14.2112 4.78305 14.6598 4.49886 15.2225 4.15987L15.2234 4.15923L15.2311 4.15401C15.6537 3.86598 16.3264 3.40756 16.9648 3.0561C17.2842 2.88032 17.6179 2.71826 17.9219 2.61966C18.0739 2.57035 18.238 2.53039 18.4011 2.519C18.5598 2.50791 18.7649 2.5205 18.9605 2.62461C19.1354 2.71776 19.2636 2.87924 19.3086 3.07963C19.3472 3.25144 19.3142 3.40384 19.2834 3.50054C19.2225 3.69204 19.0999 3.87856 18.9848 4.03227C18.7424 4.35631 18.3698 4.74577 17.975 5.12958C17.3106 5.77554 16.5153 6.47004 16.0003 6.91972C15.8981 7.00899 15.8069 7.08861 15.73 7.15629C15.2551 7.57414 14.6985 8.17784 14.3085 8.60091C14.1806 8.73965 14.0706 8.85897 13.9873 8.94594C13.8235 9.11685 13.5556 9.43719 13.3115 9.73825C13.192 9.88571 13.082 10.0237 12.9989 10.129C12.9573 10.1816 12.9227 10.2258 12.8973 10.2585C12.8845 10.2749 12.8743 10.2881 12.8668 10.2979C12.8614 10.3049 12.8586 10.3087 12.8575 10.3101C12.8569 10.3109 12.8568 10.311 12.8572 10.3105C12.8243 10.3555 12.5284 10.7384 12.2531 11.0944C12.1124 11.2763 11.9734 11.4559 11.8695 11.59L11.6971 11.8127L11.6969 11.8129C11.691 11.8206 11.6848 11.8281 11.6785 11.8355C11.5165 12.0238 11.3734 12.2305 11.2182 12.4623C11.1986 12.4916 11.1787 12.5214 11.1585 12.5516C11.0242 12.753 10.8767 12.9741 10.7128 13.1848C10.534 13.4145 10.4048 13.5831 10.3217 13.7495C10.4155 13.8367 10.5074 13.9213 10.605 14.0072C10.7311 14.1184 11.703 15.0736 12.5366 15.8942C12.7862 16.14 13.0257 16.376 13.2315 16.5787C13.57 16.9122 13.8171 17.1556 13.8671 17.2041C13.94 17.2747 14.004 17.3398 14.0631 17.3997C14.2309 17.57 14.3584 17.6994 14.533 17.8011C14.7081 17.9031 14.9354 17.9725 15.3128 17.8748C15.4124 17.8229 15.502 17.732 15.5773 17.6194C15.6579 17.4989 15.6974 17.3904 15.7018 17.3779C15.7192 17.3287 15.7341 17.2867 15.7472 17.2498C15.8224 17.0376 15.8375 16.9951 15.9182 16.7327C15.9893 16.5015 16.044 16.2625 16.1008 16.0033C16.1076 15.9721 16.1144 15.9406 16.1214 15.9088C16.1686 15.6919 16.2192 15.4598 16.2809 15.2288C16.2946 15.1477 16.3199 15.0316 16.3446 14.9198C16.3818 14.7516 16.4334 14.5264 16.4945 14.264C16.6168 13.7387 16.7788 13.0587 16.9441 12.3745C17.1094 11.6904 17.2785 11.0008 17.415 10.4566C17.547 9.93052 17.658 9.50085 17.7029 9.37078L17.7058 9.36252C17.8066 9.08395 18.3883 7.36408 18.9633 5.62979C19.2501 4.76483 19.5338 3.90046 19.7533 3.21568C19.9342 2.65152 20.0618 2.23837 20.1175 2.03825C20.1151 2.03769 20.1123 2.03702 20.1094 2.03632ZM10.0216 15.0198C9.99732 15.1494 9.97549 15.2624 9.96035 15.3227C9.9178 15.4921 9.84469 15.7924 9.73472 16.6911C9.72878 16.7397 9.71495 16.8922 9.69528 17.109C9.6826 17.2489 9.66748 17.4156 9.65049 17.5984C9.61871 17.9404 9.5812 18.3286 9.54351 18.6653C9.79387 18.3911 10.0841 18.0457 10.3723 17.6884C10.7642 17.2024 11.1402 16.7096 11.3943 16.3642C11.0813 16.0564 10.7714 15.7519 10.5106 15.4965C10.332 15.3217 10.177 15.1704 10.06 15.057C10.0466 15.044 10.0338 15.0317 10.0216 15.0198ZM9.46971 12.9575C9.57351 12.7974 9.68318 12.6571 9.77825 12.5354C9.79113 12.5189 9.80373 12.5028 9.81602 12.487C9.95253 12.3116 10.0751 12.128 10.2113 11.924C10.2319 11.8932 10.2528 11.8619 10.2741 11.83C10.4286 11.5993 10.6013 11.3471 10.8073 11.106L10.9711 10.8945C11.0749 10.7604 11.2138 10.5809 11.3543 10.3993C11.4949 10.2176 11.6369 10.0338 11.7469 9.89118C11.802 9.81982 11.8488 9.75899 11.8834 9.71394C11.9007 9.69137 11.9147 9.67311 11.925 9.65961C11.9327 9.64951 11.9368 9.64405 11.9385 9.64183C11.9394 9.64071 11.9396 9.64042 11.9393 9.64079C11.9986 9.55959 12.7774 8.56623 13.1669 8.1598C13.2284 8.09557 13.3191 7.99715 13.4304 7.87637C13.8171 7.45659 14.4527 6.76669 14.9794 6.30327C15.0608 6.23167 15.1555 6.14889 15.2606 6.05716C15.7775 5.60564 16.5431 4.93698 17.183 4.31489C17.2466 4.25308 17.3083 4.19234 17.3678 4.13289C16.8234 4.4443 16.2577 4.82939 15.8633 5.09816L15.8492 5.10777C15.8404 5.11377 15.8314 5.11952 15.8223 5.12502C15.3065 5.43552 14.8644 5.71512 14.4419 5.98231C13.8384 6.36397 13.2749 6.7203 12.5942 7.10518C12.1224 7.37195 11.6071 7.64638 11.1251 7.89253C10.3982 8.26378 9.701 8.62999 9.01762 9.04567C8.77123 9.19555 8.42417 9.4268 8.08493 9.65284C7.93634 9.75185 7.78925 9.84986 7.65277 9.93959L7.62863 9.95546C7.27122 10.1904 7.10966 10.2966 6.93729 10.4815C6.92982 10.4895 6.92333 10.4968 6.9177 10.5034C6.91935 10.506 6.92109 10.5088 6.92291 10.5116C6.9241 10.5135 6.92528 10.5154 6.92647 10.5172C6.95464 10.5428 6.98952 10.5751 7.0292 10.6123C7.11281 10.6907 7.22475 10.7971 7.35517 10.922C7.61633 11.1719 7.9568 11.5003 8.3038 11.8352L8.33488 11.8652C8.75102 12.2668 9.1673 12.6685 9.46971 12.9575ZM16.1235 2.44697L15.9582 1.90344L15.9534 1.90492L16.1235 2.44697ZM1.52329 6.86997C1.52341 6.87005 1.52355 6.87165 1.52336 6.87454C1.52308 6.87134 1.52317 6.86989 1.52329 6.86997Z" fill="#2961B6"/>
</svg>
