<svg width="150" height="150" viewBox="0 0 150 150" fill="none" xmlns="http://www.w3.org/2000/svg">
<mask id="mask0_505_1415" style="mask-type:alpha" maskUnits="userSpaceOnUse" x="0" y="0" width="150" height="150">
<rect width="150" height="150" fill="#D9D9D9"/>
</mask>
<g mask="url(#mask0_505_1415)">
<path d="M32.8219 136C32.2224 134.822 32.4095 131.182 32.8219 126.111C33.3374 119.773 42.8528 27.3883 68.2534 14.3157C88.5739 3.85761 108.069 58.3128 115.276 86.8476C119.334 98.9207 125.646 123.371 118.425 124.589C109.398 126.111 83.9976 121.637 55.4482 102.239C26.8987 82.8412 9.05533 71.2446 16.8225 56.4852C24.5896 41.7258 116.535 34.7679 125.142 34.9787C133.749 35.1895 145.295 40.8824 123.463 61.3347C105.997 77.6965 63.1453 111.336 43.9024 126.111" stroke="#2961B6" stroke-width="5" stroke-linecap="round"/>
</g>
</svg>
