<svg width="150" height="150" viewBox="0 0 150 150" fill="none" xmlns="http://www.w3.org/2000/svg">
<mask id="mask0_505_1402" style="mask-type:alpha" maskUnits="userSpaceOnUse" x="0" y="0" width="150" height="150">
<rect width="150" height="150" fill="#D9D9D9"/>
</mask>
<g mask="url(#mask0_505_1402)">
<path d="M51.4771 14.464L49.566 16.0757L49.5661 16.0759L51.4771 14.464ZM43.2562 19.2703L40.8071 18.7685L43.2562 19.2703ZM42.3865 50.4894L44.7486 49.6706L42.3865 50.4894ZM64.8877 72.2789L65.9376 70.01L64.8877 72.2789ZM104.648 89.738L103.495 91.9562L103.495 91.9562L104.648 89.738ZM121.433 123.416L121.076 120.942L121.433 123.416ZM88.7483 51.915L86.4868 50.8494L88.7483 51.915ZM96.4795 46.1327L96.6991 43.6424L96.5071 43.6255L96.3148 43.6382L96.4795 46.1327ZM116.106 39.5948L118.202 38.2316L117.764 37.5587L117.016 37.2664L116.106 39.5948ZM109.47 44.312L111.749 45.3407L109.47 44.312ZM104.044 60.3688L101.596 59.8585L101.596 59.8585L104.044 60.3688ZM42.0888 105.125L41.9278 102.63L42.0888 105.125ZM16.4591 119.155L18.6519 117.954L18.6519 117.954L16.4591 119.155ZM41.9084 141.242L40.3402 139.295L41.9084 141.242ZM23.1836 131.305L21.0436 132.598L23.1836 131.305ZM38.0855 130.179L40.2941 131.35C40.8411 130.319 40.6015 129.046 39.717 128.284C38.8325 127.523 37.5385 127.474 36.5997 128.168L38.0855 130.179ZM58.0751 126.797C63.1144 120.764 69.9929 109.945 75.1996 98.5426C77.8082 92.8299 80.0284 86.9034 81.3833 81.3002C82.7295 75.7323 83.2694 70.2907 82.3324 65.637L77.4308 66.6239C78.1628 70.2596 77.7898 74.8872 76.5233 80.1251C75.2654 85.3275 73.1731 90.9432 70.6513 96.4657C65.5974 107.534 58.9442 117.957 54.2377 123.592L58.0751 126.797ZM82.3324 65.637C80.5799 56.9326 75.5867 46.4293 70.0056 36.873C64.3986 27.2722 58.0509 18.38 53.3881 12.8521L49.5661 16.0759C54.0212 21.3575 60.2068 30.0092 65.688 39.3946C71.1953 48.8244 75.8454 58.7495 77.4308 66.6239L82.3324 65.637ZM53.3882 12.8522C51.6288 10.7661 48.8112 9.46803 45.9302 10.7515C43.2809 11.9317 41.6008 14.8942 40.8071 18.7685L45.7053 19.772C46.3775 16.4911 47.516 15.5187 47.9648 15.3188C48.1819 15.2221 48.7418 15.0985 49.566 16.0757L53.3882 12.8522ZM40.8071 18.7685C39.8775 23.3061 38.9094 29.1346 38.5472 34.9285C38.1889 40.6611 38.4031 46.6317 40.0244 51.3083L44.7486 49.6706C43.4582 45.9485 43.1911 40.7817 43.5375 35.2404C43.88 29.7604 44.8026 24.1786 45.7053 19.772L40.8071 18.7685ZM40.0244 51.3083C41.4446 55.4048 43.3533 59.4101 47.0244 63.3278C50.6673 67.2154 55.9198 70.884 63.8379 74.5478L65.9376 70.01C58.389 66.5172 53.7396 63.1817 50.6729 59.909C47.6345 56.6665 46.026 53.3553 44.7486 49.6706L40.0244 51.3083ZM63.8379 74.5478C67.6875 76.3291 75.308 79.4802 83.0483 82.7607C90.8624 86.0725 98.8063 89.519 103.495 91.9562L105.801 87.5197C100.905 84.9746 92.7689 81.45 84.9994 78.1571C77.1561 74.833 69.6889 71.7458 65.9376 70.01L63.8379 74.5478ZM103.495 91.9562C108.513 94.5647 116.809 97.7655 123.678 100.846C127.205 102.428 130.416 103.999 132.89 105.519C134.127 106.279 135.124 106.992 135.867 107.652C136.63 108.329 136.996 108.837 137.14 109.153L141.689 107.079C141.136 105.866 140.202 104.814 139.186 103.912C138.149 102.992 136.887 102.106 135.508 101.259C132.751 99.565 129.302 97.8889 125.724 96.2842C118.385 92.9925 110.692 90.0619 105.801 87.5197L103.495 91.9562ZM137.14 109.153C137.817 110.637 137.337 112.903 134.233 115.516C131.259 118.02 126.522 120.157 121.076 120.942L121.79 125.891C128.005 124.995 133.654 122.539 137.453 119.342C141.121 116.254 143.801 111.71 141.689 107.079L137.14 109.153ZM121.076 120.942C112.305 122.206 106.354 121.792 102.127 118.846C97.9217 115.916 94.7422 109.99 92.8921 98.362L87.9542 99.1476C89.8612 111.133 93.3338 118.814 99.2681 122.949C105.18 127.068 112.855 127.178 121.79 125.891L121.076 120.942ZM92.8921 98.362C91.0274 86.6423 90.0651 76.2223 89.8414 68.1809C89.7295 64.1573 89.8035 60.7649 90.0335 58.1219C90.2713 55.388 90.6564 53.7306 91.0098 52.9807L86.4868 50.8494C85.7276 52.4605 85.2961 54.8868 85.0523 57.6885C84.8006 60.5809 84.728 64.1756 84.8433 68.32C85.0741 76.6145 86.0617 87.2533 87.9542 99.1476L92.8921 98.362ZM91.0098 52.9807C91.9158 51.0579 92.4599 50.1784 93.1006 49.6415C93.6434 49.1868 94.526 48.7672 96.6442 48.6273L96.3148 43.6382C93.6694 43.8128 91.5764 44.3956 89.8895 45.8089C88.3006 47.1401 87.3608 48.9945 86.4868 50.8494L91.0098 52.9807ZM96.2599 48.6231C98.7511 48.8427 102.381 49.2068 105.782 49.1891C107.487 49.1803 109.219 49.0764 110.783 48.7858C112.304 48.5034 113.915 48.0013 115.175 47.024L112.109 43.074C111.77 43.337 111.073 43.6466 109.87 43.8699C108.712 44.0851 107.306 44.1812 105.756 44.1892C102.645 44.2054 99.2923 43.871 96.6991 43.6424L96.2599 48.6231ZM115.175 47.024C118.948 44.0954 119.694 40.5254 118.202 38.2316L114.011 40.958C113.539 40.2333 114.728 41.0417 112.109 43.074L115.175 47.024ZM117.016 37.2664C114.158 36.149 109.819 37.4645 107.192 43.2834L111.749 45.3407C113.611 41.2162 115.501 42.0424 115.196 41.9232L117.016 37.2664ZM107.192 43.2834C104.351 49.5756 103.271 51.8294 101.596 59.8585L106.491 60.8792C108.06 53.3569 108.978 51.4777 111.749 45.3407L107.192 43.2834ZM101.596 59.8585C99.5619 69.6145 95.9096 79.9163 84.9241 87.5108L87.7674 91.6237C100.298 82.9609 104.349 71.1515 106.491 60.8792L101.596 59.8585ZM84.9241 87.5108C79.313 91.3899 71.226 95.0138 63.1086 97.7619C54.984 100.512 47.0913 102.297 41.9278 102.63L42.2497 107.62C48.0255 107.247 56.3823 105.318 64.7119 102.498C73.0486 99.6755 81.6205 95.8732 87.7674 91.6237L84.9241 87.5108ZM41.9278 102.63C31.7156 103.289 28.2855 102.988 20.3839 105.167L21.7133 109.987C28.9734 107.985 31.6576 108.303 42.2497 107.62L41.9278 102.63ZM20.3839 105.167C16.9852 106.104 14.1621 107.875 12.9553 110.846C11.7572 113.795 12.4885 117.109 14.2662 120.356L18.6519 117.954C17.2079 115.317 17.2016 113.678 17.5877 112.727C17.9649 111.799 19.0474 110.722 21.7133 109.987L20.3839 105.167ZM43.4766 143.189C47.3544 140.065 51.9079 135.694 55.6759 130.603L51.6569 127.629C48.197 132.303 43.9654 136.375 40.3402 139.295L43.4766 143.189ZM14.2662 120.356C16.6078 124.633 17.2 126.233 21.0436 132.598L25.3236 130.013C21.5413 123.75 21.1495 122.516 18.6519 117.954L14.2662 120.356ZM21.0436 132.598C21.9434 134.088 22.9939 135.399 24.3258 136.297C25.7263 137.242 27.2958 137.634 28.9963 137.491C30.6159 137.354 32.2608 136.74 33.9364 135.857C35.6251 134.968 37.4897 133.728 39.5714 132.189L36.5997 128.168C34.6065 129.641 32.9732 130.714 31.6068 131.433C30.2272 132.16 29.2595 132.45 28.5747 132.508C27.9709 132.559 27.5442 132.437 27.1222 132.152C26.6316 131.821 26.0333 131.188 25.3236 130.013L21.0436 132.598ZM35.8769 129.007C35.3007 130.094 34.8 131.846 34.4644 133.58C34.1187 135.367 33.885 137.463 33.994 139.327C34.0484 140.256 34.1935 141.24 34.5206 142.137C34.8424 143.019 35.4303 144.055 36.5256 144.714C37.6936 145.417 38.9943 145.428 40.1647 145.08C41.2769 144.749 42.3808 144.071 43.4766 143.189L40.3402 139.295C39.4966 139.974 38.9769 140.216 38.7384 140.287C38.5582 140.341 38.7815 140.236 39.1028 140.43C39.3514 140.579 39.3235 140.713 39.2179 140.423C39.1177 140.149 39.0239 139.692 38.9855 139.035C38.909 137.728 39.0744 136.075 39.3734 134.53C39.6827 132.931 40.0726 131.768 40.2941 131.35L35.8769 129.007Z" fill="#2961B6"/>
</g>
</svg>
