<svg width="150" height="150" viewBox="0 0 150 150" fill="none" xmlns="http://www.w3.org/2000/svg">
<mask id="mask0_505_1414" style="mask-type:alpha" maskUnits="userSpaceOnUse" x="0" y="0" width="150" height="150">
<rect width="150" height="150" fill="#D9D9D9"/>
</mask>
<g mask="url(#mask0_505_1414)">
<path d="M52.2526 128.904C51.7892 127.034 44.53 99.4926 41.8602 88.3149C39.1903 77.1371 35.2955 75.0758 30.7974 70.2578C26.2993 65.4399 22.7777 62.0578 19.4993 58.7368C17.3204 56.5296 15.7345 55.2935 13.814 53.3284C12.551 50.5138 13.256 49.2157 15.6964 47.4403C18.1335 45.6672 23.3243 45.0438 26.1942 44.494C38.7321 42.0918 51.45 40.2028 63.7458 36.714C77.1529 32.9099 104.286 24.404 104.286 24.404C104.286 24.404 111.315 22.2658 114.844 21.0809C118.196 19.9556 121.552 19.2479 125.033 18.6259C126.424 18.3775 127.847 18.3304 129.038 18.6242C129.308 18.6907 132.148 19.2189 131.779 21.981C131.037 25.5746 118.247 63.6402 116.998 67.0929C116.168 69.5028 108.728 100.368 108.578 101.868C107.736 104.966 107.263 108.123 106.319 111.194C105.727 113.118 105.681 113.207 104.975 115.204C104.821 115.638 103.578 118.974 100.603 120.266C93.9939 122.136 91.0764 118.101 88.3658 115.473C87.2345 114.376 70.0748 97.4261 68.8954 96.3874C67.4205 95.0885 66.0355 93.7294 64.5814 92.4392C62.394 90.4986 47.1598 75.6189 46.4501 75.1244C45.6994 73.9199 44.5431 72.5655 46.6288 70.3289C48.0193 68.8378 49.3836 67.9727 51.5459 66.5508C54.1406 64.8445 57.6485 62.4532 59.843 61.1181C64.0602 58.5525 68.3403 56.3058 72.7196 54.069C75.5799 52.6079 78.631 50.9828 81.4141 49.4088C88.3741 45.4729 92.9145 42.2623 100.718 37.5636C105.799 34.1007 116.515 26.7756 119.719 28.4813C122.923 30.187 105.352 45.123 99.6703 50.1232C95.7407 53.5813 90.8364 59.1512 88.9962 61.0717C86.8059 63.3576 82.2277 69.1909 81.9178 69.6159C81.6079 70.041 75.0095 78.5605 75.0095 78.5605C72.774 81.1598 71.1805 84.1248 69.1045 86.7931C67.7083 88.5877 66.3044 90.3424 65.6965 92.5771C64.9544 95.3054 64.2183 99.9101 63.9707 100.896C63.6737 102.079 63.212 104.025 62.5387 109.53C62.4054 110.62 61.7501 118.674 61.1757 123.206C60.9431 125.041 60.6419 129.317 63.4963 127.649C66.9343 125.64 78.2071 110.813 80.357 107.589" stroke="#2961B6" stroke-width="5" stroke-linecap="round" stroke-linejoin="round"/>
</g>
</svg>
