<svg width="150" height="150" viewBox="0 0 150 150" fill="none" xmlns="http://www.w3.org/2000/svg">
<mask id="mask0_505_1408" style="mask-type:alpha" maskUnits="userSpaceOnUse" x="0" y="0" width="150" height="150">
<rect width="150" height="150" fill="#D9D9D9"/>
</mask>
<g mask="url(#mask0_505_1408)">
<path d="M46.2441 106.949C36.5521 108.549 17.3835 108.467 18.2451 95.3312C19.1068 82.1958 33.5781 73.3356 40.706 70.5474C48.8082 67.9142 64.1203 66.706 60.5512 82.9393C56.3976 90.6842 38.0908 89.9097 40.706 61.7183C42.3983 45.7638 61.0127 31.668 81.0117 35.6954C101.011 39.7227 112.856 55.2123 106.549 74.8844C100.242 94.5564 50.7055 100.597 40.706 99.5132C30.7065 98.4289 12.3998 92.3884 13.0151 82.9393C13.6305 73.4903 34.552 68.5334 45.1669 65.1258C55.7817 61.7183 97.3181 56.1422 115.317 61.7183C133.316 67.2944 139.778 78.2921 135.932 89.5997C132.855 98.6457 117.42 102.456 110.087 103.231C104.384 103.833 97.4902 100.003 105.741 95.8635C118.228 89.5997 136.085 100.133 134.085 105.864C132.086 111.595 124.086 114.538 107.471 113.919C94.1798 113.423 64.7044 110.717 51.6281 109.427" stroke="#2961B6" stroke-width="5" stroke-linecap="round"/>
</g>
</svg>
