<svg width="150" height="150" viewBox="0 0 150 150" fill="none" xmlns="http://www.w3.org/2000/svg">
<mask id="mask0_505_1405" style="mask-type:alpha" maskUnits="userSpaceOnUse" x="0" y="0" width="150" height="150">
<rect width="150" height="150" fill="#D9D9D9"/>
</mask>
<g mask="url(#mask0_505_1405)">
<path d="M68.4036 49.6739C68.3368 39.6622 69.7681 18.9627 76.0267 16.2576C83.8499 12.8763 102.707 43.3089 102.306 76.3273C101.904 109.346 81.0411 130.231 68.4036 131.424C55.766 132.618 45.9365 126.452 39.3167 117.302C32.6968 108.152 29.286 92.6377 34.3014 87.4661C39.3167 82.2946 49.3465 81.3 53.7598 83.6869C58.173 86.0738 56.5682 93.6322 52.5562 92.2399C48.5441 90.8475 6.21724 55.6412 16.6485 39.3309C27.0798 23.0206 111.934 77.9186 116.347 98.406C120.76 118.893 90.8707 145.149 91.2719 136.198C91.6731 127.247 103.509 72.7471 111.934 68.769C120.359 64.7908 124.572 74.935 122.566 78.5154C120.56 82.0957 108.122 78.7143 114.542 65.7854C119.677 55.4423 129.654 51.9283 134 51.4641" stroke="#2961B6" stroke-width="5" stroke-linecap="round"/>
</g>
</svg>
