<svg width="150" height="150" viewBox="0 0 150 150" fill="none" xmlns="http://www.w3.org/2000/svg">
<mask id="mask0_505_1419" style="mask-type:alpha" maskUnits="userSpaceOnUse" x="0" y="0" width="150" height="150">
<rect width="150" height="150" fill="#D9D9D9"/>
</mask>
<g mask="url(#mask0_505_1419)">
<path d="M27.9093 44.0075C44.1937 33.2846 75.7868 11.6011 81.2971 12.4036C88.1851 13.4067 124.077 47.3826 125.842 54.5452C127.607 61.7077 99.4967 84.6906 96.6125 88.0425C93.7283 91.3944 76.6583 108.71 71.3527 107.846C66.0472 106.981 54.8644 100.396 47.7004 91.1592C40.5364 81.9224 25.265 60.5631 27.095 53.3146C28.925 46.066 68.9805 59.7823 77.0552 60.8892C85.1299 61.9962 108.021 64.5996 110.562 60.617C113.103 56.6344 88.5512 25.8531 85.6922 21.3981C83.8895 18.5888 82.4621 17.311 80.1845 25.1211C77.9069 32.9311 68.9861 85.5655 67.1989 89.2609C63.8335 96.2197 53.387 103.331 49.9915 105.977C44.2639 110.439 30.5648 113.888 31.043 117.534C31.4256 120.451 60.9362 131.229 75.6437 136.254C81.8338 138.397 94.2185 141.723 94.2359 137.88C94.2575 133.076 82.5422 116.634 77.6951 112.806" stroke="#2961B6" stroke-width="5" stroke-linecap="round"/>
</g>
</svg>
