<svg width="21" height="17" viewBox="0 0 21 17" fill="none" xmlns="http://www.w3.org/2000/svg">
<path opacity="0.8" fill-rule="evenodd" clip-rule="evenodd" d="M0.810664 0.619174C0.810664 0.79371 0.828752 0.818616 1.80421 1.98882C2.35067 2.64437 2.82916 3.24285 2.8675 3.31875C2.98348 3.54826 2.97887 12.9767 2.86266 13.2045C2.81923 13.2896 2.28711 13.9597 1.68019 14.6934C0.580327 16.0232 0.576662 16.0283 0.57544 16.2148L0.574219 16.402H3.5889H6.60358V16.2291C6.60358 16.0606 6.57458 16.0212 5.44646 14.6572C4.81002 13.8877 4.26852 13.1986 4.24311 13.1257C4.20378 13.0129 4.1715 5.1066 4.21024 5.06849C4.21528 5.06352 5.38983 7.61166 6.82032 10.731L9.42122 16.4024L9.7513 16.3923L10.0814 16.3823L12.3128 10.7301L14.5442 5.07779L14.5542 9.69904C14.5637 14.0538 14.5603 14.3253 14.4951 14.407C14.4571 14.4547 14.0625 14.8459 13.6181 15.2765L12.8103 16.0592L12.7984 16.2503L12.7864 16.4414H16.749H20.7115V16.2474V16.0534L19.9009 15.2721C19.455 14.8423 19.0649 14.4428 19.0339 14.3843C18.9617 14.248 18.9479 2.6781 19.0198 2.52043C19.0429 2.46952 19.4419 2.06622 19.9064 1.62426L20.7509 0.820626V0.631272V0.441919H17.9573H15.1637L14.8818 1.1414C14.7267 1.52614 13.8348 3.74558 12.8997 6.07354C11.2551 10.1679 11.1978 10.3024 11.146 10.1916C11.1165 10.1286 10.1037 7.9136 8.89533 5.26935L6.69824 0.461622L3.75445 0.451534L0.810664 0.441406V0.619174Z" fill="#2961B6"/>
</svg>
