<svg width="336" height="1612" viewBox="0 0 336 1612" fill="none" xmlns="http://www.w3.org/2000/svg">
<path d="M23.4679 1.99998C23.4679 86.0553 20.9808 201.098 30.1482 283.748C39.7815 370.597 53.8578 451.837 68.387 535.691L68.767 537.884C93.0737 678.171 104.862 708.3 141.64 838.147C155.016 885.372 202.796 1058.54 172.172 1107.95C173.018 1113.3 173.665 1118.94 174.171 1124.66C197.268 1385.49 246.383 1487.9 334 1471.39L334 1612L1.17244e-05 1612L6.10352e-05 1.99998L23.4679 1.99998Z" fill="white"/>
<path d="M24.3069 1.99998C24.3069 86.0499 21.8265 201.085 30.9692 283.73C40.6601 371.331 54.8597 453.224 69.4836 537.85C93.7246 678.128 105.481 708.255 142.159 838.093C157.772 893.36 220.38 1121.12 149.64 1121.12C130.029 1121.12 127.832 1073.41 148.927 1071.13C166.046 1069.28 172.07 1095.91 174.603 1124.59C197.637 1385.4 246.619 1487.8 334 1471.29" stroke="#AF5E26" stroke-width="4" stroke-linecap="round"/>
</svg>
