<svg width="172" height="62" viewBox="0 0 172 62" fill="none" xmlns="http://www.w3.org/2000/svg">
<g filter="url(#filter0_d_1164_1656)">
<path d="M4.17188 2.69466C4.17188 1.5901 5.06729 0.69468 6.17185 0.694661L165.305 0.691929C166.409 0.69191 167.305 1.58734 167.305 2.69192L167.305 47.0612C167.305 48.1658 166.409 49.0612 165.305 49.0612L24.2392 49.0639C23.6199 49.0639 23.0355 49.3508 22.6568 49.8409L20.0684 53.1901C19.2678 54.2261 17.7041 54.2261 16.9035 53.1901L14.3151 49.8409C13.9364 49.3508 13.352 49.0639 12.7326 49.0639H6.17199C5.06743 49.0639 4.172 48.1685 4.17199 47.0639L4.17188 2.69466Z" fill="white"/>
<path d="M4.67188 2.69466C4.67188 1.86624 5.34343 1.19468 6.17185 1.19466L165.305 1.19193C166.133 1.19191 166.805 1.86349 166.805 2.69192L166.805 47.0612C166.805 47.8896 166.133 48.5612 165.305 48.5612L24.2392 48.5639C23.4651 48.5639 22.7346 48.9226 22.2612 49.5351L19.6728 52.8843C19.0723 53.6613 17.8996 53.6613 17.2991 52.8843L14.7107 49.5351C14.2373 48.9226 13.5068 48.5639 12.7326 48.5639H6.17199C5.34357 48.5639 4.67199 47.8923 4.67199 47.0639L4.67188 2.69466Z" stroke="#AF5E26" stroke-opacity="0.25"/>
</g>
<defs>
<filter id="filter0_d_1164_1656" x="0.171875" y="0.691895" width="171.133" height="61.2751" filterUnits="userSpaceOnUse" color-interpolation-filters="sRGB">
<feFlood flood-opacity="0" result="BackgroundImageFix"/>
<feColorMatrix in="SourceAlpha" type="matrix" values="0 0 0 0 0 0 0 0 0 0 0 0 0 0 0 0 0 0 127 0" result="hardAlpha"/>
<feOffset dy="4"/>
<feGaussianBlur stdDeviation="2"/>
<feComposite in2="hardAlpha" operator="out"/>
<feColorMatrix type="matrix" values="0 0 0 0 0 0 0 0 0 0 0 0 0 0 0 0 0 0 0.05 0"/>
<feBlend mode="normal" in2="BackgroundImageFix" result="effect1_dropShadow_1164_1656"/>
<feBlend mode="normal" in="SourceGraphic" in2="effect1_dropShadow_1164_1656" result="shape"/>
</filter>
</defs>
</svg>
