<svg width="12" height="24" viewBox="0 0 12 24" fill="none" xmlns="http://www.w3.org/2000/svg">
<path d="M3.25404 4.76303C3.25404 5.34377 3.27448 8.18504 3.27448 8.18504H0.847656V11.8253L3.25404 11.8186L3.27448 23.3527H8.12813V11.8253L11.2367 11.8186C11.2367 11.8186 11.4715 10.22 11.6167 8.18504C11.1996 8.18504 8.12813 8.18504 8.12813 8.18504C8.12813 8.18504 8.0492 5.66423 8.0492 5.26872C8.0492 4.87218 8.57 4.33858 9.08485 4.33858H11.6875C11.6875 3.81014 11.6875 1.98419 11.6875 0.297852C10.3467 0.297852 8.82154 0.297852 8.14882 0.297852C3.13591 0.297852 3.25404 4.18284 3.25404 4.76303Z" fill="#2961B6"/>
</svg>
