<svg width="287" height="214" viewBox="0 0 287 214" fill="none" xmlns="http://www.w3.org/2000/svg">
<path d="M212.889 87.0506C212.523 85.6217 206.792 64.5857 204.677 56.0464C202.563 47.5071 199.568 45.9538 196.094 42.2943C192.621 38.6348 189.904 36.0682 187.373 33.5468C185.691 31.8711 184.469 30.9349 182.987 29.4428C182.002 27.2963 182.534 26.2982 184.391 24.9237C186.245 23.5511 190.214 23.041 192.408 22.6019C201.99 20.6837 211.713 19.1572 221.103 16.4088C231.342 13.412 252.057 6.72914 252.057 6.72914C252.057 6.72914 257.424 5.04785 260.119 4.11848C262.677 3.23591 265.242 2.67292 267.903 2.17477C268.965 1.9758 270.054 1.93073 270.968 2.14808C271.175 2.19726 273.352 2.58358 273.088 4.70027C272.542 7.45572 262.993 36.6749 262.059 39.3258C261.438 41.1757 255.939 64.8489 255.834 65.9985C255.208 68.375 254.866 70.7947 254.163 73.1518C253.723 74.6283 253.687 74.6961 253.16 76.2292C253.045 76.563 252.114 79.1243 249.846 80.1317C244.798 81.6055 242.539 78.5351 240.448 76.5404C239.575 75.7079 226.332 62.8421 225.423 62.0545C224.286 61.0695 223.217 60.0379 222.096 59.0596C220.409 57.5879 208.653 46.2944 208.107 45.9204C207.525 45.0031 206.631 43.9737 208.213 42.2484C209.268 41.0982 210.307 40.4274 211.953 39.3252C213.929 38.0027 216.599 36.15 218.27 35.1141C221.482 33.1235 224.744 31.3767 228.082 29.6367C230.262 28.5002 232.588 27.2369 234.708 26.0144C240.011 22.9575 243.466 20.4711 249.409 16.825C253.277 14.142 261.433 8.46704 263.897 9.75244C266.361 11.0378 253.005 22.5821 248.687 26.4456C245.701 29.1176 241.982 33.4123 240.586 34.894C238.924 36.6577 235.456 41.1519 235.222 41.4792C234.987 41.8065 229.99 48.3697 229.99 48.3697C228.295 50.3736 227.094 52.6533 225.522 54.709C224.465 56.0916 223.401 57.4436 222.95 59.158C222.399 61.2512 221.865 64.7806 221.682 65.5367C221.462 66.4439 221.121 67.9368 220.64 72.1552C220.545 72.9903 220.094 79.1595 219.683 82.632C219.517 84.0383 219.314 87.3133 221.488 86.0184C224.107 84.4587 232.642 73.0378 234.267 70.5567" stroke="#2961B6" stroke-width="3" stroke-linecap="round" stroke-linejoin="round"/>
<path d="M1.83398 212.245C112.198 212.245 169.22 190.424 201.87 97.5425" stroke="#2961B6" stroke-width="3" stroke-linecap="round"/>
</svg>
