<svg width="134" height="139" viewBox="0 0 134 139" fill="none" xmlns="http://www.w3.org/2000/svg">
<g style="mix-blend-mode:overlay">
<path d="M40.1412 4.23898L38.9856 5.21924L38.9857 5.21931L40.1412 4.23898ZM31.5853 9.21991L30.1017 8.91129L31.5853 9.21991ZM30.6192 41.469L32.0507 40.972L30.6192 41.469ZM53.9679 63.9314L54.5992 62.5538L53.9679 63.9314ZM95.2677 81.8865L94.5738 83.2336L94.5738 83.2336L95.2677 81.8865ZM112.65 116.641L112.433 115.141L112.65 116.641ZM78.8135 42.8494L77.4451 42.1984L78.8135 42.8494ZM86.8623 36.8614L86.9917 35.3515L86.8761 35.3416L86.7602 35.3495L86.8623 36.8614ZM107.279 30.0691L108.547 29.2401L108.281 28.8318L107.826 28.6558L107.279 30.0691ZM100.371 34.9549L101.75 35.5835L101.75 35.5835L100.371 34.9549ZM94.6977 51.5513L93.2152 51.2374L94.6977 51.5513ZM30.2011 97.9048L30.1013 96.3928L30.2011 97.9048ZM3.52892 112.448L4.85688 111.718L4.85688 111.718L3.52892 112.448ZM29.9419 135.211L28.9945 134.028L29.9419 135.211ZM10.4955 124.985L9.19991 125.77L10.4955 124.985ZM25.9896 123.791L27.3257 124.506C27.6597 123.882 27.5171 123.11 26.9821 122.646C26.4472 122.183 25.6624 122.151 25.0921 122.571L25.9896 123.791ZM45.9454 119.583C51.1239 113.427 58.2474 102.323 63.6498 90.606C66.3543 84.7407 68.6466 78.6809 70.0453 72.9757C71.4387 67.2923 71.975 61.8427 71.0533 57.2523L68.0819 57.849C68.8788 61.8177 68.4461 66.7708 67.1018 72.2541C65.7628 77.7157 63.5489 83.5868 60.8976 89.337C55.5886 100.851 48.6026 111.716 43.6262 117.632L45.9454 119.583ZM71.0533 57.2523C69.2838 48.4398 64.1864 37.7223 58.4191 27.8892C52.6358 18.0288 46.089 8.90724 41.2968 3.25865L38.9857 5.21931C43.6509 10.7182 50.0986 19.6934 55.8049 29.4225C61.5271 39.1787 66.4142 49.5434 68.0819 57.849L71.0533 57.2523ZM41.2968 3.25872C39.6692 1.33995 37.232 0.315888 34.82 1.38719C32.5448 2.39775 30.9089 5.03101 30.1017 8.91129L33.0689 9.52853C33.7998 6.0149 35.102 4.57816 36.0503 4.15697C36.8618 3.79652 37.9335 3.97895 38.9856 5.21924L41.2968 3.25872ZM30.1017 8.91129C29.1321 13.5723 28.1239 19.5423 27.7402 25.4613C27.359 31.3427 27.5813 37.3399 29.1877 41.9661L32.0507 40.972C30.6467 36.9286 30.3909 31.4225 30.7646 25.6573C31.1359 19.9297 32.1159 14.1099 33.0689 9.52853L30.1017 8.91129ZM29.1877 41.9661C30.6258 46.108 32.5387 50.0947 36.2125 53.9912C39.8688 57.8691 45.1925 61.577 53.3367 65.309L54.5992 62.5538C46.6786 58.9243 41.7223 55.4171 38.4176 51.9121C35.1306 48.4259 33.4014 44.8621 32.0507 40.972L29.1877 41.9661ZM53.3367 65.309C57.3139 67.1315 65.1966 70.3577 73.2591 73.7402C81.3664 77.1415 89.6594 80.7024 94.5738 83.2336L95.9616 80.5393C90.9212 77.9432 82.5118 74.3354 74.4316 70.9455C66.3066 67.5367 58.5168 64.349 54.5992 62.5538L53.3367 65.309ZM94.5738 83.2336C99.7579 85.9039 108.245 89.1358 115.482 92.3497C119.156 93.9813 122.542 95.6197 125.173 97.2224C126.488 98.0234 127.58 98.7953 128.414 99.5302C129.26 100.276 129.76 100.915 129.996 101.431L132.752 100.17C132.266 99.1083 131.418 98.1385 130.418 97.2568C129.405 96.3636 128.152 95.4882 126.75 94.6343C123.948 92.9271 120.417 91.2253 116.712 89.5798C109.19 86.2394 101.068 83.1697 95.9616 80.5393L94.5738 83.2336ZM129.996 101.431C131 103.626 130.03 106.453 126.67 109.266C123.392 112.008 118.264 114.295 112.433 115.141L112.868 118.14C119.162 117.227 124.84 114.749 128.615 111.59C132.307 108.499 134.635 104.287 132.752 100.17L129.996 101.431ZM112.433 115.141C103.274 116.469 96.7129 116.119 91.9603 112.834C87.2251 109.56 83.8704 103.073 81.9584 90.9917L78.9649 91.4654C80.9118 103.768 84.4455 111.323 90.2368 115.327C96.0109 119.319 103.614 119.483 112.868 118.14L112.433 115.141ZM81.9584 90.9917C80.0373 78.8529 79.0523 68.0454 78.8343 59.6862C78.7253 55.5048 78.8088 51.9577 79.0578 49.1743C79.3118 46.336 79.7255 44.4597 80.1819 43.5004L77.4451 42.1984C76.7402 43.6802 76.2969 46.0238 76.0392 48.9042C75.7765 51.8396 75.6937 55.5101 75.8047 59.7652C76.0267 68.2789 77.027 79.22 78.9649 91.4654L81.9584 90.9917ZM80.1819 43.5004C81.1203 41.5279 81.7736 40.4082 82.6473 39.6805C83.4629 39.0011 84.6464 38.5298 86.9644 38.3733L86.7602 35.3495C84.1254 35.5273 82.2136 36.0973 80.7075 37.3519C79.2594 38.5582 78.3648 40.2654 77.4451 42.1984L80.1819 43.5004ZM86.7329 38.3712C89.3445 38.595 93.0573 38.9575 96.5289 38.933C98.2678 38.9207 99.9971 38.8118 101.535 38.5251C103.047 38.2433 104.523 37.7639 105.632 36.9074L103.78 34.5083C103.226 34.9361 102.3 35.2996 100.98 35.5457C99.6859 35.7869 98.1531 35.8907 96.5075 35.9024C93.2102 35.9257 89.6648 35.5807 86.9917 35.3515L86.7329 38.3712ZM105.632 36.9074C109.305 34.0728 109.679 30.9721 108.547 29.2401L106.01 30.8982C105.936 30.7848 106.763 32.2059 103.78 34.5083L105.632 36.9074ZM107.826 28.6558C105.547 27.7746 101.569 28.673 98.9921 34.3263L101.75 35.5835C103.859 30.9569 106.358 31.3376 106.732 31.4824L107.826 28.6558ZM98.9921 34.3263C96.0416 40.7981 94.9491 43.0484 93.2152 51.2374L96.1802 51.8652C97.8488 43.9842 98.8421 41.9614 101.75 35.5835L98.9921 34.3263ZM93.2152 51.2374C91.0579 61.4268 87.1547 72.3997 75.3823 80.498L77.1 82.995C89.8069 74.2538 93.9557 62.372 96.1802 51.8652L93.2152 51.2374ZM75.3823 80.498C69.4241 84.5967 60.9035 88.395 52.4111 91.266C43.9144 94.1384 35.604 96.0296 30.1013 96.3928L30.3009 99.4169C36.172 99.0294 44.7617 97.0512 53.3817 94.1371C62.0059 91.2215 70.8185 87.316 77.1 82.995L75.3823 80.498ZM30.1013 96.3928C19.4002 97.099 15.9984 96.7903 7.92028 99.0183L8.72609 101.94C16.4182 99.8183 19.3713 100.138 30.3009 99.4169L30.1013 96.3928ZM7.92028 99.0183C4.54759 99.9485 1.98759 101.631 0.907062 104.263C-0.169778 106.887 0.429627 109.955 2.20095 113.177L4.85688 111.718C3.29061 108.868 3.13312 106.822 3.7108 105.414C4.28479 104.016 5.79072 102.75 8.72609 101.94L7.92028 99.0183ZM30.8892 136.394C34.8715 133.204 39.5439 128.745 43.4042 123.568L40.9747 121.757C37.3016 126.682 32.8243 130.961 28.9945 134.028L30.8892 136.394ZM2.20095 113.177C4.65981 117.651 5.22984 119.226 9.19991 125.77L11.7912 124.199C7.85857 117.716 7.41122 116.365 4.85688 111.718L2.20095 113.177ZM9.19991 125.77C10.0923 127.242 11.0854 128.45 12.2878 129.255C13.5314 130.087 14.9141 130.43 16.4417 130.299C17.9209 130.172 19.4836 129.605 21.1624 128.725C22.8492 127.84 24.7394 126.591 26.8872 125.012L25.0921 122.571C22.9977 124.11 21.2471 125.258 19.7545 126.041C18.254 126.828 17.0989 127.201 16.1821 127.28C15.3137 127.354 14.6222 127.17 13.9736 126.736C13.2837 126.274 12.5667 125.477 11.7912 124.199L9.19991 125.77ZM24.6536 123.076C24.129 124.057 23.6289 125.742 23.2823 127.505C22.9293 129.301 22.697 131.372 22.7999 133.18C22.8513 134.081 22.9895 134.986 23.2799 135.781C23.5673 136.567 24.0579 137.388 24.9067 137.895C25.7978 138.426 26.8177 138.455 27.8169 138.158C28.7823 137.871 29.8033 137.264 30.8892 136.394L28.9945 134.028C28.0613 134.776 27.3925 135.122 26.9529 135.253C26.7425 135.315 26.6139 135.32 26.5495 135.315C26.4924 135.311 26.4705 135.299 26.4592 135.292C26.4289 135.274 26.2811 135.164 26.1265 134.741C25.9749 134.326 25.8676 133.743 25.8257 133.007C25.7421 131.54 25.932 129.738 26.256 128.09C26.5864 126.41 27.018 125.081 27.3257 124.506L24.6536 123.076Z" fill="white"/>
</g>
</svg>
